<svg width="40" height="40" viewBox="0 0 40 40" fill="none" xmlns="http://www.w3.org/2000/svg">
<rect width="40" height="40" rx="20" fill="#73716F" fill-opacity="0.15"/>
<mask id="mask0_15_448" style="mask-type:alpha" maskUnits="userSpaceOnUse" x="10" y="10" width="20" height="20">
<rect x="10" y="10" width="20" height="20" fill="#D9D9D9"/>
</mask>
<g mask="url(#mask0_15_448)">
<path d="M17.2502 24.4167C17.0974 24.2639 17.021 24.0695 17.021 23.8334C17.021 23.5972 17.0974 23.4028 17.2502 23.25L20.5002 20L17.2502 16.75C17.0974 16.5972 17.021 16.4028 17.021 16.1667C17.021 15.9306 17.0974 15.7361 17.2502 15.5834C17.4029 15.4306 17.5974 15.3542 17.8335 15.3542C18.0696 15.3542 18.2641 15.4306 18.4168 15.5834L22.2502 19.4167C22.3335 19.5 22.3927 19.5903 22.4277 19.6875C22.4621 19.7847 22.4793 19.8889 22.4793 20C22.4793 20.1111 22.4621 20.2153 22.4277 20.3125C22.3927 20.4097 22.3335 20.5 22.2502 20.5834L18.4168 24.4167C18.2641 24.5695 18.0696 24.6459 17.8335 24.6459C17.5974 24.6459 17.4029 24.5695 17.2502 24.4167Z" fill="#172537"/>
</g>
</svg>
