<svg width="223" height="150" viewBox="0 0 223 150" fill="none" xmlns="http://www.w3.org/2000/svg">
<path d="M16 0.5H206.617C215.178 0.5 222.117 7.43959 222.117 16V149.5H0.5V16C0.500001 7.43959 7.43959 0.5 16 0.5Z" fill="#FFD8D8" fill-opacity="0.2"/>
<mask id="mask0_23_447" style="mask-type:alpha" maskUnits="userSpaceOnUse" x="0" y="0" width="223" height="150">
<path d="M16 0.5H206.617C215.178 0.5 222.117 7.43959 222.117 16V149.5H0.5V16C0.500001 7.43959 7.43959 0.5 16 0.5Z" fill="#FFD8D8"/>
</mask>
<g mask="url(#mask0_23_447)" opacity="0.7">
<path d="M33.7314 66.6545C34.6211 66.5186 35.4606 67.1356 35.5966 68.0252C35.7755 69.1976 34.711 70.0308 33.8049 69.8964L31.364 73.2074C31.7723 74.0388 31.287 75.3046 30.1143 75.4838C28.9338 75.6639 28.0995 74.5917 28.242 73.6844L25.8648 71.9365C25.6333 72.0463 25.2777 72.1006 25.0239 72.065L21.9076 76.3159C22.3064 77.1404 21.8292 78.4052 20.6568 78.5845C19.7672 78.7205 18.9276 78.1035 18.7917 77.2138C18.6125 76.0411 19.6771 75.208 20.5833 75.3426L23.7087 71.0992C23.3004 70.2678 23.7859 69.0022 24.9583 68.8228C26.1391 68.6424 26.9734 69.7148 26.8307 70.6222L29.2087 72.369C29.4402 72.2593 29.7959 72.2049 30.0495 72.2405L32.4806 68.9232C32.0815 68.0986 32.5588 66.8337 33.7314 66.6545ZM19.9828 68.7552L21.6616 68.9126L20.1064 69.5642L19.949 71.243L19.2974 69.6878L17.6177 69.5305L19.1738 68.8788L19.3311 67.1991L19.9828 68.7552ZM29.2772 64.9098L31.0583 65.4072L29.5071 66.4148L29.0022 68.205L28.0031 66.6446L26.2054 66.1487L27.7731 65.1396L28.2607 63.3521L29.2772 64.9098Z" fill="#F77171"/>
<path fill-rule="evenodd" clip-rule="evenodd" d="M100.805 51.2102C100.721 50.6642 101.096 50.154 101.642 50.0706L105.596 49.4664C106.142 49.383 106.653 49.758 106.736 50.3039L107.34 54.258C107.424 54.804 107.049 55.3142 106.503 55.3976L102.549 56.0018C102.003 56.0852 101.492 55.7102 101.409 55.1643L101.282 54.336C100.45 54.773 99.7955 55.6173 99.4697 56.8107C99.0645 58.2946 99.197 60.2814 100.214 62.4281L101.478 62.235C102.024 62.1516 102.534 62.5266 102.617 63.0725L103.222 67.0266C103.305 67.5726 102.93 68.0828 102.384 68.1662L98.43 68.7704C97.884 68.8538 97.3738 68.4788 97.2904 67.9329L97.1332 66.9042C94.9555 67.0511 93.3089 66.4866 92.1325 65.2547C91.0633 64.135 90.5065 62.5819 90.1729 60.9275L89.1624 61.0819C88.6164 61.1654 88.1062 60.7904 88.0228 60.2445L87.4186 56.2904C87.3352 55.7444 87.7102 55.2342 88.2561 55.1508L92.2102 54.5466C92.7562 54.4632 93.2664 54.8381 93.3498 55.3841L93.954 59.3382C94.0374 59.8842 93.6624 60.3944 93.1165 60.4778L92.1529 60.625C92.454 62.0702 92.8977 63.1601 93.5789 63.8734C94.2175 64.5422 95.1869 64.9987 96.8299 64.9193L96.6862 63.9788C96.6028 63.4328 96.9778 62.9226 97.5237 62.8392L98.1642 62.7413C97.1891 60.4189 97.0298 58.1534 97.5403 56.2838C98.0514 54.4122 99.2585 52.9068 100.97 52.2909L100.805 51.2102ZM105.212 53.5716L103.235 53.8737L102.933 51.8966L104.91 51.5945L105.212 53.5716ZM89.5467 56.9768L89.8488 58.9538L91.8259 58.6518L91.5238 56.6747L89.5467 56.9768ZM98.8143 64.6652L99.1164 66.6423L101.093 66.3402L100.791 64.3631L98.8143 64.6652Z" fill="#F77171"/>
<path d="M61.5674 68.8389L65.2696 65.5925C65.5549 65.3634 65.6686 65.0594 65.6107 64.6805C65.5528 64.3015 65.3535 64.0454 65.0128 63.912L60.5101 61.9192C60.1479 61.7554 59.8076 61.7905 59.4893 62.0246C59.1711 62.2587 59.0421 62.5734 59.1025 62.9689L59.9106 68.2575C59.971 68.6529 60.1881 68.9148 60.5617 69.0431C60.9354 69.1715 61.2707 69.1034 61.5674 68.8389ZM55.278 74.3521C54.7343 74.4352 54.2395 74.3129 53.7935 73.9851C53.3468 73.6568 53.0819 73.2208 52.9989 72.6772L51.1864 60.8148C51.1033 60.2711 51.2259 59.7763 51.5543 59.3302C51.882 58.8836 52.3176 58.6188 52.8613 58.5357L68.6778 56.119C69.2215 56.0359 69.7167 56.1585 70.1634 56.4868C70.6093 56.8146 70.8738 57.2503 70.9569 57.794L72.7694 69.6563C72.8525 70.2 72.7302 70.6951 72.4026 71.1418C72.0742 71.5878 71.6381 71.8524 71.0944 71.9354L55.278 74.3521ZM54.9759 72.3751L70.7924 69.9584L68.9799 58.0961L53.1634 60.5127L54.9759 72.3751Z" fill="#F77171"/>
<path d="M165.059 41.3924C164.779 41.4352 164.53 41.3762 164.311 41.2154C164.093 41.0552 163.963 40.835 163.92 40.5549C163.877 40.2748 163.936 40.0254 164.096 39.8067C164.257 39.5886 164.477 39.4581 164.757 39.4153L172.666 38.207C172.946 38.1642 173.195 38.2229 173.413 38.3832C173.632 38.544 173.762 38.7644 173.805 39.0445C173.848 39.3246 173.789 39.5737 173.628 39.7918C173.468 40.0105 173.248 40.1413 172.968 40.1841L165.059 41.3924ZM162.547 44.8111C162.267 44.8539 162.017 44.7952 161.799 44.6351C161.581 44.4742 161.45 44.2537 161.407 43.9736C161.365 43.6935 161.423 43.4441 161.583 43.2254C161.744 43.0073 161.965 42.8768 162.245 42.834L176.084 40.7195C176.364 40.6767 176.613 40.7354 176.831 40.8956C177.05 41.0564 177.181 41.2769 177.224 41.5569C177.267 41.837 177.208 42.0865 177.047 42.3053C176.887 42.5233 176.666 42.6537 176.386 42.6965L162.547 44.8111ZM163.824 59.7901C163.28 59.8731 162.786 59.7508 162.34 59.4231C161.893 59.0948 161.628 58.6588 161.545 58.1151L160.035 48.2298C159.951 47.6861 160.074 47.1909 160.402 46.7442C160.73 46.2983 161.166 46.0337 161.709 45.9507L177.526 43.534C178.07 43.4509 178.565 43.5732 179.011 43.9008C179.457 44.2292 179.722 44.6653 179.805 45.209L181.315 55.0942C181.399 55.6379 181.276 56.1331 180.949 56.5797C180.62 57.0257 180.184 57.2903 179.641 57.3734L163.824 59.7901ZM163.522 57.813L179.338 55.3963L177.828 45.511L162.012 47.9277L163.522 57.813ZM170.68 54.6709L173.518 52.0622C173.784 51.8192 173.891 51.5247 173.838 51.1787C173.785 50.8327 173.596 50.5835 173.269 50.4311L169.781 48.7891C169.416 48.6088 169.076 48.6439 168.76 48.8945C168.444 49.1451 168.317 49.4681 168.377 49.8635L169.019 54.0647C169.079 54.4601 169.298 54.7303 169.674 54.8751C170.05 55.0199 170.385 54.9519 170.68 54.6709Z" fill="#F77171"/>
<path d="M-11.0827 73.6929L-10.2746 78.9815C-10.2142 79.377 -9.99715 79.6388 -9.62347 79.7672C-9.24979 79.8956 -8.91456 79.8275 -8.61778 79.563L-4.91566 76.3165C-4.63031 76.0875 -4.51659 75.7835 -4.57449 75.4045C-4.63239 75.0256 -4.8317 74.7694 -5.17243 74.636L-9.67508 72.6433C-10.0373 72.4794 -10.3776 72.5146 -10.6959 72.7487C-11.0142 72.9828 -11.1431 73.2975 -11.0827 73.6929ZM-6.6969 85.8449C-8.06437 86.0538 -9.38913 85.9905 -10.6712 85.655C-11.9531 85.3201 -13.1069 84.7758 -14.1325 84.0221C-15.1581 83.2683 -16.0222 82.3297 -16.7246 81.2063C-17.4277 80.0829 -17.8837 78.8375 -18.0926 77.4701C-18.3015 76.1026 -18.2382 74.7778 -17.9027 73.4958C-17.5678 72.2138 -17.0235 71.06 -16.2698 70.0344C-15.516 69.0088 -14.5775 68.1445 -13.4541 67.4414C-12.3307 66.739 -11.0852 66.2833 -9.71775 66.0744C-8.35029 65.8654 -7.02558 65.9284 -5.74363 66.2633C-4.46157 66.5988 -3.30774 67.1434 -2.28212 67.8972C-1.25651 68.6509 -0.392497 69.5895 0.309918 70.713C1.01299 71.8363 1.469 73.0817 1.67794 74.4492C1.88689 75.8167 1.82359 77.1414 1.48805 78.4235C1.15317 79.7054 0.608864 80.8592 -0.144872 81.8848C-0.898608 82.9104 -1.83721 83.7745 -2.96067 84.4769C-4.08403 85.1799 -5.32944 85.636 -6.6969 85.8449ZM-6.99899 83.8678C-4.80775 83.533 -3.05941 82.4779 -1.75395 80.7023C-0.449244 78.9262 0.0356999 76.9425 -0.299111 74.7513C-0.633922 72.5601 -1.6891 70.8117 -3.46465 69.5062C-5.24076 68.2015 -7.22443 67.7166 -9.41567 68.0514C-11.6069 68.3862 -13.3549 69.4413 -14.6597 71.2168C-15.9651 72.993 -16.4504 74.9767 -16.1155 77.168C-15.7807 79.3592 -14.7252 81.1075 -12.949 82.4129C-11.1736 83.7177 -9.19023 84.2027 -6.99899 83.8678Z" fill="#F77171"/>
<path d="M127.441 63.3261C126.897 63.4091 126.402 63.2868 125.956 62.9591C125.509 62.6308 125.245 62.1948 125.161 61.6511L123.349 49.7888C123.266 49.2451 123.389 48.7502 123.717 48.3041C124.045 47.8575 124.48 47.5927 125.024 47.5096L136.886 45.6971C137.43 45.614 137.925 45.7366 138.372 46.0649C138.818 46.3927 139.082 46.8284 139.165 47.3721L139.845 51.8205L142.483 48.2308C142.623 48.0409 142.798 47.972 143.008 48.0242C143.218 48.0763 143.341 48.2178 143.376 48.4484L144.675 56.9497C144.71 57.1804 144.636 57.352 144.45 57.4646C144.265 57.5772 144.078 57.5637 143.888 57.4241L140.298 54.786L140.978 59.2344C141.061 59.7781 140.939 60.2732 140.611 60.7199C140.283 61.1659 139.847 61.4305 139.303 61.5135L127.441 63.3261ZM127.139 61.349L139.001 59.5365L137.188 47.6742L125.326 49.4867L127.139 61.349Z" fill="#F77171"/>
<path d="M201.882 53.9749C201.338 54.058 200.844 53.9357 200.398 53.6079C199.951 53.2796 199.686 52.8437 199.603 52.3L197.186 36.4835C197.103 35.9398 197.226 35.4446 197.554 34.9979C197.882 34.552 198.318 34.2875 198.861 34.2044L205.954 33.1207C206.218 33.0804 206.477 33.0914 206.731 33.1537C206.985 33.2161 207.216 33.3241 207.425 33.4776L212.952 37.5394C213.161 37.6929 213.333 37.8814 213.468 38.1049C213.603 38.329 213.691 38.5729 213.732 38.8365L215.419 49.8833C215.503 50.427 215.38 50.9221 215.053 51.3687C214.724 51.8148 214.288 52.0793 213.745 52.1624L201.882 53.9749ZM206.687 39.0783L206.083 35.1241L199.163 36.1814L201.58 51.9979L213.442 50.1854L211.781 39.3116L207.827 39.9157C207.547 39.9585 207.298 39.8995 207.08 39.7386C206.861 39.5784 206.73 39.3583 206.687 39.0783Z" fill="#F77171"/>
<path d="M24.9712 9.31996C25.8608 9.18402 26.7004 9.80103 26.8363 10.6907C27.0152 11.8631 25.9507 12.6963 25.0447 12.5619L22.6037 15.8728C23.012 16.7043 22.5268 17.97 21.3541 18.1492C20.1736 18.3294 19.3392 17.2571 19.4817 16.3499L17.1045 14.602C16.8731 14.7118 16.5174 14.7661 16.2637 14.7304L13.1473 18.9813C13.5462 19.8059 13.0689 21.0707 11.8966 21.25C11.0069 21.3859 10.1673 20.7689 10.0314 19.8793C9.85222 18.7066 10.9169 17.8734 11.823 18.0081L14.9484 13.7647C14.5402 12.9333 15.0256 11.6677 16.198 11.4883C17.3788 11.3079 18.2132 12.3803 18.0704 13.2877L20.4484 15.0345C20.6799 14.9247 21.0357 14.8703 21.2893 14.906L23.7204 11.5886C23.3213 10.764 23.7985 9.49921 24.9712 9.31996ZM11.2225 11.4207L12.9013 11.5781L11.3461 12.2297L11.1887 13.9084L10.5372 12.3533L8.85743 12.196L10.4136 11.5443L10.5708 9.86455L11.2225 11.4207ZM20.5169 7.57526L22.298 8.07269L20.7469 9.08026L20.2419 10.8704L19.2428 9.31007L17.4452 8.81418L19.0129 7.80507L19.5004 6.01756L20.5169 7.57526Z" fill="#F77171"/>
<path fill-rule="evenodd" clip-rule="evenodd" d="M92.0446 -6.12442C91.9612 -6.67037 92.3362 -7.18057 92.8821 -7.26399L96.8362 -7.86816C97.3822 -7.95158 97.8924 -7.57662 97.9758 -7.03067L98.58 -3.07657C98.6634 -2.53062 98.2884 -2.02041 97.7425 -1.937L93.7884 -1.33283C93.2424 -1.24941 92.7322 -1.62436 92.6488 -2.17031L92.5222 -2.99858C91.6901 -2.56158 91.0353 -1.71726 90.7094 -0.523932C90.3042 0.959965 90.4368 2.94685 91.4538 5.09352L92.7176 4.90042C93.2635 4.817 93.7737 5.19196 93.8571 5.73791L94.4613 9.69202C94.5447 10.238 94.1698 10.7482 93.6238 10.8316L89.6697 11.4358C89.1238 11.5192 88.6136 11.1442 88.5301 10.5983L88.373 9.56964C86.1953 9.71646 84.5487 9.15205 83.3722 7.92008C82.303 6.80045 81.7462 5.24732 81.4127 3.59294L80.4021 3.74735C79.8562 3.83077 79.346 3.45581 79.2625 2.90987L78.6584 -1.04424C78.575 -1.59019 78.9499 -2.10039 79.4959 -2.18381L83.45 -2.78798C83.9959 -2.8714 84.5061 -2.49645 84.5895 -1.9505L85.1937 2.00361C85.2771 2.54956 84.9022 3.05976 84.3562 3.14318L83.3926 3.29042C83.6938 4.73561 84.1375 5.82551 84.8186 6.53883C85.4573 7.20761 86.4266 7.66414 88.0697 7.58472L87.926 6.64416C87.8426 6.09821 88.2175 5.58801 88.7635 5.50459L89.404 5.40673C88.4288 3.08434 88.2696 0.818764 88.7801 -1.05077C89.2911 -2.92239 90.4982 -4.42781 92.2098 -5.04367L92.0446 -6.12442ZM96.4519 -3.76301L94.4748 -3.46092L94.1727 -5.43798L96.1498 -5.74006L96.4519 -3.76301ZM80.7865 -0.357801L81.0886 1.61925L83.0656 1.31717L82.7635 -0.659886L80.7865 -0.357801ZM90.0541 7.33061L90.3562 9.30766L92.3332 9.00557L92.0311 7.02852L90.0541 7.33061Z" fill="#F77171"/>
<path d="M52.8072 11.5044L56.5093 8.25794C56.7947 8.02888 56.9084 7.72488 56.8505 7.34595C56.7926 6.96701 56.5933 6.71084 56.2525 6.57744L51.7499 4.58467C51.3877 4.42084 51.0474 4.45597 50.7291 4.69007C50.4108 4.92416 50.2819 5.23891 50.3423 5.63432L51.1504 10.9229C51.2108 11.3184 51.4278 11.5802 51.8015 11.7086C52.1752 11.837 52.5104 11.7689 52.8072 11.5044ZM46.5178 17.0176C45.9741 17.1007 45.4792 16.9783 45.0333 16.6506C44.5866 16.3223 44.3217 15.8863 44.2386 15.3426L42.4261 3.48029C42.343 2.9366 42.4657 2.44173 42.7941 1.99568C43.1217 1.54907 43.5574 1.28422 44.1011 1.20115L59.9175 -1.21553C60.4612 -1.2986 60.9564 -1.17599 61.4031 -0.847699C61.8491 -0.519963 62.1136 -0.0842503 62.1967 0.45944L64.0092 12.3218C64.0922 12.8655 63.97 13.3606 63.6423 13.8072C63.3139 14.2533 62.8779 14.5178 62.3342 14.6009L46.5178 17.0176ZM46.2157 15.0405L62.0321 12.6239L60.2196 0.761525L44.4032 3.1782L46.2157 15.0405Z" fill="#F77171"/>
<path d="M156.299 -15.9422C156.019 -15.8994 155.769 -15.9584 155.55 -16.1192C155.332 -16.2794 155.202 -16.4996 155.159 -16.7797C155.116 -17.0598 155.175 -17.3092 155.335 -17.5279C155.496 -17.746 155.717 -17.8765 155.997 -17.9193L163.905 -19.1276C164.185 -19.1704 164.434 -19.1117 164.652 -18.9514C164.871 -18.7906 165.002 -18.5702 165.044 -18.2901C165.087 -18.01 165.028 -17.7609 164.867 -17.5428C164.707 -17.3241 164.487 -17.1933 164.207 -17.1505L156.299 -15.9422ZM153.786 -12.5235C153.506 -12.4807 153.257 -12.5394 153.038 -12.6995C152.82 -12.8604 152.689 -13.0809 152.647 -13.361C152.604 -13.6411 152.663 -13.8904 152.823 -14.1091C152.984 -14.3273 153.204 -14.4578 153.484 -14.5005L167.324 -16.6151C167.604 -16.6579 167.853 -16.5992 168.071 -16.439C168.289 -16.2782 168.42 -16.0577 168.463 -15.7777C168.506 -15.4976 168.447 -15.2481 168.286 -15.0293C168.126 -14.8113 167.906 -14.6809 167.626 -14.6381L153.786 -12.5235ZM155.063 2.45546C154.52 2.53853 154.025 2.4162 153.579 2.08847C153.132 1.76017 152.867 1.32418 152.784 0.780491L151.274 -9.10478C151.191 -9.64847 151.313 -10.1437 151.642 -10.5904C151.969 -11.0363 152.405 -11.3008 152.949 -11.3839L168.765 -13.8006C169.309 -13.8837 169.804 -13.7614 170.251 -13.4338C170.697 -13.1054 170.961 -12.6693 171.044 -12.1256L172.555 -2.24036C172.638 -1.69667 172.516 -1.20152 172.188 -0.754908C171.86 -0.308856 171.423 -0.0442926 170.88 0.0387806L155.063 2.45546ZM154.761 0.478406L170.578 -1.93827L169.067 -11.8235L153.251 -9.40687L154.761 0.478406ZM161.919 -2.66373L164.757 -5.2724C165.024 -5.51542 165.13 -5.80992 165.078 -6.15591C165.025 -6.50189 164.835 -6.75108 164.508 -6.90347L161.02 -8.54547C160.655 -8.72578 160.315 -8.69065 159.999 -8.44008C159.683 -8.18951 159.556 -7.86652 159.616 -7.47111L160.258 -3.26987C160.319 -2.87445 160.537 -2.60433 160.913 -2.45949C161.289 -2.31465 161.625 -2.38273 161.919 -2.66373Z" fill="#F77171"/>
<path d="M118.68 5.99146C118.136 6.07454 117.641 5.95221 117.195 5.62447C116.749 5.29618 116.484 4.86018 116.401 4.31649L114.588 -7.54583C114.505 -8.08952 114.628 -8.58439 114.956 -9.03045C115.284 -9.47706 115.719 -9.7419 116.263 -9.82497L128.126 -11.6375C128.669 -11.7206 129.164 -11.5979 129.611 -11.2697C130.057 -10.9419 130.322 -10.5062 130.405 -9.96251L131.084 -5.51414L133.722 -9.10379C133.862 -9.29371 134.037 -9.36259 134.247 -9.31042C134.458 -9.25826 134.58 -9.11684 134.616 -8.88619L135.915 -0.384853C135.95 -0.154196 135.875 0.0174249 135.69 0.13001C135.505 0.242596 135.317 0.229099 135.127 0.0895181L131.537 -2.54856L132.217 1.89981C132.3 2.4435 132.178 2.93865 131.85 3.38527C131.522 3.83132 131.086 4.09588 130.542 4.17895L118.68 5.99146ZM118.378 4.01441L130.24 2.2019L128.428 -9.66043L116.565 -7.84792L118.378 4.01441Z" fill="#F77171"/>
<path d="M191.735 14.0495L193.094 22.9462L179.235 25.0638L177.121 11.2244L186.017 9.86506L185.715 7.888L176.838 9.24436C175.751 9.41051 174.997 10.4361 175.163 11.5235L177.278 25.3629C177.444 26.4503 178.47 27.204 179.557 27.0379L193.397 24.9233C194.484 24.7571 195.238 23.7315 195.071 22.6441L193.712 13.7474L191.735 14.0495ZM189.738 14.3546L190.356 12.1762L192.251 10.9359L190.072 10.3178L188.832 8.4234L188.214 10.6017L186.32 11.8421L188.498 12.4602L189.738 14.3546ZM186.145 15.6624L184.494 13.1327L183.673 16.04L181.144 17.691L184.051 18.5113L185.702 21.0409L186.522 18.1337L189.052 16.4827L186.145 15.6624Z" fill="#F77171"/>
<path d="M217.335 9.45513L218.143 14.7437C218.204 15.1392 218.421 15.401 218.794 15.5294C219.168 15.6578 219.503 15.5897 219.8 15.3252L223.502 12.0787C223.788 11.8497 223.901 11.5457 223.843 11.1668C223.786 10.7878 223.586 10.5316 223.246 10.3982L218.743 8.40548C218.381 8.24164 218.04 8.27677 217.722 8.51087C217.404 8.74496 217.275 9.05972 217.335 9.45513ZM221.721 21.6071C220.354 21.816 219.029 21.7527 217.747 21.4172C216.465 21.0823 215.311 20.538 214.285 19.7843C213.26 19.0306 212.396 18.092 211.693 16.9685C210.99 15.8451 210.534 14.5997 210.325 13.2323C210.116 11.8648 210.18 10.54 210.515 9.25798C210.85 7.97603 211.394 6.82224 212.148 5.79663C212.902 4.77102 213.84 3.90667 214.964 3.2036C216.087 2.50118 217.333 2.0455 218.7 1.83656C220.068 1.62762 221.392 1.69059 222.674 2.02547C223.956 2.361 225.11 2.90564 226.136 3.65938C227.161 4.41311 228.025 5.35171 228.728 6.47517C229.431 7.59853 229.887 8.84395 230.096 10.2114C230.305 11.5789 230.242 12.9036 229.906 14.1857C229.571 15.4676 229.027 16.6214 228.273 17.647C227.519 18.6727 226.581 19.5367 225.457 20.2391C224.334 20.9422 223.089 21.3982 221.721 21.6071ZM221.419 19.6301C223.61 19.2952 225.359 18.2401 226.664 16.4645C227.969 14.6884 228.454 12.7047 228.119 10.5135C227.784 8.32226 226.729 6.57391 224.953 5.26845C223.177 3.96375 221.194 3.4788 219.002 3.81361C216.811 4.14843 215.063 5.20356 213.758 6.97901C212.453 8.75521 211.968 10.7389 212.302 12.9302C212.637 15.1214 213.693 16.8697 215.469 18.1751C217.244 19.4799 219.228 19.9649 221.419 19.6301Z" fill="#F77171"/>
<path d="M142.337 31.7134C141.793 31.7965 141.298 31.6742 140.852 31.3465C140.405 31.0182 140.141 30.5822 140.057 30.0385L138.245 18.1762C138.162 17.6325 138.285 17.1376 138.613 16.6915C138.941 16.2449 139.376 15.9801 139.92 15.897L145.036 15.1154C145.299 15.0751 145.558 15.0861 145.812 15.1484C146.066 15.2108 146.297 15.3188 146.506 15.4723L148.13 16.6657L156.038 15.4574C156.582 15.3743 157.077 15.4969 157.524 15.8252C157.97 16.153 158.235 16.5887 158.318 17.1324L159.828 27.0176C159.911 27.5613 159.789 28.0565 159.461 28.5031C159.133 28.9491 158.697 29.2137 158.153 29.2968L142.337 31.7134ZM140.222 17.8741L142.035 29.7364L157.851 27.3197L156.341 17.4344L147.617 18.7674L145.338 17.0924L140.222 17.8741Z" fill="#F77171"/>
<path fill-rule="evenodd" clip-rule="evenodd" d="M6.46894 36.2878C6.38552 35.7418 6.76048 35.2316 7.30643 35.1482L11.2605 34.544C11.8065 34.4606 12.3167 34.8355 12.4001 35.3815L13.0043 39.3356C13.0877 39.8816 12.7127 40.3918 12.1668 40.4752L8.21268 41.0793C7.66673 41.1628 7.15653 40.7878 7.07311 40.2419L6.94655 39.4136C6.11439 39.8506 5.45961 40.6949 5.13375 41.8882C4.72856 43.3721 4.86108 45.359 5.87814 47.5057L7.14188 47.3126C7.68783 47.2292 8.19803 47.6041 8.28145 48.1501L8.88562 52.1042C8.96904 52.6501 8.59408 53.1603 8.04814 53.2438L4.09403 53.8479C3.54808 53.9313 3.03787 53.5564 2.95446 53.0104L2.79729 51.9818C0.619571 52.1286 -1.02702 51.5642 -2.20348 50.3322C-3.27264 49.2126 -3.82949 47.6595 -4.16303 46.0051L-5.17357 46.1595C-5.71952 46.2429 -6.22973 45.868 -6.31314 45.322L-6.91731 41.3679C-7.00073 40.822 -6.62578 40.3118 -6.07983 40.2284L-2.12572 39.6242C-1.57977 39.5408 -1.06957 39.9157 -0.986151 40.4617L-0.381981 44.4158C-0.298562 44.9617 -0.673517 45.4719 -1.21947 45.5554L-2.18307 45.7026C-1.8819 47.1478 -1.43822 48.2377 -0.757044 48.951C-0.118408 49.6198 0.850958 50.0763 2.494 49.9969L2.35029 49.0563C2.26687 48.5104 2.64182 48.0002 3.18777 47.9168L3.82828 47.8189C2.85316 45.4965 2.69389 43.2309 3.20439 41.3614C3.71546 39.4898 4.92255 37.9844 6.63407 37.3685L6.46894 36.2878ZM10.8762 38.6492L8.89912 38.9512L8.59704 36.9742L10.5741 36.6721L10.8762 38.6492ZM-4.78922 42.0544L-4.48713 44.0314L-2.51008 43.7293L-2.81216 41.7523L-4.78922 42.0544ZM4.47838 49.7428L4.78047 51.7198L6.75752 51.4177L6.45544 49.4407L4.47838 49.7428Z" fill="#F77171"/>
<path d="M70.723 26.47C70.4429 26.5128 70.1935 26.4538 69.9747 26.293C69.7566 26.1327 69.6262 25.9126 69.5834 25.6325C69.5406 25.3524 69.5993 25.103 69.7594 24.8843C69.9203 24.6662 70.1408 24.5357 70.4209 24.4929L78.3291 23.2846C78.6092 23.2418 78.8583 23.3005 79.0763 23.4607C79.2951 23.6215 79.4259 23.842 79.4687 24.1221C79.5115 24.4021 79.4524 24.6513 79.2915 24.8694C79.1314 25.0881 78.9113 25.2188 78.6312 25.2616L70.723 26.47ZM68.2105 29.8887C67.9305 29.9315 67.6811 29.8728 67.4624 29.7127C67.2442 29.5518 67.1138 29.3313 67.071 29.0512C67.0282 28.7711 67.0868 28.5217 67.247 28.303C67.4079 28.0849 67.6284 27.9544 67.9085 27.9116L81.7478 25.797C82.0279 25.7542 82.277 25.813 82.495 25.9732C82.7138 26.134 82.8446 26.3544 82.8874 26.6345C82.9302 26.9146 82.8712 27.164 82.7104 27.3828C82.5502 27.6009 82.33 27.7313 82.0499 27.7741L68.2105 29.8887ZM69.4877 44.8676C68.944 44.9507 68.4491 44.8284 68.0032 44.5006C67.5565 44.1723 67.2916 43.7364 67.2085 43.1927L65.6981 33.3074C65.615 32.7637 65.7376 32.2685 66.0659 31.8218C66.3937 31.3758 66.8294 31.1113 67.3731 31.0282L83.1895 28.6116C83.7332 28.5285 84.2283 28.6508 84.6749 28.9784C85.121 29.3068 85.3856 29.7428 85.4686 30.2865L86.9791 40.1718C87.0621 40.7155 86.9398 41.2107 86.6122 41.6573C86.2838 42.1033 85.8478 42.3679 85.3041 42.451L69.4877 44.8676ZM69.1856 42.8906L85.002 40.4739L83.4916 30.5886L67.6751 33.0053L69.1856 42.8906ZM76.3431 39.7484L79.1816 37.1398C79.448 36.8967 79.5547 36.6022 79.5019 36.2563C79.449 35.9103 79.2592 35.6611 78.9324 35.5087L75.4444 33.8667C75.0796 33.6864 74.7394 33.7215 74.4236 33.9721C74.1078 34.2227 73.9801 34.5457 74.0406 34.9411L74.6825 39.1423C74.7429 39.5377 74.9612 39.8078 75.3374 39.9527C75.7136 40.0975 76.0488 40.0294 76.3431 39.7484Z" fill="#F77171"/>
<path d="M33.1042 48.4036C32.5605 48.4867 32.0657 48.3644 31.6197 48.0366C31.173 47.7083 30.9081 47.2724 30.825 46.7287L29.0125 34.8663C28.9295 34.3226 29.0521 33.8278 29.3805 33.3817C29.7082 32.9351 30.1438 32.6703 30.6875 32.5872L42.5498 30.7747C43.0935 30.6916 43.5887 30.8142 44.0354 31.1425C44.4814 31.4703 44.7459 31.906 44.829 32.4497L45.5087 36.898L48.1467 33.3084C48.2863 33.1185 48.4613 33.0496 48.6715 33.1017C48.8818 33.1539 49.0046 33.2953 49.0399 33.526L50.3388 42.0273C50.3741 42.258 50.2991 42.4296 50.114 42.5422C49.9289 42.6548 49.7414 42.6413 49.5514 42.5017L45.9618 39.8636L46.6415 44.312C46.7246 44.8557 46.6023 45.3508 46.2746 45.7974C45.9462 46.2435 45.5102 46.5081 44.9665 46.5911L33.1042 48.4036ZM32.8021 46.4266L44.6644 44.6141L42.8519 32.7517L30.9896 34.5643L32.8021 46.4266Z" fill="#F77171"/>
<path d="M107.546 39.0525C107.002 39.1356 106.507 39.0132 106.061 38.6855C105.615 38.3572 105.35 37.9212 105.267 37.3775L102.85 21.5611C102.767 21.0174 102.889 20.5222 103.218 20.0755C103.546 19.6295 103.981 19.365 104.525 19.282L111.618 18.1982C111.881 18.158 112.14 18.169 112.394 18.2313C112.648 18.2937 112.879 18.4016 113.088 18.5552L118.615 22.617C118.824 22.7705 118.996 22.959 119.132 23.1825C119.267 23.4066 119.355 23.6505 119.395 23.9141L121.083 34.9609C121.166 35.5045 121.044 35.9997 120.716 36.4463C120.388 36.8924 119.952 37.1569 119.408 37.24L107.546 39.0525ZM112.351 24.1558L111.747 20.2017L104.827 21.259L107.244 37.0755L119.106 35.2629L117.445 24.3891L113.49 24.9933C113.21 25.0361 112.961 24.9771 112.743 24.8162C112.524 24.656 112.394 24.4359 112.351 24.1558Z" fill="#F77171"/>
<path d="M219.252 167.656C218.708 167.739 218.213 167.616 217.767 167.289C217.321 166.96 217.056 166.524 216.973 165.981L214.556 150.164C214.473 149.62 214.596 149.125 214.924 148.679C215.252 148.233 215.687 147.968 216.231 147.885L223.324 146.801C223.587 146.761 223.846 146.772 224.101 146.834C224.354 146.897 224.586 147.005 224.794 147.158L230.321 151.22C230.53 151.374 230.702 151.562 230.838 151.786C230.973 152.01 231.061 152.253 231.101 152.517L232.789 163.564C232.872 164.108 232.75 164.603 232.422 165.049C232.094 165.495 231.658 165.76 231.114 165.843L219.252 167.656ZM224.057 152.759L223.453 148.805L216.533 149.862L218.95 165.678L230.812 163.866L229.151 152.992L225.196 153.596C224.916 153.639 224.667 153.58 224.449 153.419C224.23 153.259 224.1 153.039 224.057 152.759Z" fill="#F77171"/>
<path d="M42.3408 123.001C43.2305 122.865 44.07 123.482 44.206 124.371C44.3848 125.544 43.3203 126.377 42.4143 126.242L39.9733 129.553C40.3817 130.385 39.8964 131.651 38.7237 131.83C37.5432 132.01 36.7089 130.938 36.8514 130.03L34.4741 128.283C34.2427 128.392 33.8871 128.447 33.6333 128.411L30.517 132.662C30.9158 133.487 30.4386 134.751 29.2662 134.931C28.3765 135.067 27.537 134.45 27.401 133.56C27.2218 132.387 28.2865 131.554 29.1927 131.689L32.3181 127.445C31.9098 126.614 32.3952 125.348 33.5677 125.169C34.7485 124.988 35.5828 126.061 35.44 126.968L37.8181 128.715C38.0496 128.605 38.4053 128.551 38.6589 128.587L41.09 125.269C40.6909 124.445 41.1682 123.18 42.3408 123.001ZM28.5922 125.101L30.2709 125.259L28.7158 125.91L28.5584 127.589L27.9068 126.034L26.2271 125.877L27.7832 125.225L27.9405 123.545L28.5922 125.101ZM37.8865 121.256L39.6676 121.753L38.1165 122.761L37.6116 124.551L36.6125 122.991L34.8148 122.495L36.3825 121.486L36.8701 119.698L37.8865 121.256Z" fill="#F77171"/>
<path fill-rule="evenodd" clip-rule="evenodd" d="M109.414 107.556C109.331 107.01 109.706 106.5 110.252 106.417L114.206 105.812C114.752 105.729 115.262 106.104 115.345 106.65L115.95 110.604C116.033 111.15 115.658 111.66 115.112 111.744L111.158 112.348C110.612 112.431 110.102 112.056 110.018 111.51L109.892 110.682C109.06 111.119 108.405 111.963 108.079 113.157C107.674 114.641 107.806 116.627 108.823 118.774L110.087 118.581C110.633 118.498 111.143 118.873 111.227 119.419L111.831 123.373C111.914 123.919 111.539 124.429 110.993 124.512L107.039 125.116C106.493 125.2 105.983 124.825 105.9 124.279L105.743 123.25C103.565 123.397 101.918 122.833 100.742 121.601C99.6727 120.481 99.1158 118.928 98.7823 117.274L97.7717 117.428C97.2258 117.511 96.7156 117.136 96.6322 116.59L96.028 112.636C95.9446 112.09 96.3195 111.58 96.8655 111.497L100.82 110.893C101.366 110.809 101.876 111.184 101.959 111.73L102.563 115.684C102.647 116.23 102.272 116.74 101.726 116.824L100.762 116.971C101.063 118.416 101.507 119.506 102.188 120.219C102.827 120.888 103.796 121.345 105.439 121.265L105.296 120.325C105.212 119.779 105.587 119.269 106.133 119.185L106.774 119.087C105.798 116.765 105.639 114.499 106.15 112.63C106.661 110.758 107.868 109.253 109.579 108.637L109.414 107.556ZM113.821 109.918L111.844 110.22L111.542 108.243L113.519 107.941L113.821 109.918ZM98.1561 113.323L98.4582 115.3L100.435 114.998L100.133 113.021L98.1561 113.323ZM107.424 121.011L107.726 122.988L109.703 122.686L109.401 120.709L107.424 121.011Z" fill="#F77171"/>
<path d="M70.1768 125.185L73.8789 121.939C74.1643 121.709 74.278 121.405 74.2201 121.027C74.1622 120.648 73.9629 120.391 73.6222 120.258L69.1195 118.265C68.7573 118.101 68.417 118.137 68.0987 118.371C67.7804 118.605 67.6515 118.92 67.7119 119.315L68.52 124.604C68.5804 124.999 68.7974 125.261 69.1711 125.389C69.5448 125.518 69.88 125.449 70.1768 125.185ZM63.8874 130.698C63.3437 130.781 62.8489 130.659 62.4029 130.331C61.9562 130.003 61.6913 129.567 61.6082 129.023L59.7957 117.161C59.7127 116.617 59.8353 116.122 60.1637 115.676C60.4914 115.23 60.927 114.965 61.4707 114.882L77.2871 112.465C77.8308 112.382 78.326 112.505 78.7727 112.833C79.2187 113.161 79.4832 113.596 79.5663 114.14L81.3788 126.002C81.4619 126.546 81.3396 127.041 81.012 127.488C80.6836 127.934 80.2475 128.198 79.7038 128.282L63.8874 130.698ZM63.5853 128.721L79.4017 126.304L77.5892 114.442L61.7728 116.859L63.5853 128.721Z" fill="#F77171"/>
<path d="M173.669 97.7385C173.389 97.7813 173.139 97.7223 172.92 97.5615C172.702 97.4012 172.572 97.1811 172.529 96.901C172.486 96.6209 172.545 96.3715 172.705 96.1528C172.866 95.9347 173.087 95.8042 173.367 95.7614L181.275 94.5531C181.555 94.5103 181.804 94.569 182.022 94.7292C182.241 94.89 182.372 95.1105 182.414 95.3906C182.457 95.6706 182.398 95.9197 182.237 96.1379C182.077 96.3566 181.857 96.4873 181.577 96.5301L173.669 97.7385ZM171.156 101.157C170.876 101.2 170.627 101.141 170.408 100.981C170.19 100.82 170.06 100.6 170.017 100.32C169.974 100.04 170.033 99.7902 170.193 99.5715C170.354 99.3534 170.574 99.2229 170.854 99.1801L184.694 97.0655C184.974 97.0227 185.223 97.0814 185.441 97.2417C185.66 97.4025 185.79 97.6229 185.833 97.903C185.876 98.1831 185.817 98.4325 185.656 98.6513C185.496 98.8694 185.276 98.9998 184.996 99.0426L171.156 101.157ZM172.433 116.136C171.89 116.219 171.395 116.097 170.949 115.769C170.502 115.441 170.237 115.005 170.154 114.461L168.644 104.576C168.561 104.032 168.683 103.537 169.012 103.09C169.339 102.644 169.775 102.38 170.319 102.297L186.135 99.8801C186.679 99.797 187.174 99.9193 187.621 100.247C188.067 100.575 188.331 101.011 188.414 101.555L189.925 111.44C190.008 111.984 189.886 112.479 189.558 112.926C189.23 113.372 188.794 113.636 188.25 113.719L172.433 116.136ZM172.131 114.159L187.948 111.742L186.437 101.857L170.621 104.274L172.131 114.159ZM179.289 111.017L182.127 108.408C182.394 108.165 182.501 107.871 182.448 107.525C182.395 107.179 182.205 106.93 181.878 106.777L178.39 105.135C178.025 104.955 177.685 104.99 177.369 105.241C177.054 105.491 176.926 105.814 176.986 106.21L177.628 110.411C177.689 110.806 177.907 111.076 178.283 111.221C178.659 111.366 178.995 111.298 179.289 111.017Z" fill="#F77171"/>
<path d="M-2.47331 130.039L-1.66523 135.328C-1.60482 135.723 -1.38777 135.985 -1.0141 136.113C-0.640419 136.242 -0.305189 136.173 -0.00840648 135.909L3.69372 132.663C3.97906 132.433 4.09278 132.129 4.03488 131.751C3.97698 131.372 3.77767 131.115 3.43695 130.982L-1.0657 128.989C-1.42794 128.825 -1.7682 128.861 -2.0865 129.095C-2.40479 129.329 -2.53373 129.644 -2.47331 130.039ZM1.91247 142.191C0.545008 142.4 -0.779751 142.337 -2.06181 142.001C-3.34376 141.666 -4.49755 141.122 -5.52316 140.368C-6.54877 139.614 -7.41279 138.676 -8.1152 137.552C-8.81828 136.429 -9.27429 135.184 -9.48323 133.816C-9.69217 132.449 -9.62887 131.124 -9.29333 129.842C-8.95845 128.56 -8.41415 127.406 -7.66041 126.38C-6.90667 125.355 -5.96813 124.49 -4.84477 123.787C-3.7213 123.085 -2.47584 122.629 -1.10838 122.42C0.259083 122.211 1.58379 122.274 2.86575 122.609C4.1478 122.945 5.30164 123.489 6.32725 124.243C7.35286 124.997 8.21688 125.936 8.91929 127.059C9.62237 128.182 10.0784 129.428 10.2873 130.795C10.4963 132.163 10.433 133.487 10.0974 134.769C9.76255 136.051 9.21824 137.205 8.4645 138.231C7.71077 139.256 6.77217 140.12 5.64871 140.823C4.52534 141.526 3.27993 141.982 1.91247 142.191ZM1.61039 140.214C3.80162 139.879 5.54997 138.824 6.85543 137.048C8.16013 135.272 8.64507 133.289 8.31026 131.097C7.97545 128.906 6.92027 127.158 5.14472 125.852C3.36861 124.548 1.38494 124.063 -0.806294 124.397C-2.99753 124.732 -4.74555 125.787 -6.05035 127.563C-7.35571 129.339 -7.84098 131.323 -7.50617 133.514C-7.17136 135.705 -6.11585 137.454 -4.33964 138.759C-2.56419 140.064 -0.58085 140.549 1.61039 140.214Z" fill="#F77171"/>
<path d="M136.05 119.672C135.506 119.755 135.011 119.633 134.566 119.305C134.119 118.977 133.854 118.541 133.771 117.997L131.958 106.135C131.875 105.591 131.998 105.096 132.326 104.65C132.654 104.204 133.09 103.939 133.633 103.856L145.496 102.043C146.039 101.96 146.535 102.083 146.981 102.411C147.427 102.739 147.692 103.174 147.775 103.718L148.454 108.167L151.093 104.577C151.232 104.387 151.407 104.318 151.617 104.37C151.828 104.422 151.95 104.564 151.986 104.794L153.285 113.296C153.32 113.526 153.245 113.698 153.06 113.811C152.875 113.923 152.687 113.91 152.497 113.77L148.908 111.132L149.587 115.58C149.67 116.124 149.548 116.619 149.22 117.066C148.892 117.512 148.456 117.777 147.912 117.86L136.05 119.672ZM135.748 117.695L147.61 115.883L145.798 104.02L133.935 105.833L135.748 117.695Z" fill="#F77171"/>
<path d="M210.492 110.321C209.948 110.404 209.453 110.282 209.007 109.954C208.56 109.626 208.295 109.19 208.212 108.646L205.796 92.8296C205.713 92.2859 205.835 91.7907 206.164 91.344C206.491 90.898 206.927 90.6335 207.471 90.5505L214.563 89.4667C214.827 89.4264 215.086 89.4375 215.34 89.4998C215.594 89.5622 215.825 89.6701 216.034 89.8237L221.561 93.8855C221.77 94.039 221.942 94.2275 222.077 94.451C222.213 94.6751 222.301 94.919 222.341 95.1826L224.029 106.229C224.112 106.773 223.99 107.268 223.662 107.715C223.334 108.161 222.898 108.425 222.354 108.508L210.492 110.321ZM215.297 95.4243L214.692 91.4702L207.773 92.5275L210.189 108.344L222.052 106.531L220.39 95.6576L216.436 96.2618C216.156 96.3046 215.907 96.2455 215.689 96.0847C215.47 95.9245 215.339 95.7044 215.297 95.4243Z" fill="#F77171"/>
<path d="M200.496 71.3841L201.855 80.2808L187.996 82.3984L185.881 68.559L194.778 67.1997L194.476 65.2226L185.599 66.579C184.512 66.7451 183.758 67.7707 183.924 68.8581L186.039 82.6975C186.205 83.7849 187.231 84.5386 188.318 84.3724L202.157 82.2579C203.245 82.0917 203.998 81.0661 203.832 79.9787L202.473 71.082L200.496 71.3841ZM198.499 71.6892L199.117 69.5108L201.011 68.2705L198.833 67.6524L197.593 65.758L196.975 67.9363L195.08 69.1767L197.259 69.7948L198.499 71.6892ZM194.905 72.997L193.254 70.4673L192.434 73.3746L189.904 75.0256L192.812 75.8459L194.463 78.3755L195.283 75.4683L197.813 73.8173L194.905 72.997Z" fill="#F77171"/>
<path d="M209.105 127.73L210.465 136.627L196.605 138.744L194.491 124.905L203.388 123.546L203.085 121.569L194.208 122.925C193.121 123.091 192.367 124.117 192.534 125.204L194.648 139.044C194.814 140.131 195.84 140.885 196.927 140.719L210.767 138.604C211.854 138.438 212.608 137.412 212.442 136.325L211.082 127.428L209.105 127.73ZM207.108 128.035L207.726 125.857L209.621 124.617L207.442 123.998L206.202 122.104L205.584 124.282L203.69 125.523L205.868 126.141L207.108 128.035ZM203.515 129.343L201.864 126.813L201.043 129.721L198.514 131.372L201.421 132.192L203.072 134.722L203.892 131.814L206.422 130.163L203.515 129.343Z" fill="#F77171"/>
<path d="M226.096 66.7897L226.904 72.0783C226.964 72.4737 227.181 72.7356 227.555 72.8639C227.928 72.9923 228.264 72.9242 228.56 72.6597L232.263 69.4133C232.548 69.1842 232.662 68.8802 232.604 68.5013C232.546 68.1224 232.347 67.8662 232.006 67.7328L227.503 65.74C227.141 65.5762 226.801 65.6113 226.482 65.8454C226.164 66.0795 226.035 66.3943 226.096 66.7897ZM230.481 78.9416C229.114 79.1506 227.789 79.0873 226.507 78.7517C225.225 78.4169 224.071 77.8726 223.046 77.1188C222.02 76.3651 221.156 75.4265 220.454 74.303C219.751 73.1797 219.295 71.9343 219.086 70.5668C218.877 69.1993 218.94 67.8746 219.276 66.5925C219.61 65.3106 220.155 64.1568 220.908 63.1312C221.662 62.1055 222.601 61.2412 223.724 60.5381C224.848 59.8357 226.093 59.38 227.46 59.1711C228.828 58.9622 230.153 59.0251 231.435 59.36C232.717 59.6955 233.87 60.2402 234.896 60.9939C235.922 61.7476 236.786 62.6862 237.488 63.8097C238.191 64.9331 238.647 66.1785 238.856 67.5459C239.065 68.9134 239.002 70.2382 238.666 71.5202C238.331 72.8022 237.787 73.956 237.033 74.9816C236.28 76.0072 235.341 76.8712 234.218 77.5736C233.094 78.2767 231.849 78.7327 230.481 78.9416ZM230.179 76.9646C232.37 76.6298 234.119 75.5746 235.424 73.799C236.729 72.0229 237.214 70.0393 236.879 67.848C236.544 65.6568 235.489 63.9084 233.714 62.603C231.937 61.2983 229.954 60.8133 227.763 61.1481C225.571 61.483 223.823 62.5381 222.518 64.3135C221.213 66.0897 220.728 68.0735 221.063 70.2647C221.397 72.4559 222.453 74.2042 224.229 75.5096C226.005 76.8144 227.988 77.2994 230.179 76.9646Z" fill="#F77171"/>
<path d="M151.097 89.048C150.553 89.1311 150.058 89.0087 149.612 88.681C149.166 88.3527 148.901 87.9167 148.818 87.373L147.005 75.5107C146.922 74.967 147.045 74.4721 147.373 74.0261C147.701 73.5795 148.136 73.3146 148.68 73.2315L153.796 72.4499C154.059 72.4096 154.318 72.4206 154.573 72.4829C154.826 72.5453 155.058 72.6533 155.267 72.8068L156.89 74.0003L164.799 72.7919C165.342 72.7088 165.838 72.8315 166.284 73.1598C166.73 73.4875 166.995 73.9232 167.078 74.4669L168.588 84.3522C168.671 84.8959 168.549 85.391 168.221 85.8376C167.893 86.2837 167.457 86.5482 166.913 86.6313L151.097 89.048ZM148.982 75.2086L150.795 87.0709L166.611 84.6542L165.101 74.769L156.377 76.1019L154.098 74.427L148.982 75.2086Z" fill="#F77171"/>
<path d="M159.706 145.394C159.163 145.477 158.668 145.355 158.222 145.027C157.775 144.699 157.51 144.263 157.427 143.719L155.615 131.857C155.532 131.313 155.654 130.818 155.983 130.372C156.31 129.926 156.746 129.661 157.29 129.578L162.405 128.796C162.669 128.756 162.928 128.767 163.182 128.829C163.436 128.891 163.667 128.999 163.876 129.153L165.5 130.346L173.408 129.138C173.952 129.055 174.447 129.178 174.894 129.506C175.34 129.834 175.604 130.269 175.687 130.813L177.198 140.698C177.281 141.242 177.158 141.737 176.831 142.184C176.502 142.63 176.066 142.894 175.523 142.977L159.706 145.394ZM157.592 131.555L159.404 143.417L175.221 141L173.71 131.115L164.986 132.448L162.707 130.773L157.592 131.555Z" fill="#F77171"/>
<path fill-rule="evenodd" clip-rule="evenodd" d="M15.2292 93.6223C15.1458 93.0763 15.5207 92.5661 16.0667 92.4827L20.0208 91.8785C20.5667 91.7951 21.0769 92.1701 21.1604 92.716L21.7645 96.6701C21.8479 97.2161 21.473 97.7263 20.927 97.8097L16.9729 98.4139C16.427 98.4973 15.9168 98.1223 15.8334 97.5764L15.7068 96.7481C14.8746 97.1851 14.2199 98.0294 13.894 99.2228C13.4888 100.707 13.6213 102.694 14.6384 104.84L15.9021 104.647C16.4481 104.564 16.9583 104.939 17.0417 105.485L17.6459 109.439C17.7293 109.985 17.3543 110.495 16.8084 110.578L12.8543 111.182C12.3083 111.266 11.7981 110.891 11.7147 110.345L11.5575 109.316C9.37983 109.463 7.73323 108.899 6.55678 107.667C5.48761 106.547 4.93077 104.994 4.59722 103.34L3.58668 103.494C3.04073 103.577 2.53053 103.203 2.44711 102.657L1.84294 98.7025C1.75952 98.1565 2.13448 97.6463 2.68042 97.5629L6.63453 96.9587C7.18048 96.8753 7.69068 97.2503 7.7741 97.7962L8.37827 101.75C8.46169 102.296 8.08674 102.806 7.54079 102.89L6.57719 103.037C6.87835 104.482 7.32204 105.572 8.00321 106.286C8.64185 106.954 9.61121 107.411 11.2543 107.331L11.1105 106.391C11.0271 105.845 11.4021 105.335 11.948 105.251L12.5885 105.153C11.6134 102.831 11.4541 100.565 11.9646 98.6959C12.4757 96.8243 13.6828 95.3189 15.3943 94.703L15.2292 93.6223ZM19.6364 95.9837L17.6594 96.2858L17.3573 94.3087L19.3343 94.0066L19.6364 95.9837ZM3.97104 99.3889L4.27312 101.366L6.25018 101.064L5.94809 99.0868L3.97104 99.3889ZM13.2386 107.077L13.5407 109.054L15.5178 108.752L15.2157 106.775L13.2386 107.077Z" fill="#F77171"/>
<path fill-rule="evenodd" clip-rule="evenodd" d="M23.8386 149.968C23.7552 149.422 24.1301 148.912 24.6761 148.829L28.6302 148.225C29.1761 148.141 29.6863 148.516 29.7697 149.062L30.3739 153.016C30.4573 153.562 30.0824 154.072 29.5364 154.156L25.5823 154.76C25.0364 154.843 24.5262 154.468 24.4427 153.922L24.3162 153.094C23.484 153.531 22.8292 154.376 22.5034 155.569C22.0982 157.053 22.2307 159.04 23.2478 161.186L24.5115 160.993C25.0575 160.91 25.5677 161.285 25.6511 161.831L26.2552 165.785C26.3387 166.331 25.9637 166.841 25.4178 166.924L21.4637 167.529C20.9177 167.612 20.4075 167.237 20.3241 166.691L20.1669 165.662C17.9892 165.809 16.3426 165.245 15.1662 164.013C14.097 162.893 13.5401 161.34 13.2066 159.686L12.1961 159.84C11.6501 159.924 11.1399 159.549 11.0565 159.003L10.4523 155.049C10.3689 154.503 10.7439 153.992 11.2898 153.909L15.2439 153.305C15.7899 153.221 16.3001 153.596 16.3835 154.142L16.9876 158.096C17.0711 158.642 16.6961 159.153 16.1502 159.236L15.1866 159.383C15.4877 160.828 15.9314 161.918 16.6126 162.632C17.2512 163.3 18.2206 163.757 19.8636 163.677L19.7199 162.737C19.6365 162.191 20.0115 161.681 20.5574 161.597L21.1979 161.5C20.2228 159.177 20.0635 156.912 20.574 155.042C21.0851 153.17 22.2922 151.665 24.0037 151.049L23.8386 149.968ZM28.2458 152.33L26.2688 152.632L25.9667 150.655L27.9437 150.353L28.2458 152.33ZM12.5804 155.735L12.8825 157.712L14.8596 157.41L14.5575 155.433L12.5804 155.735ZM21.848 163.423L22.1501 165.4L24.1272 165.098L23.8251 163.121L21.848 163.423Z" fill="#F77171"/>
<path d="M79.4832 83.8046C79.2032 83.8474 78.9537 83.7884 78.7349 83.6276C78.5169 83.4673 78.3865 83.2472 78.3437 82.9671C78.3009 82.687 78.3596 82.4376 78.5197 82.2189C78.6806 82.0008 78.9011 81.8703 79.1812 81.8275L87.0894 80.6192C87.3695 80.5764 87.6185 80.6351 87.8366 80.7953C88.0554 80.9561 88.1862 81.1766 88.229 81.4567C88.2717 81.7367 88.2127 81.9858 88.0518 82.204C87.8917 82.4227 87.6716 82.5534 87.3915 82.5962L79.4832 83.8046ZM76.9708 87.2233C76.6907 87.2661 76.4413 87.2074 76.2226 87.0473C76.0045 86.8864 75.874 86.6659 75.8312 86.3858C75.7884 86.1057 75.8471 85.8563 76.0072 85.6376C76.1681 85.4195 76.3886 85.289 76.6687 85.2462L90.5081 83.1316C90.7882 83.0888 91.0372 83.1476 91.2553 83.3078C91.4741 83.4686 91.6049 83.689 91.6477 83.9691C91.6905 84.2492 91.6315 84.4986 91.4707 84.7174C91.3104 84.9355 91.0903 85.0659 90.8102 85.1087L76.9708 87.2233ZM78.2479 102.202C77.7042 102.285 77.2094 102.163 76.7634 101.835C76.3167 101.507 76.0518 101.071 75.9688 100.527L74.4583 90.642C74.3753 90.0983 74.4979 89.6031 74.8262 89.1564C75.1539 88.7104 75.5896 88.4459 76.1333 88.3628L91.9497 85.9462C92.4934 85.8631 92.9886 85.9854 93.4352 86.313C93.8812 86.6414 94.1458 87.0774 94.2289 87.6211L95.7393 97.5064C95.8224 98.0501 95.7001 98.5452 95.3725 98.9919C95.0441 99.4379 94.608 99.7025 94.0643 99.7855L78.2479 102.202ZM77.9458 100.225L93.7623 97.8085L92.2518 87.9232L76.4354 90.3399L77.9458 100.225ZM85.1033 97.083L87.9419 94.4744C88.2082 94.2313 88.315 93.9368 88.2621 93.5909C88.2092 93.2449 88.0194 92.9957 87.6927 92.8433L84.2046 91.2013C83.8399 91.021 83.4996 91.0561 83.1838 91.3067C82.8681 91.5573 82.7404 91.8802 82.8008 92.2757L83.4427 96.4769C83.5032 96.8723 83.7215 97.1424 84.0977 97.2873C84.4738 97.4321 84.8091 97.364 85.1033 97.083Z" fill="#F77171"/>
<path d="M88.0926 140.151C87.8125 140.193 87.5631 140.134 87.3443 139.974C87.1263 139.813 86.9958 139.593 86.9531 139.313C86.9103 139.033 86.9689 138.784 87.1291 138.565C87.29 138.347 87.5105 138.216 87.7905 138.174L95.6988 136.965C95.9788 136.922 96.2279 136.981 96.4459 137.141C96.6647 137.302 96.7955 137.523 96.8383 137.803C96.8811 138.083 96.8221 138.332 96.6612 138.55C96.501 138.769 96.2809 138.899 96.0008 138.942L88.0926 140.151ZM85.5802 143.569C85.3001 143.612 85.0507 143.553 84.832 143.393C84.6139 143.232 84.4834 143.012 84.4406 142.732C84.3978 142.452 84.4565 142.202 84.6166 141.984C84.7775 141.765 84.998 141.635 85.2781 141.592L99.1175 139.478C99.3975 139.435 99.6466 139.494 99.8646 139.654C100.083 139.815 100.214 140.035 100.257 140.315C100.3 140.595 100.241 140.845 100.08 141.063C99.9198 141.281 99.6996 141.412 99.4196 141.455L85.5802 143.569ZM86.8573 158.548C86.3136 158.631 85.8188 158.509 85.3728 158.181C84.9261 157.853 84.6612 157.417 84.5781 156.873L83.0677 146.988C82.9846 146.444 83.1073 145.949 83.4355 145.502C83.7633 145.056 84.199 144.792 84.7427 144.709L100.559 142.292C101.103 142.209 101.598 142.331 102.045 142.659C102.491 142.987 102.755 143.423 102.838 143.967L104.349 153.852C104.432 154.396 104.309 154.891 103.982 155.338C103.653 155.784 103.217 156.048 102.674 156.132L86.8573 158.548ZM86.5552 156.571L102.372 154.154L100.861 144.269L85.0448 146.686L86.5552 156.571ZM93.7127 153.429L96.5513 150.82C96.8176 150.577 96.9244 150.283 96.8715 149.937C96.8186 149.591 96.6288 149.342 96.302 149.189L92.814 147.547C92.4493 147.367 92.109 147.402 91.7932 147.653C91.4774 147.903 91.3498 148.226 91.4102 148.622L92.0521 152.823C92.1125 153.218 92.3308 153.488 92.707 153.633C93.0832 153.778 93.4184 153.71 93.7127 153.429Z" fill="#F77171"/>
<path d="M41.8649 105.738C41.3212 105.821 40.8264 105.699 40.3805 105.371C39.9338 105.043 39.6689 104.607 39.5858 104.063L37.7733 92.2009C37.6902 91.6572 37.8129 91.1624 38.1413 90.7163C38.4689 90.2697 38.9046 90.0049 39.4482 89.9218L51.3106 88.1093C51.8543 88.0262 52.3495 88.1488 52.7962 88.4771C53.2421 88.8048 53.5066 89.2406 53.5897 89.7843L54.2694 94.2326L56.9075 90.643C57.0471 90.4531 57.222 90.3842 57.4323 90.4363C57.6426 90.4885 57.7654 90.6299 57.8006 90.8606L59.0996 99.3619C59.1348 99.5926 59.0599 99.7642 58.8747 99.8768C58.6896 99.9894 58.5021 99.9759 58.3122 99.8363L54.7225 97.1982L55.4022 101.647C55.4853 102.19 55.363 102.685 55.0354 103.132C54.707 103.578 54.2709 103.843 53.7273 103.926L41.8649 105.738ZM41.5628 103.761L53.4252 101.949L51.6127 90.0863L39.7503 91.8988L41.5628 103.761Z" fill="#F77171"/>
<path d="M50.4743 162.084C49.9306 162.167 49.4358 162.045 48.9898 161.717C48.5431 161.389 48.2782 160.953 48.1952 160.409L46.3827 148.547C46.2996 148.003 46.4222 147.508 46.7506 147.062C47.0783 146.616 47.5139 146.351 48.0576 146.268L59.9199 144.455C60.4636 144.372 60.9588 144.495 61.4056 144.823C61.8515 145.151 62.116 145.587 62.1991 146.13L62.8788 150.579L65.5169 146.989C65.6564 146.799 65.8314 146.73 66.0417 146.782C66.252 146.835 66.3747 146.976 66.41 147.207L67.7089 155.708C67.7442 155.939 67.6692 156.11 67.4841 156.223C67.299 156.335 67.1115 156.322 66.9216 156.182L63.3319 153.544L64.0116 157.993C64.0947 158.536 63.9724 159.031 63.6448 159.478C63.3164 159.924 62.8803 160.189 62.3366 160.272L50.4743 162.084ZM50.1722 160.107L62.0345 158.295L60.222 146.432L48.3597 148.245L50.1722 160.107Z" fill="#F77171"/>
<path d="M116.306 96.3871C115.763 96.4702 115.268 96.3478 114.822 96.0201C114.375 95.6918 114.11 95.2558 114.027 94.7121L111.611 78.8957C111.528 78.352 111.65 77.8568 111.979 77.4101C112.306 76.9641 112.742 76.6996 113.286 76.6166L120.378 75.5328C120.642 75.4925 120.901 75.5036 121.155 75.5659C121.409 75.6283 121.64 75.7362 121.849 75.8898L127.376 79.9516C127.585 80.1051 127.757 80.2936 127.892 80.5171C128.028 80.7412 128.116 80.9851 128.156 81.2487L129.844 92.2955C129.927 92.8391 129.805 93.3343 129.477 93.7809C129.149 94.227 128.713 94.4915 128.169 94.5746L116.306 96.3871ZM121.112 81.4904L120.507 77.5363L113.588 78.5936L116.004 94.41L127.867 92.5975L126.205 81.7237L122.251 82.3279C121.971 82.3707 121.722 82.3117 121.504 82.1508C121.285 81.9906 121.154 81.7705 121.112 81.4904Z" fill="#F77171"/>
<path d="M124.916 152.733C124.372 152.816 123.877 152.694 123.431 152.366C122.985 152.038 122.72 151.602 122.637 151.058L120.22 135.242C120.137 134.698 120.26 134.203 120.588 133.756C120.916 133.31 121.351 133.046 121.895 132.963L128.988 131.879C129.251 131.839 129.51 131.85 129.765 131.912C130.018 131.974 130.25 132.082 130.458 132.236L135.985 136.298C136.194 136.451 136.366 136.64 136.502 136.863C136.637 137.087 136.725 137.331 136.765 137.595L138.453 148.641C138.536 149.185 138.414 149.68 138.086 150.127C137.758 150.573 137.322 150.838 136.778 150.921L124.916 152.733ZM129.721 137.836L129.117 133.882L122.197 134.94L124.614 150.756L136.476 148.944L134.815 138.07L130.861 138.674C130.58 138.717 130.331 138.658 130.113 138.497C129.895 138.337 129.764 138.117 129.721 137.836Z" fill="#F77171"/>
</g>
</svg>
