<svg width="223" height="150" viewBox="0 0 223 150" fill="none" xmlns="http://www.w3.org/2000/svg">
<path d="M16 0.5H206.617C215.178 0.5 222.117 7.43959 222.117 16V148.979H0.5V16C0.5 7.43959 7.43959 0.5 16 0.5Z" fill="#C3EBD8" fill-opacity="0.2"/>
<mask id="mask0_23_445" style="mask-type:alpha" maskUnits="userSpaceOnUse" x="0" y="0" width="223" height="150">
<path d="M16 0.5H206.617C215.178 0.5 222.117 7.43959 222.117 16V148.979H0.5V16C0.5 7.43959 7.43959 0.5 16 0.5Z" fill="#C3EBD8"/>
</mask>
<g mask="url(#mask0_23_445)" opacity="0.7">
<path d="M33.0627 68.3359C33.9507 68.2003 34.7876 68.8155 34.9234 69.7033C35.1023 70.874 34.0398 71.7055 33.1352 71.571L30.6993 74.8763C31.107 75.7062 30.6226 76.9702 29.4521 77.1493C28.2733 77.3295 27.4396 76.2584 27.5821 75.3526L25.2095 73.6089C24.9785 73.7186 24.623 73.7728 24.3697 73.7372L21.2579 77.9796C21.6564 78.8027 21.1803 80.066 20.0096 80.2449C19.1216 80.3805 18.2835 79.7646 18.1478 78.8766C17.9689 77.7059 19.0323 76.8743 19.937 77.0088L23.0576 72.773C22.6499 71.943 23.134 70.6788 24.3048 70.4999C25.4834 70.32 26.3163 71.3911 26.1738 72.2969L28.5474 74.0404C28.7783 73.9309 29.1331 73.8767 29.3863 73.9122L31.8143 70.6002C31.4158 69.7771 31.892 68.5148 33.0627 68.3359ZM19.3363 70.4332L21.013 70.59L19.4596 71.2403L19.3029 72.917L18.6526 71.3636L16.9759 71.2068L18.5293 70.5565L18.686 68.8798L19.3363 70.4332ZM28.6148 66.5942L30.3929 67.0911L28.8444 68.0963L28.3409 69.8832L27.3432 68.3256L25.5487 67.8312L27.1137 66.8235L27.6007 65.0391L28.6148 66.5942Z" fill="#79C8A2"/>
<path fill-rule="evenodd" clip-rule="evenodd" d="M100.147 52.952C100.064 52.4079 100.439 51.8995 100.985 51.8164L104.939 51.2143C105.485 51.1312 105.995 51.5048 106.078 52.0489L106.682 55.9893C106.766 56.5333 106.391 57.0418 105.845 57.1249L101.891 57.727C101.345 57.8101 100.835 57.4364 100.751 56.8924L100.625 56.067C99.7926 56.5025 99.1378 57.3439 98.812 58.533C98.4068 60.0118 98.5393 61.9918 99.5564 64.131L100.82 63.9386C101.366 63.8554 101.876 64.2291 101.96 64.7731L102.564 68.7135C102.647 69.2576 102.272 69.766 101.726 69.8491L97.7722 70.4512C97.2263 70.5343 96.7161 70.1607 96.6327 69.6166L96.4755 68.5916C94.2978 68.7379 92.6512 68.1754 91.4747 66.9477C90.4056 65.832 89.8487 64.2842 89.5152 62.6356L88.5046 62.7895C87.9587 62.8726 87.4485 62.499 87.3651 61.9549L86.7609 58.0145C86.6775 57.4705 87.0524 56.9621 87.5984 56.8789L91.5525 56.2768C92.0985 56.1937 92.6087 56.5674 92.6921 57.1114L93.2962 61.0518C93.3797 61.5959 93.0047 62.1043 92.4588 62.1874L91.4952 62.3341C91.7963 63.7743 92.24 64.8604 92.9212 65.5713C93.5598 66.2377 94.5292 66.6927 96.1722 66.6135L96.0285 65.6762C95.9451 65.1322 96.32 64.6238 96.866 64.5406L97.5065 64.4431C96.5314 62.1288 96.3721 59.8711 96.8826 58.008C97.3937 56.1429 98.6008 54.6427 100.312 54.029L100.147 52.952ZM104.554 55.3052L102.577 55.6062L102.275 53.6361L104.252 53.335L104.554 55.3052ZM88.889 58.6986L89.1911 60.6688L91.1681 60.3677L90.8661 58.3976L88.889 58.6986ZM98.1566 66.3603L98.4587 68.3305L100.436 68.0294L100.134 66.0593L98.1566 66.3603Z" fill="#79C8A2"/>
<path d="M60.9097 70.5194L64.6118 67.2843C64.8972 67.056 65.0109 66.7531 64.953 66.3755C64.8951 65.9978 64.6958 65.7426 64.3551 65.6096L59.8524 63.6238C59.4902 63.4605 59.1499 63.4955 58.8316 63.7288C58.5133 63.9621 58.3844 64.2757 58.4448 64.6698L59.2529 69.94C59.3133 70.3341 59.5304 70.595 59.904 70.723C60.2777 70.8509 60.6129 70.783 60.9097 70.5194ZM54.6203 76.0135C54.0766 76.0963 53.5818 75.9744 53.1358 75.6478C52.6891 75.3206 52.4242 74.8862 52.3412 74.3444L50.5286 62.5232C50.4456 61.9814 50.5682 61.4883 50.8966 61.0438C51.2243 60.5987 51.6599 60.3348 52.2036 60.252L68.0201 57.8437C68.5637 57.7609 69.0589 57.8831 69.5057 58.2103C69.9516 58.5369 70.2161 58.9711 70.2992 59.5129L72.1117 71.334C72.1948 71.8758 72.0725 72.3692 71.7449 72.8143C71.4165 73.2588 70.9804 73.5224 70.4367 73.6052L54.6203 76.0135ZM54.3182 74.0433L70.1346 71.635L68.3221 59.8139L52.5057 62.2222L54.3182 74.0433Z" fill="#79C8A2"/>
<path d="M164.402 43.1683C164.122 43.211 163.872 43.1522 163.653 42.9919C163.435 42.8323 163.305 42.6129 163.262 42.3338C163.219 42.0547 163.278 41.8061 163.438 41.5882C163.599 41.3708 163.82 41.2408 164.1 41.1981L172.008 39.994C172.288 39.9514 172.537 40.0099 172.755 40.1696C172.974 40.3298 173.105 40.5495 173.147 40.8286C173.19 41.1077 173.131 41.3559 172.97 41.5733C172.81 41.7913 172.59 41.9215 172.31 41.9642L164.402 43.1683ZM161.889 46.5752C161.609 46.6178 161.36 46.5594 161.141 46.3998C160.923 46.2394 160.792 46.0197 160.75 45.7406C160.707 45.4615 160.766 45.213 160.926 44.995C161.087 44.7776 161.307 44.6476 161.587 44.605L175.427 42.4977C175.707 42.4551 175.956 42.5136 176.174 42.6733C176.393 42.8335 176.523 43.0532 176.566 43.3323C176.609 43.6114 176.55 43.86 176.389 44.078C176.229 44.2953 176.009 44.4253 175.729 44.4679L161.889 46.5752ZM163.166 61.5021C162.623 61.5849 162.128 61.463 161.682 61.1364C161.235 60.8092 160.97 60.3747 160.887 59.8329L159.377 49.982C159.294 49.4402 159.416 48.9467 159.745 48.5016C160.072 48.0572 160.508 47.7936 161.052 47.7108L176.868 45.3025C177.412 45.2197 177.907 45.3416 178.354 45.6681C178.8 45.9953 179.064 46.4298 179.147 46.9717L180.658 56.8226C180.741 57.3644 180.619 57.8578 180.291 58.3029C179.963 58.7474 179.526 59.011 178.983 59.0938L163.166 61.5021ZM162.864 59.5319L178.681 57.1236L177.17 47.2727L161.354 49.681L162.864 59.5319ZM170.022 56.4007L172.86 53.8011C173.127 53.5589 173.233 53.2654 173.181 52.9206C173.128 52.5759 172.938 52.3275 172.611 52.1757L169.123 50.5394C168.758 50.3597 168.418 50.3947 168.102 50.6444C167.787 50.8941 167.659 51.216 167.719 51.61L168.361 55.7967C168.422 56.1907 168.64 56.4599 169.016 56.6042C169.392 56.7486 169.728 56.6807 170.022 56.4007Z" fill="#79C8A2"/>
<path d="M-11.7404 75.3566L-10.9323 80.6269C-10.8719 81.0209 -10.6549 81.2819 -10.2812 81.4098C-9.90751 81.5377 -9.57228 81.4699 -9.2755 81.2063L-5.57337 77.9711C-5.28803 77.7429 -5.17431 77.4399 -5.23221 77.0623C-5.29011 76.6847 -5.48942 76.4294 -5.83014 76.2965L-10.3328 74.3106C-10.695 74.1474 -11.0353 74.1824 -11.3536 74.4157C-11.6719 74.6489 -11.8008 74.9626 -11.7404 75.3566ZM-7.35462 87.4664C-8.72208 87.6746 -10.0468 87.6116 -11.3289 87.2772C-12.6109 86.9435 -13.7646 86.401 -14.7902 85.6499C-15.8159 84.8988 -16.6799 83.9635 -17.3823 82.8439C-18.0854 81.7245 -18.5414 80.4834 -18.7503 79.1207C-18.9593 77.7579 -18.896 76.4378 -18.5604 75.1602C-18.2255 73.8827 -17.6812 72.7329 -16.9275 71.7108C-16.1738 70.6888 -15.2352 69.8275 -14.1119 69.1268C-12.9884 68.4268 -11.7429 67.9728 -10.3755 67.7645C-9.00801 67.5563 -7.6833 67.6191 -6.40134 67.9528C-5.11929 68.2872 -3.96545 68.8299 -2.93984 69.581C-1.91422 70.3321 -1.05021 71.2675 -0.347795 72.387C0.355279 73.5065 0.811288 74.7476 1.02023 76.1103C1.22917 77.473 1.16587 78.7932 0.830336 80.0708C0.495457 81.3483 -0.0488497 82.498 -0.802586 83.5201C-1.55632 84.5421 -2.49492 85.4032 -3.61838 86.1031C-4.74174 86.8038 -5.98716 87.2582 -7.35462 87.4664ZM-7.6567 85.4962C-5.46547 85.1626 -3.71712 84.1111 -2.41166 82.3417C-1.10696 80.5717 -0.622014 78.595 -0.956825 76.4113C-1.29164 74.2277 -2.34682 72.4854 -4.12237 71.1845C-5.89848 69.8843 -7.88215 69.4011 -10.0734 69.7347C-12.2646 70.0684 -14.0126 71.1198 -15.3174 72.8891C-16.6228 74.6592 -17.1081 76.636 -16.7733 78.8196C-16.4385 81.0032 -15.3829 82.7455 -13.6067 84.0463C-11.8313 85.3466 -9.84794 85.8299 -7.6567 85.4962Z" fill="#79C8A2"/>
<path d="M126.783 65.0258C126.239 65.1086 125.744 64.9867 125.298 64.6601C124.852 64.333 124.587 63.8985 124.504 63.3567L122.691 51.5356C122.608 50.9938 122.731 50.5006 123.059 50.0561C123.387 49.611 123.823 49.3471 124.366 49.2643L136.229 47.4581C136.772 47.3753 137.267 47.4975 137.714 47.8247C138.16 48.1513 138.425 48.5855 138.508 49.1273L139.187 53.5602L141.825 49.983C141.965 49.7937 142.14 49.7251 142.35 49.7771C142.561 49.8291 142.683 49.97 142.719 50.1999L144.018 58.6717C144.053 58.9015 143.978 59.0725 143.793 59.1847C143.608 59.2969 143.42 59.2835 143.23 59.1444L139.641 56.5155L140.32 60.9484C140.403 61.4902 140.281 61.9836 139.953 62.4287C139.625 62.8732 139.189 63.1368 138.645 63.2196L126.783 65.0258ZM126.481 63.0556L138.343 61.2494L136.531 49.4283L124.668 51.2345L126.481 63.0556Z" fill="#79C8A2"/>
<path d="M201.224 55.7072C200.681 55.79 200.186 55.6681 199.74 55.3415C199.293 55.0143 199.028 54.5798 198.945 54.038L196.529 38.2765C196.446 37.7347 196.568 37.2412 196.896 36.7961C197.224 36.3517 197.66 36.0881 198.204 36.0053L205.296 34.9253C205.56 34.8852 205.819 34.8962 206.073 34.9583C206.327 35.0204 206.558 35.128 206.767 35.281L212.294 39.3287C212.503 39.4817 212.675 39.6696 212.81 39.8923C212.946 40.1156 213.034 40.3586 213.074 40.6213L214.762 51.6297C214.845 52.1715 214.723 52.665 214.395 53.11C214.067 53.5545 213.63 53.8182 213.087 53.901L201.224 55.7072ZM206.03 40.8622L205.425 36.9219L198.506 37.9755L200.922 53.737L212.785 51.9308L211.123 41.0947L207.169 41.6968C206.889 41.7395 206.64 41.6806 206.422 41.5203C206.203 41.3607 206.072 41.1413 206.03 40.8622Z" fill="#79C8A2"/>
<path d="M24.3025 11.2006C25.1904 11.065 26.0274 11.6802 26.1632 12.568C26.3421 13.7387 25.2796 14.5701 24.375 14.4357L21.939 17.741C22.3467 18.5709 21.8623 19.8349 20.6919 20.014C19.5131 20.1941 18.6794 19.1231 18.8219 18.2173L16.4493 16.4736C16.2182 16.5832 15.8627 16.6375 15.6094 16.6019L12.4977 20.8442C12.8961 21.6674 12.4201 22.9307 11.2493 23.1096C10.3613 23.2451 9.52327 22.6292 9.38753 21.7413C9.20866 20.5706 10.2721 19.739 11.1767 19.8734L14.2973 15.6377C13.8896 14.8077 14.3738 13.5435 15.5445 13.3646C16.7232 13.1847 17.556 14.2558 17.4135 15.1615L19.7871 16.9051C20.0181 16.7956 20.3728 16.7414 20.626 16.7769L23.054 13.4649C22.6556 12.6418 23.1318 11.3794 24.3025 11.2006ZM10.576 13.2979L12.2528 13.4547L10.6994 14.1049L10.5426 15.7816L9.89232 14.2283L8.21562 14.0715L9.76901 13.4212L9.92576 11.7445L10.576 13.2979ZM19.8546 9.45885L21.6327 9.95575L20.0841 10.961L19.5807 12.7479L18.583 11.1903L16.7885 10.6959L18.3535 9.68822L18.8405 7.90375L19.8546 9.45885Z" fill="#79C8A2"/>
<path fill-rule="evenodd" clip-rule="evenodd" d="M91.3869 -4.18344C91.3035 -4.72749 91.6784 -5.23592 92.2244 -5.31905L96.1785 -5.92112C96.7245 -6.00425 97.2347 -5.6306 97.3181 -5.08654L97.9222 -1.14617C98.0057 -0.602115 97.6307 -0.0936846 97.0848 -0.0105559L93.1306 0.591516C92.5847 0.674644 92.0745 0.300992 91.9911 -0.24306L91.8645 -1.06846C91.0324 -0.632975 90.3776 0.208415 90.0517 1.3976C89.6465 2.87634 89.779 4.85633 90.7961 6.99554L92.0599 6.80311C92.6058 6.71999 93.116 7.09364 93.1994 7.63769L93.8036 11.5781C93.887 12.1221 93.5121 12.6305 92.9661 12.7137L89.012 13.3157C88.466 13.3989 87.9558 13.0252 87.8724 12.4812L87.7153 11.4561C85.5375 11.6024 83.8909 11.04 82.7145 9.81228C81.6453 8.69654 81.0885 7.14881 80.7549 5.50018L79.7444 5.65405C79.1984 5.73718 78.6882 5.36352 78.6048 4.81947L78.0007 0.879096C77.9172 0.335044 78.2922 -0.173387 78.8381 -0.256516L82.7922 -0.858587C83.3382 -0.941716 83.8484 -0.568063 83.9318 -0.0240111L84.536 3.91636C84.6194 4.46042 84.2445 4.96885 83.6985 5.05198L82.7349 5.1987C83.0361 6.63888 83.4798 7.72499 84.1609 8.43583C84.7996 9.10228 85.7689 9.55723 87.412 9.47809L87.2683 8.5408C87.1848 7.99675 87.5598 7.48831 88.1057 7.40519L88.7462 7.30766C87.7711 4.99334 87.6119 2.73563 88.1224 0.872594C88.6334 -0.992532 89.8405 -2.49272 91.552 -3.10644L91.3869 -4.18344ZM95.7941 -1.83023L93.8171 -1.52919L93.515 -3.49938L95.4921 -3.80041L95.7941 -1.83023ZM80.1288 1.56315L80.4308 3.53334L82.4079 3.23231L82.1058 1.26212L80.1288 1.56315ZM89.3964 9.22486L89.6984 11.195L91.6755 10.894L91.3734 8.92382L89.3964 9.22486Z" fill="#79C8A2"/>
<path d="M52.1495 13.3841L55.8516 10.149C56.1369 9.9207 56.2507 9.61776 56.1928 9.24014C56.1349 8.86252 55.9355 8.60725 55.5948 8.47431L51.0922 6.48846C50.7299 6.3252 50.3897 6.3602 50.0714 6.59349C49.7531 6.82677 49.6241 7.14043 49.6846 7.53446L50.4926 12.8047C50.5531 13.1988 50.7701 13.4597 51.1438 13.5877C51.5175 13.7156 51.8527 13.6477 52.1495 13.3841ZM45.86 18.8782C45.3164 18.961 44.8215 18.8391 44.3756 18.5125C43.9289 18.1853 43.664 17.7508 43.5809 17.209L41.7684 5.38791C41.6853 4.84611 41.808 4.35296 42.1364 3.90846C42.464 3.4634 42.8997 3.19947 43.4434 3.11669L59.2598 0.708403C59.8035 0.625618 60.2987 0.747802 60.7454 1.07496C61.1914 1.40155 61.4559 1.83575 61.5389 2.37755L63.3515 14.1987C63.4345 14.7405 63.3122 15.2339 62.9846 15.679C62.6562 16.1235 62.2202 16.3871 61.6765 16.4699L45.86 18.8782ZM45.558 16.908L61.3744 14.4997L59.5619 2.67859L43.7454 5.08688L45.558 16.908Z" fill="#79C8A2"/>
<path d="M155.641 -13.9672C155.361 -13.9245 155.111 -13.9833 154.893 -14.1435C154.675 -14.3032 154.544 -14.5226 154.501 -14.8017C154.459 -15.0808 154.517 -15.3294 154.677 -15.5473C154.838 -15.7647 155.059 -15.8947 155.339 -15.9373L163.247 -17.1415C163.527 -17.1841 163.776 -17.1256 163.994 -16.9659C164.213 -16.8057 164.344 -16.586 164.387 -16.3069C164.429 -16.0278 164.37 -15.7796 164.21 -15.5622C164.049 -15.3442 163.829 -15.214 163.549 -15.1713L155.641 -13.9672ZM153.129 -10.5603C152.848 -10.5177 152.599 -10.5761 152.38 -10.7357C152.162 -10.8961 152.032 -11.1158 151.989 -11.3949C151.946 -11.674 152.005 -11.9225 152.165 -12.1405C152.326 -12.3579 152.546 -12.4879 152.826 -12.5305L166.666 -14.6378C166.946 -14.6804 167.195 -14.6219 167.413 -14.4622C167.632 -14.302 167.763 -14.0823 167.805 -13.8032C167.848 -13.5241 167.789 -13.2755 167.628 -13.0575C167.468 -12.8402 167.248 -12.7102 166.968 -12.6676L153.129 -10.5603ZM154.406 4.3666C153.862 4.44938 153.367 4.32748 152.921 4.00088C152.474 3.67373 152.21 3.23925 152.126 2.69745L150.616 -7.15349C150.533 -7.69529 150.656 -8.18877 150.984 -8.63393C151.312 -9.07834 151.747 -9.34193 152.291 -9.42471L168.107 -11.833C168.651 -11.9158 169.146 -11.7939 169.593 -11.4674C170.039 -11.1402 170.304 -10.7056 170.387 -10.1638L171.897 -0.31291C171.98 0.228892 171.858 0.722322 171.53 1.16738C171.202 1.61188 170.766 1.87553 170.222 1.95831L154.406 4.3666ZM154.104 2.39641L169.92 -0.011874L168.41 -9.86281L152.593 -7.45453L154.104 2.39641ZM161.261 -0.734812L164.1 -3.33442C164.366 -3.5766 164.473 -3.87007 164.42 -4.21486C164.367 -4.55964 164.177 -4.80796 163.85 -4.95983L160.362 -6.59612C159.998 -6.7758 159.657 -6.74079 159.342 -6.49109C159.026 -6.24139 158.898 -5.91953 158.959 -5.52549L159.6 -1.33884C159.661 -0.944802 159.879 -0.675615 160.255 -0.531278C160.632 -0.38694 160.967 -0.454785 161.261 -0.734812Z" fill="#79C8A2"/>
<path d="M118.022 7.89034C117.478 7.97312 116.984 7.85121 116.538 7.52462C116.091 7.19746 115.826 6.76299 115.743 6.22118L113.931 -5.59994C113.847 -6.14174 113.97 -6.6349 114.298 -7.0794C114.626 -7.52446 115.062 -7.78838 115.605 -7.87117L127.468 -9.67738C128.011 -9.76016 128.507 -9.63798 128.953 -9.31083C129.399 -8.98423 129.664 -8.55003 129.747 -8.00823L130.427 -3.57531L133.065 -7.15248C133.204 -7.34175 133.379 -7.41039 133.59 -7.3584C133.8 -7.30642 133.923 -7.1655 133.958 -6.93564L135.257 1.53617C135.292 1.76602 135.217 1.93705 135.032 2.04924C134.847 2.16144 134.659 2.14799 134.469 2.00889L130.88 -0.620024L131.559 3.8129C131.643 4.3547 131.52 4.84813 131.193 5.29319C130.864 5.73769 130.428 6.00134 129.884 6.08412L118.022 7.89034ZM117.72 5.92015L129.582 4.11393L127.77 -7.70719L115.908 -5.90098L117.72 5.92015Z" fill="#79C8A2"/>
<path d="M191.066 15.9151L192.423 24.7964L178.588 26.9103L176.477 13.095L185.358 11.738L185.056 9.76436L176.195 11.1184C175.109 11.2842 174.357 12.308 174.523 13.3935L176.634 27.2089C176.8 28.2944 177.823 29.0468 178.909 28.8809L192.724 26.77C193.81 26.6041 194.562 25.5803 194.396 24.4948L193.039 15.6135L191.066 15.9151ZM189.072 16.2197L189.689 14.0451L191.58 12.8069L189.406 12.1899L188.168 10.2988L187.551 12.4734L185.659 13.7116L187.834 14.3286L189.072 16.2197ZM185.485 17.5252L183.837 15L183.018 17.9022L180.493 19.5503L183.395 20.3692L185.043 22.8944L185.862 19.9922L188.387 18.3441L185.485 17.5252Z" fill="#79C8A2"/>
<path d="M216.678 11.342L217.486 16.6122C217.546 17.0063 217.763 17.2673 218.137 17.3952C218.51 17.5231 218.846 17.4553 219.142 17.1916L222.845 13.9565C223.13 13.7282 223.244 13.4253 223.186 13.0477C223.128 12.6701 222.929 12.4148 222.588 12.2818L218.085 10.296C217.723 10.1327 217.383 10.1677 217.064 10.401C216.746 10.6343 216.617 10.948 216.678 11.342ZM221.063 23.4518C219.696 23.66 218.371 23.5969 217.089 23.2625C215.807 22.9288 214.653 22.3864 213.628 21.6353C212.602 20.8842 211.738 19.9488 211.036 18.8293C210.333 17.7098 209.877 16.4687 209.668 15.106C209.459 13.7433 209.522 12.4231 209.858 11.1455C210.192 9.86803 210.737 8.71825 211.49 7.6962C212.244 6.67415 213.183 5.81281 214.306 5.11218C215.43 4.4122 216.675 3.9581 218.043 3.74989C219.41 3.54167 220.735 3.60442 222.017 3.93814C223.299 4.27251 224.453 4.81525 225.478 5.56637C226.504 6.31749 227.368 7.25283 228.07 8.37239C228.773 9.49185 229.229 10.7329 229.438 12.0956C229.647 13.4584 229.584 14.7785 229.248 16.0561C228.913 17.3336 228.369 18.4834 227.615 19.5055C226.862 20.5275 225.923 21.3885 224.8 22.0885C223.676 22.7891 222.431 23.2435 221.063 23.4518ZM220.761 21.4816C222.953 21.1479 224.701 20.0964 226.006 18.327C227.311 16.5571 227.796 14.5803 227.461 12.3967C227.126 10.2131 226.071 8.47078 224.296 7.16986C222.519 5.86969 220.536 5.38643 218.345 5.72007C216.153 6.05372 214.405 7.10519 213.101 8.87447C211.795 10.6445 211.31 12.6213 211.645 14.805C211.98 16.9886 213.035 18.7308 214.811 20.0316C216.587 21.3319 218.57 21.8152 220.761 21.4816Z" fill="#79C8A2"/>
<path d="M141.679 33.523C141.135 33.6058 140.64 33.4839 140.194 33.1573C139.748 32.8302 139.483 32.3957 139.4 31.8539L137.587 20.0327C137.504 19.4909 137.627 18.9978 137.955 18.5533C138.283 18.1082 138.719 17.8443 139.262 17.7615L144.378 16.9826C144.641 16.9425 144.9 16.9534 145.155 17.0155C145.408 17.0777 145.64 17.1853 145.849 17.3383L147.473 18.5276L155.381 17.3234C155.924 17.2406 156.42 17.3628 156.866 17.69C157.312 18.0166 157.577 18.4508 157.66 18.9926L159.17 28.8435C159.253 29.3853 159.131 29.8787 158.803 30.3238C158.475 30.7683 158.039 31.032 157.495 31.1147L141.679 33.523ZM139.564 19.7317L141.377 31.5528L157.193 29.1446L155.683 19.2936L146.959 20.6219L144.68 18.9528L139.564 19.7317Z" fill="#79C8A2"/>
<path fill-rule="evenodd" clip-rule="evenodd" d="M-2.79864 -18.0689C-2.88206 -18.613 -2.5071 -19.1214 -1.96115 -19.2045L1.99296 -19.8066C2.53891 -19.8897 3.04911 -19.5161 3.13253 -18.972L3.7367 -15.0317C3.82012 -14.4876 3.44516 -13.9792 2.89921 -13.8961L-1.0549 -13.294C-1.60085 -13.2109 -2.11105 -13.5845 -2.19447 -14.1286L-2.32102 -14.954C-3.15319 -14.5185 -3.80797 -13.6771 -4.13382 -12.4879C-4.53902 -11.0092 -4.4065 -9.02917 -3.38943 -6.88996L-2.1257 -7.08238C-1.57975 -7.16551 -1.06955 -6.79186 -0.986127 -6.24781L-0.381957 -2.30743C-0.298539 -1.76338 -0.673494 -1.25495 -1.21944 -1.17182L-5.17355 -0.569749C-5.7195 -0.48662 -6.2297 -0.860273 -6.31312 -1.40432L-6.47029 -2.42938C-8.64801 -2.28307 -10.2946 -2.84552 -11.4711 -4.07322C-12.5402 -5.18895 -13.0971 -6.73669 -13.4306 -8.38532L-14.4412 -8.23145C-14.9871 -8.14832 -15.4973 -8.52197 -15.5807 -9.06603L-16.1849 -13.0064C-16.2683 -13.5505 -15.8934 -14.0589 -15.3474 -14.142L-11.3933 -14.7441C-10.8473 -14.8272 -10.3371 -14.4536 -10.2537 -13.9095L-9.64956 -9.96913C-9.56614 -9.42508 -9.94109 -8.91665 -10.487 -8.83352L-11.4506 -8.6868C-11.1495 -7.24662 -10.7058 -6.16051 -10.0246 -5.44967C-9.38599 -4.78321 -8.41662 -4.32827 -6.77358 -4.40741L-6.91729 -5.3447C-7.00071 -5.88875 -6.62575 -6.39718 -6.07981 -6.48031L-5.4393 -6.57784C-6.41442 -8.89216 -6.57368 -11.1499 -6.06319 -13.0129C-5.55212 -14.878 -4.34503 -16.3782 -2.6335 -16.9919L-2.79864 -18.0689ZM1.6086 -15.7157L-0.368455 -15.4147L-0.67054 -17.3849L1.30652 -17.6859L1.6086 -15.7157ZM-14.0568 -12.3223L-13.7547 -10.3522L-11.7777 -10.6532L-12.0797 -12.6234L-14.0568 -12.3223ZM-4.78919 -4.66064L-4.48711 -2.69045L-2.51005 -2.99149L-2.81214 -4.96168L-4.78919 -4.66064Z" fill="#79C8A2"/>
<path fill-rule="evenodd" clip-rule="evenodd" d="M5.81123 38.0814C5.72781 37.5373 6.10276 37.0289 6.64871 36.9458L10.6028 36.3437C11.1488 36.2606 11.659 36.6342 11.7424 37.1783L12.3466 41.1187C12.43 41.6627 12.055 42.1711 11.5091 42.2543L7.55497 42.8563C7.00902 42.9395 6.49881 42.5658 6.4154 42.0218L6.28884 41.1964C5.45668 41.6319 4.80189 42.4732 4.47604 43.6624C4.07085 45.1412 4.20337 47.1212 5.22043 49.2604L6.48417 49.0679C7.03011 48.9848 7.54032 49.3585 7.62374 49.9025L8.22791 53.8429C8.31132 54.3869 7.93637 54.8954 7.39042 54.9785L3.43631 55.5806C2.89036 55.6637 2.38016 55.2901 2.29674 54.746L2.13957 53.7209C-0.0381432 53.8673 -1.68474 53.3048 -2.86119 52.0771C-3.93036 50.9614 -4.4872 49.4136 -4.82075 47.765L-5.83129 47.9189C-6.37724 48.002 -6.88744 47.6284 -6.97086 47.0843L-7.57503 43.1439C-7.65845 42.5999 -7.28349 42.0914 -6.73754 42.0083L-2.78343 41.4062C-2.23749 41.3231 -1.72728 41.6968 -1.64387 42.2408L-1.0397 46.1812C-0.956277 46.7252 -1.33123 47.2337 -1.87718 47.3168L-2.84078 47.4635C-2.53962 48.9037 -2.09593 49.9898 -1.41476 50.7007C-0.776123 51.3671 0.193244 51.8221 1.83629 51.7429L1.69257 50.8056C1.60915 50.2616 1.98411 49.7531 2.53006 49.67L3.17056 49.5725C2.19545 47.2582 2.03618 45.0005 2.54668 43.1374C3.05775 41.2723 4.26484 39.7721 5.97636 39.1584L5.81123 38.0814ZM10.2185 40.4346L8.24141 40.7356L7.93932 38.7655L9.91638 38.4644L10.2185 40.4346ZM-5.44693 43.828L-5.14485 45.7982L-3.16779 45.4971L-3.46988 43.527L-5.44693 43.828ZM3.82067 51.4897L4.12275 53.4599L6.09981 53.1588L5.79772 51.1887L3.82067 51.4897Z" fill="#79C8A2"/>
<path d="M70.0653 28.2977C69.7852 28.3404 69.5358 28.2816 69.317 28.1213C69.0989 27.9617 68.9685 27.7423 68.9257 27.4632C68.8829 27.184 68.9416 26.9355 69.1017 26.7176C69.2626 26.5002 69.4831 26.3702 69.7632 26.3275L77.6714 25.1234C77.9515 25.0808 78.2006 25.1393 78.4186 25.299C78.6374 25.4592 78.7682 25.6789 78.811 25.958C78.8538 26.2371 78.7947 26.4853 78.6338 26.7027C78.4737 26.9207 78.2536 27.0509 77.9735 27.0936L70.0653 28.2977ZM67.5528 31.7046C67.2727 31.7472 67.0234 31.6887 66.8047 31.5292C66.5865 31.3688 66.4561 31.1491 66.4133 30.87C66.3705 30.5909 66.4291 30.3424 66.5893 30.1244C66.7502 29.907 66.9707 29.777 67.2507 29.7344L81.0901 27.6271C81.3702 27.5845 81.6193 27.643 81.8373 27.8027C82.0561 27.9629 82.1869 28.1826 82.2297 28.4617C82.2725 28.7408 82.2135 28.9894 82.0527 29.2074C81.8925 29.4247 81.6723 29.5547 81.3922 29.5973L67.5528 31.7046ZM68.8299 46.6315C68.2862 46.7143 67.7914 46.5924 67.3455 46.2658C66.8988 45.9386 66.6339 45.5041 66.5508 44.9623L65.0404 35.1114C64.9573 34.5696 65.0799 34.0761 65.4082 33.631C65.7359 33.1866 66.1717 32.923 66.7153 32.8402L82.5318 30.4319C83.0755 30.3491 83.5706 30.471 84.0172 30.7975C84.4633 31.1247 84.7278 31.5592 84.8109 32.101L86.3213 41.952C86.4044 42.4938 86.2821 42.9872 85.9545 43.4323C85.6261 43.8768 85.1901 44.1404 84.6464 44.2232L68.8299 46.6315ZM68.5279 44.6613L84.3443 42.253L82.8339 32.4021L67.0174 34.8104L68.5279 44.6613ZM75.6854 41.5301L78.5239 38.9305C78.7903 38.6883 78.897 38.3948 78.8441 38.05C78.7913 37.7053 78.6015 37.4569 78.2747 37.3051L74.7867 35.6688C74.4219 35.4891 74.0817 35.5241 73.7659 35.7738C73.4501 36.0235 73.3224 36.3454 73.3828 36.7394L74.0248 40.9261C74.0852 41.3201 74.3035 41.5893 74.6797 41.7336C75.0559 41.878 75.3911 41.8101 75.6854 41.5301Z" fill="#79C8A2"/>
<path d="M32.4465 50.1552C31.9028 50.238 31.408 50.1161 30.962 49.7895C30.5153 49.4624 30.2504 49.0279 30.1673 48.4861L28.3548 36.665C28.2717 36.1231 28.3944 35.63 28.7228 35.1855C29.0504 34.7404 29.4861 34.4765 30.0298 34.3937L41.8921 32.5875C42.4358 32.5047 42.931 32.6269 43.3777 32.9541C43.8237 33.2807 44.0882 33.7149 44.1713 34.2567L44.8509 38.6896L47.489 35.1124C47.6286 34.9231 47.8035 34.8545 48.0138 34.9065C48.2241 34.9585 48.3469 35.0994 48.3821 35.3293L49.6811 43.8011C49.7163 44.0309 49.6414 44.2019 49.4563 44.3141C49.2712 44.4263 49.0836 44.4129 48.8937 44.2738L45.3041 41.6449L45.9838 46.0778C46.0668 46.6196 45.9446 47.113 45.6169 47.5581C45.2885 48.0026 44.8525 48.2662 44.3088 48.349L32.4465 50.1552ZM32.1444 48.185L44.0067 46.3788L42.1942 34.5577L30.3319 36.3639L32.1444 48.185Z" fill="#79C8A2"/>
<path d="M106.888 40.8366C106.344 40.9194 105.85 40.7974 105.404 40.4709C104.957 40.1437 104.692 39.7092 104.609 39.1674L102.192 23.4059C102.109 22.8641 102.232 22.3706 102.56 21.9255C102.888 21.4811 103.324 21.2175 103.867 21.1347L110.96 20.0547C111.223 20.0146 111.482 20.0256 111.737 20.0876C111.99 20.1498 112.222 20.2574 112.431 20.4104L117.958 24.4581C118.166 24.6111 118.339 24.799 118.474 25.0217C118.609 25.245 118.697 25.488 118.737 25.7507L120.425 36.7591C120.508 37.3009 120.386 37.7944 120.058 38.2394C119.73 38.6839 119.294 38.9476 118.75 39.0304L106.888 40.8366ZM111.693 25.9916L111.089 22.0513L104.169 23.1049L106.586 38.8664L118.448 37.0602L116.787 26.2241L112.833 26.8262C112.553 26.8689 112.304 26.81 112.085 26.6497C111.867 26.4901 111.736 26.2707 111.693 25.9916Z" fill="#79C8A2"/>
<path d="M218.594 168.993C218.05 169.076 217.556 168.954 217.11 168.627C216.663 168.3 216.398 167.866 216.315 167.324L213.898 151.562C213.815 151.02 213.938 150.527 214.266 150.082C214.594 149.637 215.03 149.374 215.573 149.291L222.666 148.211C222.93 148.171 223.189 148.182 223.443 148.244C223.697 148.306 223.928 148.414 224.137 148.567L229.664 152.614C229.873 152.768 230.045 152.955 230.18 153.178C230.315 153.401 230.403 153.644 230.443 153.907L232.131 164.916C232.214 165.457 232.092 165.951 231.765 166.396C231.436 166.84 231 167.104 230.456 167.187L218.594 168.993ZM223.399 154.148L222.795 150.208L215.875 151.261L218.292 167.023L230.154 165.217L228.493 154.381L224.539 154.983C224.259 155.025 224.01 154.966 223.791 154.806C223.573 154.646 223.442 154.427 223.399 154.148Z" fill="#79C8A2"/>
<path d="M41.6721 124.486C42.56 124.351 43.397 124.966 43.5328 125.854C43.7117 127.025 42.6492 127.856 41.7446 127.722L39.3087 131.027C39.7164 131.857 39.2319 133.121 38.0615 133.3C36.8827 133.48 36.049 132.409 36.1915 131.503L33.8189 129.759C33.5878 129.869 33.2323 129.923 32.979 129.888L29.8673 134.13C30.2657 134.953 29.7897 136.217 28.619 136.395C27.7309 136.531 26.8929 135.915 26.7572 135.027C26.5783 133.856 27.6417 133.025 28.5463 133.159L31.667 128.924C31.2592 128.094 31.7434 126.829 32.9141 126.65C34.0928 126.471 34.9257 127.542 34.7831 128.447L37.1567 130.191C37.3877 130.081 37.7425 130.027 37.9956 130.063L40.4236 126.751C40.0252 125.928 40.5014 124.665 41.6721 124.486ZM27.9457 126.584L29.6224 126.74L28.069 127.391L27.9122 129.067L27.262 127.514L25.5852 127.357L27.1386 126.707L27.2954 125.03L27.9457 126.584ZM37.2242 122.745L39.0023 123.242L37.4537 124.247L36.9503 126.034L35.9526 124.476L34.1581 123.982L35.7231 122.974L36.2101 121.19L37.2242 122.745Z" fill="#79C8A2"/>
<path fill-rule="evenodd" clip-rule="evenodd" d="M108.757 109.102C108.673 108.558 109.048 108.05 109.594 107.967L113.548 107.365C114.094 107.281 114.604 107.655 114.688 108.199L115.292 112.14C115.375 112.684 115 113.192 114.454 113.275L110.5 113.877C109.954 113.96 109.444 113.587 109.361 113.043L109.234 112.217C108.402 112.653 107.747 113.494 107.421 114.683C107.016 116.162 107.149 118.142 108.166 120.281L109.429 120.089C109.975 120.006 110.486 120.379 110.569 120.923L111.173 124.864C111.257 125.408 110.882 125.916 110.336 125.999L106.382 126.601C105.836 126.685 105.325 126.311 105.242 125.767L105.085 124.742C102.907 124.888 101.261 124.326 100.084 123.098C99.015 121.982 98.4581 120.435 98.1246 118.786L97.114 118.94C96.5681 119.023 96.0579 118.649 95.9745 118.105L95.3703 114.165C95.2869 113.621 95.6618 113.112 96.2078 113.029L100.162 112.427C100.708 112.344 101.218 112.718 101.301 113.262L101.906 117.202C101.989 117.746 101.614 118.255 101.068 118.338L100.105 118.484C100.406 119.925 100.849 121.011 101.531 121.722C102.169 122.388 103.139 122.843 104.782 122.764L104.638 121.827C104.554 121.282 104.929 120.774 105.475 120.691L106.116 120.593C105.141 118.279 104.981 116.021 105.492 114.158C106.003 112.293 107.21 110.793 108.922 110.179L108.757 109.102ZM113.164 111.455L111.187 111.757L110.885 109.786L112.862 109.485L113.164 111.455ZM97.4984 114.849L97.8005 116.819L99.7775 116.518L99.4754 114.548L97.4984 114.849ZM106.766 122.511L107.068 124.481L109.045 124.18L108.743 122.21L106.766 122.511Z" fill="#79C8A2"/>
<path d="M69.5191 126.67L73.2212 123.435C73.5066 123.207 73.6203 122.904 73.5624 122.526C73.5045 122.148 73.3052 121.893 72.9645 121.76L68.4618 119.774C68.0996 119.611 67.7593 119.646 67.441 119.879C67.1227 120.113 66.9938 120.426 67.0542 120.82L67.8623 126.091C67.9227 126.485 68.1397 126.746 68.5134 126.873C68.8871 127.001 69.2223 126.934 69.5191 126.67ZM63.2297 132.164C62.686 132.247 62.1912 132.125 61.7452 131.798C61.2985 131.471 61.0336 131.037 60.9505 130.495L59.138 118.674C59.0549 118.132 59.1776 117.639 59.506 117.194C59.8336 116.749 60.2693 116.485 60.813 116.403L76.6294 113.994C77.1731 113.911 77.6683 114.034 78.115 114.361C78.561 114.687 78.8255 115.122 78.9086 115.663L80.7211 127.485C80.8042 128.026 80.6819 128.52 80.3542 128.965C80.0258 129.409 79.5898 129.673 79.0461 129.756L63.2297 132.164ZM62.9276 130.194L78.744 127.786L76.9315 115.964L61.1151 118.373L62.9276 130.194Z" fill="#79C8A2"/>
<path d="M173.011 99.3187C172.731 99.3614 172.482 99.3026 172.263 99.1423C172.045 98.9827 171.914 98.7633 171.872 98.4842C171.829 98.205 171.887 97.9565 172.048 97.7386C172.208 97.5212 172.429 97.3912 172.709 97.3485L180.617 96.1444C180.897 96.1018 181.146 96.1603 181.364 96.32C181.583 96.4802 181.714 96.6999 181.757 96.979C181.8 97.2581 181.741 97.5063 181.58 97.7237C181.419 97.9416 181.199 98.0719 180.919 98.1146L173.011 99.3187ZM170.499 102.726C170.219 102.768 169.969 102.71 169.75 102.55C169.532 102.39 169.402 102.17 169.359 101.891C169.316 101.612 169.375 101.363 169.535 101.145C169.696 100.928 169.916 100.798 170.197 100.755L184.036 98.6481C184.316 98.6055 184.565 98.664 184.783 98.8237C185.002 98.9839 185.133 99.2036 185.175 99.4827C185.218 99.7618 185.159 100.01 184.998 100.228C184.838 100.446 184.618 100.576 184.338 100.618L170.499 102.726ZM171.776 117.652C171.232 117.735 170.737 117.613 170.291 117.287C169.845 116.96 169.58 116.525 169.497 115.983L167.986 106.132C167.903 105.591 168.026 105.097 168.354 104.652C168.682 104.208 169.117 103.944 169.661 103.861L185.478 101.453C186.021 101.37 186.516 101.492 186.963 101.818C187.409 102.146 187.674 102.58 187.757 103.122L189.267 112.973C189.35 113.515 189.228 114.008 188.9 114.453C188.572 114.898 188.136 115.161 187.592 115.244L171.776 117.652ZM171.474 115.682L187.29 113.274L185.78 103.423L169.963 105.831L171.474 115.682ZM178.631 112.551L181.47 109.951C181.736 109.709 181.843 109.416 181.79 109.071C181.737 108.726 181.547 108.478 181.22 108.326L177.732 106.69C177.368 106.51 177.027 106.545 176.712 106.795C176.396 107.044 176.268 107.366 176.329 107.76L176.971 111.947C177.031 112.341 177.249 112.61 177.625 112.755C178.002 112.899 178.337 112.831 178.631 112.551Z" fill="#79C8A2"/>
<path d="M-3.13103 131.507L-2.32295 136.777C-2.26253 137.171 -2.04549 137.432 -1.67181 137.56C-1.29813 137.688 -0.962904 137.62 -0.666121 137.357L3.036 134.121C3.32135 133.893 3.43507 133.59 3.37717 133.213C3.31927 132.835 3.11996 132.58 2.77923 132.447L-1.72342 130.461C-2.08565 130.298 -2.42592 130.333 -2.74421 130.566C-3.0625 130.799 -3.19144 131.113 -3.13103 131.507ZM1.25476 143.617C-0.112707 143.825 -1.43747 143.762 -2.71952 143.427C-4.00148 143.094 -5.15526 142.551 -6.18087 141.8C-7.20649 141.049 -8.0705 140.114 -8.77292 138.994C-9.47599 137.875 -9.932 136.634 -10.1409 135.271C-10.3499 133.908 -10.2866 132.588 -9.95105 131.31C-9.61617 130.033 -9.07186 128.883 -8.31813 127.861C-7.56439 126.839 -6.62584 125.978 -5.50248 125.277C-4.37902 124.577 -3.13356 124.123 -1.76609 123.915C-0.398631 123.707 0.926078 123.769 2.20803 124.103C3.49009 124.437 4.64392 124.98 5.66954 125.731C6.69515 126.482 7.55916 127.418 8.26158 128.537C8.96465 129.657 9.42066 130.898 9.6296 132.261C9.83855 133.623 9.77525 134.943 9.43971 136.221C9.10483 137.499 8.56053 138.648 7.80679 139.67C7.05305 140.692 6.11445 141.553 4.99099 142.253C3.86763 142.954 2.62222 143.408 1.25476 143.617ZM0.952671 141.646C3.14391 141.313 4.89226 140.261 6.19772 138.492C7.50242 136.722 7.98736 134.745 7.65255 132.562C7.31774 130.378 6.26256 128.636 4.48701 127.335C2.7109 126.035 0.727227 125.551 -1.46401 125.885C-3.65524 126.219 -5.40326 127.27 -6.70806 129.039C-8.01342 130.809 -8.4987 132.786 -8.16389 134.97C-7.82908 137.154 -6.77357 138.896 -4.99736 140.197C-3.22191 141.497 -1.23856 141.98 0.952671 141.646Z" fill="#79C8A2"/>
<path d="M135.392 121.176C134.849 121.259 134.354 121.137 133.908 120.811C133.461 120.483 133.196 120.049 133.113 119.507L131.301 107.686C131.218 107.144 131.34 106.651 131.669 106.206C131.996 105.761 132.432 105.498 132.976 105.415L144.838 103.609C145.382 103.526 145.877 103.648 146.324 103.975C146.769 104.302 147.034 104.736 147.117 105.278L147.797 109.711L150.435 106.133C150.574 105.944 150.749 105.875 150.96 105.927C151.17 105.979 151.293 106.12 151.328 106.35L152.627 114.822C152.662 115.052 152.587 115.223 152.402 115.335C152.217 115.447 152.029 115.434 151.84 115.295L148.25 112.666L148.93 117.099C149.013 117.641 148.89 118.134 148.563 118.579C148.234 119.024 147.798 119.287 147.255 119.37L135.392 121.176ZM135.09 119.206L146.953 117.4L145.14 105.579L133.278 107.385L135.09 119.206Z" fill="#79C8A2"/>
<path d="M209.834 111.858C209.29 111.94 208.795 111.818 208.349 111.492C207.903 111.165 207.638 110.73 207.555 110.188L205.138 94.4269C205.055 93.8851 205.178 93.3916 205.506 92.9465C205.834 92.5021 206.269 92.2385 206.813 92.1557L213.906 91.0757C214.169 91.0356 214.428 91.0466 214.683 91.1086C214.936 91.1708 215.168 91.2784 215.376 91.4314L220.903 95.4791C221.112 95.6321 221.284 95.82 221.42 96.0427C221.555 96.266 221.643 96.509 221.683 96.7717L223.371 107.78C223.454 108.322 223.332 108.815 223.004 109.26C222.676 109.705 222.24 109.969 221.696 110.051L209.834 111.858ZM214.639 97.0126L214.035 93.0723L207.115 94.1259L209.532 109.887L221.394 108.081L219.733 97.2451L215.779 97.8472C215.498 97.8899 215.249 97.831 215.031 97.6707C214.812 97.5111 214.682 97.2917 214.639 97.0126Z" fill="#79C8A2"/>
<path d="M199.826 73.0505L201.183 81.9318L187.348 84.0458L185.237 70.2304L194.119 68.8734L193.817 66.8998L184.956 68.2538C183.87 68.4197 183.118 69.4435 183.283 70.529L185.394 84.3443C185.56 85.4298 186.584 86.1822 187.67 86.0164L201.485 83.9054C202.57 83.7396 203.323 82.7158 203.157 81.6303L201.8 72.749L199.826 73.0505ZM197.833 73.3551L198.45 71.1806L200.341 69.9424L198.167 69.3254L196.928 67.4343L196.311 69.6088L194.42 70.847L196.595 71.464L197.833 73.3551ZM194.246 74.6606L192.597 72.1354L191.779 75.0376L189.253 76.6858L192.155 77.5046L193.804 80.0299L194.622 77.1277L197.148 75.4795L194.246 74.6606Z" fill="#79C8A2"/>
<path d="M208.436 129.201L209.793 138.082L195.958 140.196L193.847 126.381L202.728 125.024L202.426 123.05L193.565 124.404C192.479 124.57 191.727 125.594 191.893 126.679L194.004 140.495C194.17 141.58 195.193 142.333 196.279 142.167L210.094 140.056C211.18 139.89 211.932 138.866 211.766 137.781L210.409 128.899L208.436 129.201ZM206.442 129.506L207.059 127.331L208.95 126.093L206.776 125.476L205.538 123.585L204.921 125.759L203.03 126.997L205.204 127.614L206.442 129.506ZM202.855 130.811L201.207 128.286L200.388 131.188L197.863 132.836L200.765 133.655L202.413 136.18L203.232 133.278L205.757 131.63L202.855 130.811Z" fill="#79C8A2"/>
<path d="M225.438 68.4774L226.246 73.7476C226.306 74.1417 226.523 74.4026 226.897 74.5306C227.271 74.6585 227.606 74.5906 227.903 74.327L231.605 71.0919C231.89 70.8636 232.004 70.5607 231.946 70.183C231.888 69.8054 231.689 69.5502 231.348 69.4172L226.845 67.4314C226.483 67.2681 226.143 67.3031 225.825 67.5364C225.506 67.7697 225.377 68.0833 225.438 68.4774ZM229.824 80.5871C228.456 80.7954 227.131 80.7323 225.849 80.3979C224.567 80.0642 223.414 79.5218 222.388 78.7707C221.362 78.0195 220.498 77.0842 219.796 75.9646C219.093 74.8452 218.637 73.6041 218.428 72.2414C218.219 70.8787 218.282 69.5585 218.618 68.2809C218.953 67.0034 219.497 65.8536 220.251 64.8316C221.004 63.8095 221.943 62.9482 223.066 62.2476C224.19 61.5476 225.435 61.0935 226.803 60.8853C228.17 60.677 229.495 60.7398 230.777 61.0735C232.059 61.4079 233.213 61.9506 234.238 62.7017C235.264 63.4529 236.128 64.3882 236.83 65.5078C237.534 66.6272 237.99 67.8683 238.198 69.231C238.407 70.5937 238.344 71.9139 238.009 73.1915C237.674 74.469 237.129 75.6188 236.376 76.6408C235.622 77.6629 234.683 78.5239 233.56 79.2239C232.436 79.9245 231.191 80.3789 229.824 80.5871ZM229.522 78.617C231.713 78.2833 233.461 77.2318 234.767 75.4624C236.071 73.6925 236.556 71.7157 236.221 69.5321C235.887 67.3484 234.831 65.6062 233.056 64.3052C231.28 63.0051 229.296 62.5218 227.105 62.8555C224.914 63.1891 223.166 64.2406 221.861 66.0098C220.555 67.7799 220.07 69.7567 220.405 71.9403C220.74 74.124 221.795 75.8662 223.571 77.167C225.347 78.4673 227.33 78.9506 229.522 78.617Z" fill="#79C8A2"/>
<path d="M150.439 90.6584C149.895 90.7412 149.401 90.6193 148.955 90.2927C148.508 89.9655 148.243 89.5311 148.16 88.9893L146.347 77.1681C146.264 76.6263 146.387 76.1332 146.715 75.6887C147.043 75.2436 147.479 74.9797 148.022 74.8969L153.138 74.118C153.402 74.0778 153.661 74.0888 153.915 74.1509C154.169 74.2131 154.4 74.3207 154.609 74.4737L156.233 75.6629L164.141 74.4588C164.685 74.376 165.18 74.4982 165.627 74.8254C166.073 75.152 166.337 75.5862 166.42 76.128L167.931 85.9789C168.014 86.5207 167.891 87.0141 167.564 87.4592C167.235 87.9037 166.799 88.1673 166.256 88.2501L150.439 90.6584ZM148.325 76.8671L150.137 88.6882L165.953 86.2799L164.443 76.429L155.719 77.7573L153.44 76.0882L148.325 76.8671Z" fill="#79C8A2"/>
<path d="M159.049 146.809C158.505 146.892 158.01 146.77 157.564 146.443C157.117 146.116 156.852 145.681 156.769 145.14L154.957 133.319C154.874 132.777 154.996 132.284 155.325 131.839C155.652 131.394 156.088 131.13 156.632 131.047L161.747 130.268C162.011 130.228 162.27 130.239 162.524 130.301C162.778 130.363 163.009 130.471 163.218 130.624L164.842 131.813L172.75 130.609C173.294 130.526 173.789 130.649 174.236 130.976C174.682 131.302 174.946 131.737 175.03 132.278L176.54 142.129C176.623 142.671 176.501 143.165 176.173 143.61C175.845 144.054 175.409 144.318 174.865 144.401L159.049 146.809ZM156.934 133.017L158.746 144.839L174.563 142.43L173.052 132.579L164.329 133.908L162.05 132.239L156.934 133.017Z" fill="#79C8A2"/>
<path fill-rule="evenodd" clip-rule="evenodd" d="M14.5715 95.2168C14.4881 94.6727 14.863 94.1643 15.409 94.0812L19.3631 93.4791C19.909 93.396 20.4192 93.7696 20.5026 94.3137L21.1068 98.254C21.1902 98.7981 20.8153 99.3065 20.2693 99.3897L16.3152 99.9917C15.7693 100.075 15.2591 99.7012 15.1757 99.1571L15.0491 98.3317C14.2169 98.7672 13.5621 99.6086 13.2363 100.798C12.8311 102.277 12.9636 104.257 13.9807 106.396L15.2444 106.203C15.7904 106.12 16.3006 106.494 16.384 107.038L16.9882 110.978C17.0716 111.522 16.6966 112.031 16.1507 112.114L12.1966 112.716C11.6506 112.799 11.1404 112.425 11.057 111.881L10.8998 110.856C8.72211 111.003 7.07552 110.44 5.89906 109.212C4.8299 108.097 4.27305 106.549 3.93951 104.9L2.92896 105.054C2.38302 105.137 1.87281 104.764 1.78939 104.22L1.18522 100.279C1.10181 99.7353 1.47676 99.2268 2.02271 99.1437L5.97682 98.5416C6.52277 98.4585 7.03297 98.8321 7.11639 99.3762L7.72056 103.317C7.80398 103.861 7.42902 104.369 6.88307 104.452L5.91947 104.599C6.22063 106.039 6.66432 107.125 7.3455 107.836C7.98413 108.502 8.9535 108.957 10.5965 108.878L10.4528 107.941C10.3694 107.397 10.7444 106.889 11.2903 106.805L11.9308 106.708C10.9557 104.394 10.7964 102.136 11.3069 100.273C11.818 98.4077 13.0251 96.9075 14.7366 96.2938L14.5715 95.2168ZM18.9787 97.57L17.0017 97.871L16.6996 95.9008L18.6766 95.5998L18.9787 97.57ZM3.31332 100.963L3.61541 102.934L5.59246 102.633L5.29038 100.662L3.31332 100.963ZM12.5809 108.625L12.883 110.595L14.8601 110.294L14.558 108.324L12.5809 108.625Z" fill="#79C8A2"/>
<path d="M78.8255 85.4331C78.5455 85.4758 78.296 85.417 78.0772 85.2567C77.8592 85.097 77.7288 84.8776 77.686 84.5985C77.6432 84.3194 77.7018 84.0709 77.862 83.853C78.0229 83.6356 78.2434 83.5056 78.5234 83.4629L86.4317 82.2588C86.7118 82.2161 86.9608 82.2746 87.1788 82.4343C87.3976 82.5946 87.5284 82.8142 87.5712 83.0934C87.614 83.3725 87.555 83.6207 87.3941 83.8381C87.2339 84.056 87.0138 84.1863 86.7338 84.229L78.8255 85.4331ZM76.3131 88.8399C76.033 88.8826 75.7836 88.8241 75.5649 88.6645C75.3468 88.5042 75.2163 88.2845 75.1735 88.0054C75.1307 87.7263 75.1894 87.4777 75.3495 87.2598C75.5104 87.0424 75.7309 86.9124 76.011 86.8698L89.8504 84.7625C90.1305 84.7199 90.3795 84.7784 90.5976 84.9381C90.8164 85.0983 90.9472 85.318 90.9899 85.5971C91.0327 85.8762 90.9737 86.1248 90.8129 86.3428C90.6527 86.5601 90.4325 86.69 90.1525 86.7327L76.3131 88.8399ZM77.5902 103.767C77.0465 103.85 76.5517 103.728 76.1057 103.401C75.659 103.074 75.3941 102.64 75.311 102.098L73.8006 92.2468C73.7176 91.705 73.8402 91.2115 74.1685 90.7663C74.4962 90.3219 74.9319 90.0583 75.4756 89.9756L91.292 87.5673C91.8357 87.4845 92.3309 87.6063 92.7775 87.9328C93.2235 88.2601 93.4881 88.6946 93.5712 89.2364L95.0816 99.0874C95.1647 99.6292 95.0424 100.123 94.7148 100.568C94.3864 101.012 93.9503 101.276 93.4066 101.359L77.5902 103.767ZM77.2881 101.797L93.1045 99.3884L91.5941 89.5375L75.7777 91.9457L77.2881 101.797ZM84.4456 98.6655L87.2842 96.0658C87.5505 95.8237 87.6573 95.5302 87.6044 95.1854C87.5515 94.8406 87.3617 94.5923 87.035 94.4404L83.5469 92.8041C83.1822 92.6245 82.8419 92.6595 82.5261 92.9092C82.2104 93.1589 82.0827 93.4807 82.1431 93.8748L82.785 98.0614C82.8454 98.4555 83.0637 98.7247 83.4399 98.869C83.8161 99.0133 84.1514 98.9455 84.4456 98.6655Z" fill="#79C8A2"/>
<path d="M87.4349 141.583C87.1548 141.626 86.9054 141.567 86.6866 141.407C86.4686 141.247 86.3381 141.028 86.2953 140.749C86.2525 140.47 86.3112 140.221 86.4714 140.003C86.6323 139.786 86.8527 139.656 87.1328 139.613L95.041 138.409C95.3211 138.367 95.5702 138.425 95.7882 138.585C96.007 138.745 96.1378 138.965 96.1806 139.244C96.2234 139.523 96.1644 139.771 96.0035 139.988C95.8433 140.206 95.6232 140.337 95.3431 140.379L87.4349 141.583ZM84.9225 144.99C84.6424 145.033 84.393 144.975 84.1743 144.815C83.9561 144.655 83.8257 144.435 83.7829 144.156C83.7401 143.877 83.7988 143.628 83.9589 143.41C84.1198 143.193 84.3403 143.063 84.6204 143.02L98.4598 140.913C98.7398 140.87 98.9889 140.929 99.2069 141.088C99.4257 141.249 99.5565 141.468 99.5993 141.747C99.6421 142.027 99.5831 142.275 99.4223 142.493C99.2621 142.71 99.0419 142.84 98.7618 142.883L84.9225 144.99ZM86.1996 159.917C85.6559 160 85.1611 159.878 84.7151 159.552C84.2684 159.224 84.0035 158.79 83.9204 158.248L82.41 148.397C82.3269 147.855 82.4495 147.362 82.7778 146.917C83.1056 146.472 83.5413 146.209 84.085 146.126L99.9014 143.718C100.445 143.635 100.94 143.757 101.387 144.083C101.833 144.41 102.097 144.845 102.181 145.387L103.691 155.238C103.774 155.78 103.652 156.273 103.324 156.718C102.996 157.163 102.56 157.426 102.016 157.509L86.1996 159.917ZM85.8975 157.947L101.714 155.539L100.203 145.688L84.3871 148.096L85.8975 157.947ZM93.055 154.816L95.8935 152.216C96.1599 151.974 96.2666 151.681 96.2138 151.336C96.1609 150.991 95.9711 150.743 95.6443 150.591L92.1563 148.955C91.7915 148.775 91.4513 148.81 91.1355 149.06C90.8197 149.309 90.692 149.631 90.7525 150.025L91.3944 154.212C91.4548 154.606 91.6731 154.875 92.0493 155.019C92.4255 155.164 92.7607 155.096 93.055 154.816Z" fill="#79C8A2"/>
<path d="M41.2072 107.291C40.6635 107.374 40.1687 107.252 39.7227 106.925C39.276 106.598 39.0111 106.163 38.9281 105.622L37.1156 93.8004C37.0325 93.2586 37.1551 92.7655 37.4835 92.321C37.8112 91.8759 38.2468 91.612 38.7905 91.5292L50.6529 89.723C51.1965 89.6402 51.6918 89.7624 52.1385 90.0896C52.5844 90.4162 52.8489 90.8504 52.932 91.3922L53.6117 95.8251L56.2498 92.2479C56.3893 92.0586 56.5643 91.99 56.7746 92.042C56.9849 92.094 57.1076 92.2349 57.1429 92.4648L58.4418 100.937C58.4771 101.166 58.4022 101.337 58.217 101.45C58.0319 101.562 57.8444 101.548 57.6545 101.409L54.0648 98.7804L54.7445 103.213C54.8276 103.755 54.7053 104.249 54.3777 104.694C54.0493 105.138 53.6132 105.402 53.0695 105.485L41.2072 107.291ZM40.9051 105.321L52.7675 103.514L50.9549 91.6932L39.0926 93.4994L40.9051 105.321Z" fill="#79C8A2"/>
<path d="M49.8166 163.441C49.2729 163.524 48.7781 163.402 48.3321 163.075C47.8854 162.748 47.6205 162.314 47.5374 161.772L45.7249 149.951C45.6419 149.409 45.7645 148.916 46.0929 148.471C46.4206 148.026 46.8562 147.762 47.3999 147.679L59.2622 145.873C59.8059 145.79 60.3011 145.913 60.7478 146.24C61.1938 146.566 61.4583 147.001 61.5414 147.542L62.2211 151.975L64.8591 148.398C64.9987 148.209 65.1737 148.14 65.384 148.192C65.5942 148.244 65.717 148.385 65.7523 148.615L67.0512 157.087C67.0865 157.317 67.0115 157.488 66.8264 157.6C66.6413 157.712 66.4538 157.699 66.2638 157.56L62.6742 154.931L63.3539 159.364C63.437 159.905 63.3147 160.399 62.987 160.844C62.6586 161.288 62.2226 161.552 61.6789 161.635L49.8166 163.441ZM49.5145 161.471L61.3768 159.665L59.5643 147.843L47.702 149.65L49.5145 161.471Z" fill="#79C8A2"/>
<path d="M115.649 97.9721C115.105 98.0549 114.61 97.9329 114.164 97.6063C113.718 97.2792 113.453 96.8447 113.37 96.3029L110.953 80.5414C110.87 79.9996 110.993 79.5061 111.321 79.061C111.649 78.6166 112.084 78.353 112.628 78.2702L119.721 77.1902C119.984 77.1501 120.243 77.1611 120.498 77.2231C120.751 77.2853 120.982 77.3929 121.191 77.5459L126.718 81.5936C126.927 81.7466 127.099 81.9345 127.235 82.1572C127.37 82.3805 127.458 82.6235 127.498 82.8862L129.186 93.8946C129.269 94.4364 129.147 94.9299 128.819 95.3749C128.491 95.8194 128.055 96.0831 127.511 96.1659L115.649 97.9721ZM120.454 83.1271L119.85 79.1868L112.93 80.2404L115.347 96.0019L127.209 94.1957L125.548 83.3596L121.593 83.9617C121.313 84.0044 121.064 83.9455 120.846 83.7852C120.627 83.6256 120.497 83.4062 120.454 83.1271Z" fill="#79C8A2"/>
<path d="M124.258 154.122C123.714 154.205 123.22 154.083 122.774 153.757C122.327 153.429 122.062 152.995 121.979 152.453L119.562 136.692C119.479 136.15 119.602 135.656 119.93 135.211C120.258 134.767 120.694 134.503 121.237 134.42L128.33 133.34C128.594 133.3 128.853 133.311 129.107 133.373C129.361 133.436 129.592 133.543 129.801 133.696L135.328 137.744C135.537 137.897 135.709 138.085 135.844 138.307C135.979 138.531 136.067 138.774 136.108 139.036L137.795 150.045C137.879 150.587 137.756 151.08 137.429 151.525C137.1 151.97 136.664 152.233 136.12 152.316L124.258 154.122ZM129.063 139.277L128.459 135.337L121.539 136.391L123.956 152.152L135.818 150.346L134.157 139.51L130.203 140.112C129.923 140.155 129.674 140.096 129.455 139.935C129.237 139.776 129.106 139.557 129.063 139.277Z" fill="#79C8A2"/>
</g>
</svg>
