<svg width="223" height="150" viewBox="0 0 223 150" fill="none" xmlns="http://www.w3.org/2000/svg">
<path d="M16 0.5H206.617C215.178 0.5 222.117 7.43959 222.117 16V149.5H0.5V16C0.500001 7.43959 7.43959 0.5 16 0.5Z" fill="#FFDFCF" fill-opacity="0.2"/>
<mask id="mask0_23_448" style="mask-type:alpha" maskUnits="userSpaceOnUse" x="0" y="0" width="223" height="150">
<path d="M16 0.5H206.617C215.178 0.5 222.117 7.43959 222.117 16V149.5H0.5V16C0.500001 7.43959 7.43959 0.5 16 0.5Z" fill="#FFDFCF"/>
</mask>
<g mask="url(#mask0_23_448)" opacity="0.7">
<path d="M30.7539 69.7796C31.6435 69.6437 32.4831 70.2607 32.619 71.1503C32.7979 72.3228 31.7334 73.156 30.8274 73.0215L28.3864 76.3325C28.7947 77.164 28.3095 78.4297 27.1368 78.6089C25.9563 78.789 25.122 77.7168 25.2644 76.8095L22.8872 75.0616C22.6558 75.1714 22.3001 75.2257 22.0464 75.1901L18.9301 79.441C19.3289 80.2656 18.8517 81.5304 17.6793 81.7097C16.7896 81.8456 15.95 81.2286 15.8141 80.3389C15.6349 79.1662 16.6996 78.3331 17.6058 78.4678L20.7311 74.2243C20.3229 73.393 20.8083 72.1273 21.9807 71.948C23.1616 71.7675 23.9959 72.8399 23.8531 73.7473L26.2311 75.4941C26.4626 75.3844 26.8184 75.33 27.072 75.3656L29.5031 72.0483C29.104 71.2237 29.5812 69.9589 30.7539 69.7796ZM17.0052 71.8803L18.684 72.0378L17.1289 72.6893L16.9714 74.3681L16.3199 72.8129L14.6401 72.6556L16.1963 72.0039L16.3535 70.3242L17.0052 71.8803ZM26.2996 68.0349L28.0807 68.5323L26.5296 69.5399L26.0246 71.3301L25.0255 69.7697L23.2279 69.2738L24.7956 68.2647L25.2831 66.4772L26.2996 68.0349Z" fill="#FF8559"/>
<path fill-rule="evenodd" clip-rule="evenodd" d="M97.8273 54.3353C97.7439 53.7893 98.1189 53.2791 98.6648 53.1957L102.619 52.5916C103.165 52.5081 103.675 52.8831 103.759 53.429L104.363 57.3832C104.446 57.9291 104.071 58.4393 103.525 58.5227L99.5711 59.1269C99.0251 59.2103 98.5149 58.8354 98.4315 58.2894L98.305 57.4611C97.4728 57.8981 96.818 58.7425 96.4922 59.9358C96.087 61.4197 96.2195 63.4066 97.2365 65.5532L98.5003 65.3601C99.0462 65.2767 99.5564 65.6517 99.6398 66.1976L100.244 70.1517C100.327 70.6977 99.9525 71.2079 99.4065 71.2913L95.4524 71.8955C94.9065 71.9789 94.3963 71.6039 94.3129 71.058L94.1557 70.0294C91.978 70.1762 90.3314 69.6118 89.1549 68.3798C88.0858 67.2602 87.5289 65.707 87.1954 64.0527L86.1848 64.2071C85.6389 64.2905 85.1287 63.9155 85.0453 63.3696L84.4411 59.4155C84.3577 58.8695 84.7326 58.3593 85.2786 58.2759L89.2327 57.6717C89.7786 57.5883 90.2888 57.9633 90.3722 58.5092L90.9764 62.4633C91.0598 63.0093 90.6849 63.5195 90.1389 63.6029L89.1753 63.7501C89.4765 65.1953 89.9202 66.2852 90.6014 66.9985C91.24 67.6673 92.2094 68.1239 93.8524 68.0444L93.7087 67.1039C93.6253 66.5579 94.0002 66.0477 94.5462 65.9643L95.1867 65.8664C94.2116 63.5441 94.0523 61.2785 94.5628 59.4089C95.0739 57.5373 96.2809 56.0319 97.9925 55.416L97.8273 54.3353ZM102.235 56.6967L100.258 56.9988L99.9554 55.0217L101.932 54.7197L102.235 56.6967ZM86.5692 60.1019L86.8713 62.079L88.8483 61.7769L88.5462 59.7998L86.5692 60.1019ZM95.8368 67.7903L96.1389 69.7674L98.1159 69.4653L97.8138 67.4882L95.8368 67.7903Z" fill="#FF8559"/>
<path d="M58.5899 71.964L62.292 68.7176C62.5774 68.4885 62.6911 68.1845 62.6332 67.8056C62.5753 67.4267 62.376 67.1705 62.0353 67.0371L57.5326 65.0443C57.1704 64.8805 56.8301 64.9156 56.5118 65.1497C56.1935 65.3838 56.0646 65.6986 56.125 66.094L56.9331 71.3826C56.9935 71.778 57.2105 72.0399 57.5842 72.1683C57.9579 72.2966 58.2931 72.2285 58.5899 71.964ZM52.3005 77.4772C51.7568 77.5603 51.262 77.438 50.816 77.1102C50.3693 76.782 50.1044 76.346 50.0213 75.8023L48.2088 63.9399C48.1257 63.3963 48.2484 62.9014 48.5768 62.4553C48.9044 62.0087 49.3401 61.7439 49.8838 61.6608L65.7002 59.2441C66.2439 59.1611 66.7391 59.2837 67.1858 59.612C67.6318 59.9397 67.8963 60.3754 67.9794 60.9191L69.7919 72.7814C69.875 73.3251 69.7527 73.8203 69.425 74.2669C69.0966 74.7129 68.6606 74.9775 68.1169 75.0606L52.3005 77.4772ZM51.9984 75.5002L67.8148 73.0835L66.0023 61.2212L50.1859 63.6379L51.9984 75.5002Z" fill="#FF8559"/>
<path d="M162.082 44.5175C161.802 44.5603 161.552 44.5013 161.334 44.3405C161.116 44.1803 160.985 43.9601 160.942 43.68C160.9 43.3999 160.958 43.1506 161.118 42.9319C161.279 42.7137 161.5 42.5833 161.78 42.5405L169.688 41.3321C169.968 41.2893 170.217 41.348 170.435 41.5083C170.654 41.6691 170.785 41.8895 170.828 42.1696C170.87 42.4497 170.811 42.6988 170.65 42.9169C170.49 43.1356 170.27 43.2664 169.99 43.3092L162.082 44.5175ZM159.569 47.9362C159.289 47.979 159.04 47.9203 158.821 47.7602C158.603 47.5993 158.473 47.3788 158.43 47.0987C158.387 46.8187 158.446 46.5693 158.606 46.3506C158.767 46.1324 158.987 46.002 159.267 45.9592L173.107 43.8446C173.387 43.8018 173.636 43.8605 173.854 44.0207C174.073 44.1815 174.203 44.402 174.246 44.6821C174.289 44.9621 174.23 45.2116 174.069 45.4304C173.909 45.6484 173.689 45.7788 173.409 45.8216L159.569 47.9362ZM160.847 62.9152C160.303 62.9983 159.808 62.8759 159.362 62.5482C158.915 62.2199 158.65 61.7839 158.567 61.2402L157.057 51.3549C156.974 50.8112 157.097 50.316 157.425 49.8693C157.753 49.4234 158.188 49.1589 158.732 49.0758L174.548 46.6591C175.092 46.576 175.587 46.6983 176.034 47.026C176.48 47.3544 176.744 47.7904 176.828 48.3341L178.338 58.2194C178.421 58.763 178.299 59.2582 177.971 59.7048C177.643 60.1509 177.207 60.4154 176.663 60.4985L160.847 62.9152ZM160.544 60.9381L176.361 58.5214L174.85 48.6362L159.034 51.0528L160.544 60.9381ZM167.702 57.796L170.541 55.1873C170.807 54.9443 170.914 54.6498 170.861 54.3038C170.808 53.9578 170.618 53.7086 170.291 53.5562L166.803 51.9142C166.439 51.7339 166.098 51.7691 165.782 52.0196C165.467 52.2702 165.339 52.5932 165.399 52.9886L166.041 57.1899C166.102 57.5853 166.32 57.8554 166.696 58.0002C167.072 58.1451 167.408 58.077 167.702 57.796Z" fill="#FF8559"/>
<path d="M-14.0602 76.818L-13.2521 82.1067C-13.1917 82.5021 -12.9747 82.764 -12.601 82.8923C-12.2273 83.0207 -11.8921 82.9526 -11.5953 82.6881L-7.8932 79.4417C-7.60785 79.2126 -7.49413 78.9086 -7.55203 78.5297C-7.60993 78.1507 -7.80924 77.8946 -8.14997 77.7612L-12.6526 75.7684C-13.0149 75.6046 -13.3551 75.6397 -13.6734 75.8738C-13.9917 76.1079 -14.1206 76.4226 -14.0602 76.818ZM-9.67444 88.97C-11.0419 89.179 -12.3667 89.1157 -13.6487 88.7801C-14.9307 88.4452 -16.0845 87.9009 -17.1101 87.1472C-18.1357 86.3935 -18.9997 85.4549 -19.7021 84.3314C-20.4052 83.208 -20.8612 81.9626 -21.0701 80.5952C-21.2791 79.2277 -21.2158 77.903 -20.8802 76.6209C-20.5454 75.3389 -20.0011 74.1852 -19.2473 73.1595C-18.4936 72.1339 -17.555 71.2696 -16.4317 70.5665C-15.3082 69.8641 -14.0628 69.4084 -12.6953 69.1995C-11.3278 68.9905 -10.0031 69.0535 -8.72117 69.3884C-7.43911 69.7239 -6.28528 70.2686 -5.25966 71.0223C-4.23405 71.776 -3.37004 72.7146 -2.66762 73.8381C-1.96455 74.9614 -1.50854 76.2069 -1.2996 77.5743C-1.09065 78.9418 -1.15395 80.2665 -1.48949 81.5486C-1.82437 82.8306 -2.36868 83.9843 -3.12241 85.01C-3.87615 86.0356 -4.81475 86.8996 -5.93821 87.602C-7.06157 88.3051 -8.30698 88.7611 -9.67444 88.97ZM-9.97653 86.993C-7.78529 86.6582 -6.03694 85.603 -4.73148 83.8274C-3.42678 82.0513 -2.94184 80.0676 -3.27665 77.8764C-3.61146 75.6852 -4.66664 73.9368 -6.44219 72.6314C-8.2183 71.3267 -10.202 70.8417 -12.3932 71.1765C-14.5844 71.5113 -16.3325 72.5665 -17.6373 74.3419C-18.9426 76.1181 -19.4279 78.1019 -19.0931 80.2931C-18.7583 82.4843 -17.7028 84.2326 -15.9266 85.538C-14.1511 86.8428 -12.1678 87.3278 -9.97653 86.993Z" fill="#FF8559"/>
<path d="M124.463 66.4512C123.919 66.5343 123.425 66.4119 122.979 66.0842C122.532 65.7559 122.267 65.3199 122.184 64.7762L120.371 52.9139C120.288 52.3702 120.411 51.8753 120.739 51.4293C121.067 50.9827 121.503 50.7178 122.046 50.6347L133.909 48.8222C134.452 48.7392 134.948 48.8618 135.394 49.1901C135.84 49.5178 136.105 49.9535 136.188 50.4972L136.868 54.9456L139.506 51.3559C139.645 51.166 139.82 51.0971 140.03 51.1493C140.241 51.2015 140.363 51.3429 140.399 51.5735L141.698 60.0749C141.733 60.3055 141.658 60.4771 141.473 60.5897C141.288 60.7023 141.1 60.6888 140.91 60.5492L137.321 57.9112L138 62.3595C138.083 62.9032 137.961 63.3984 137.634 63.845C137.305 64.291 136.869 64.5556 136.325 64.6387L124.463 66.4512ZM124.161 64.4741L136.023 62.6616L134.211 50.7993L122.348 52.6118L124.161 64.4741Z" fill="#FF8559"/>
<path d="M198.905 57.1001C198.361 57.1831 197.866 57.0608 197.42 56.7331C196.973 56.4048 196.709 55.9688 196.626 55.4251L194.209 39.6086C194.126 39.065 194.248 38.5698 194.577 38.123C194.904 37.6771 195.34 37.4126 195.884 37.3295L202.976 36.2458C203.24 36.2055 203.499 36.2165 203.753 36.2788C204.007 36.3412 204.238 36.4492 204.447 36.6027L209.974 40.6645C210.183 40.8181 210.355 41.0066 210.491 41.23C210.626 41.4541 210.714 41.698 210.754 41.9616L212.442 53.0084C212.525 53.5521 212.403 54.0472 212.075 54.4939C211.747 54.9399 211.311 55.2045 210.767 55.2875L198.905 57.1001ZM203.71 42.2034L203.106 38.2493L196.186 39.3066L198.603 55.123L210.465 53.3105L208.803 42.4367L204.849 43.0409C204.569 43.0837 204.32 43.0246 204.102 42.8637C203.883 42.7036 203.753 42.4835 203.71 42.2034Z" fill="#FF8559"/>
<path d="M21.9936 12.4451C22.8833 12.3091 23.7229 12.9262 23.8588 13.8158C24.0377 14.9882 22.9732 15.8214 22.0672 15.687L19.6262 18.998C20.0345 19.8294 19.5492 21.0952 18.3766 21.2743C17.196 21.4545 16.3617 20.3822 16.5042 19.475L14.127 17.7271C13.8955 17.8369 13.5399 17.8912 13.2861 17.8556L10.1698 22.1065C10.5686 22.931 10.0914 24.1958 8.91901 24.3751C8.02936 24.5111 7.18979 23.8941 7.05386 23.0044C6.87468 21.8317 7.93933 20.9986 8.8455 21.1332L11.9709 16.8898C11.5626 16.0584 12.0481 14.7928 13.2205 14.6134C14.4013 14.433 15.2356 15.5054 15.0929 16.4128L17.4709 18.1596C17.7024 18.0499 18.0581 17.9954 18.3117 18.0311L20.7428 14.7137C20.3437 13.8892 20.821 12.6243 21.9936 12.4451ZM8.24499 14.5458L9.92377 14.7032L8.3686 15.3548L8.21118 17.0336L7.55963 15.4784L5.87989 15.3211L7.43602 14.6694L7.5933 12.9897L8.24499 14.5458ZM17.5394 10.7004L19.3205 11.1978L17.7693 12.2054L17.2644 13.9955L16.2653 12.4352L14.4676 11.9393L16.0353 10.9302L16.5229 9.14269L17.5394 10.7004Z" fill="#FF8559"/>
<path fill-rule="evenodd" clip-rule="evenodd" d="M89.0671 -2.9993C88.9837 -3.54525 89.3586 -4.05545 89.9046 -4.13887L93.8587 -4.74304C94.4046 -4.82646 94.9148 -4.4515 94.9982 -3.90555L95.6024 0.0485567C95.6858 0.594505 95.3109 1.10471 94.7649 1.18813L90.8108 1.7923C90.2649 1.87571 89.7547 1.50076 89.6713 0.954812L89.5447 0.126537C88.7125 0.563538 88.0578 1.40786 87.7319 2.60119C87.3267 4.08509 87.4592 6.07198 88.4763 8.21864L89.74 8.02555C90.286 7.94213 90.7962 8.31708 90.8796 8.86303L91.4838 12.8171C91.5672 13.3631 91.1922 13.8733 90.6463 13.9567L86.6922 14.5609C86.1462 14.6443 85.636 14.2693 85.5526 13.7234L85.3954 12.6948C83.2177 12.8416 81.5711 12.2772 80.3947 11.0452C79.3255 9.92557 78.7687 8.37245 78.4351 6.71807L77.4246 6.87247C76.8786 6.95589 76.3684 6.58094 76.285 6.03499L75.6808 2.08088C75.5974 1.53493 75.9724 1.02473 76.5183 0.941309L80.4724 0.337139C81.0184 0.253721 81.5286 0.628676 81.612 1.17462L82.2162 5.12873C82.2996 5.67468 81.9246 6.18488 81.3787 6.2683L80.4151 6.41554C80.7162 7.86073 81.1599 8.95063 81.8411 9.66395C82.4797 10.3327 83.4491 10.7893 85.0921 10.7098L84.9484 9.76928C84.865 9.22334 85.24 8.71313 85.7859 8.62972L86.4264 8.53185C85.4513 6.20946 85.292 3.94389 85.8025 2.07435C86.3136 0.202728 87.5207 -1.30269 89.2322 -1.91855L89.0671 -2.9993ZM93.4743 -0.637886L91.4973 -0.335801L91.1952 -2.31286L93.1722 -2.61494L93.4743 -0.637886ZM77.8089 2.76732L78.111 4.74438L80.0881 4.44229L79.786 2.46524L77.8089 2.76732ZM87.0765 10.4557L87.3786 12.4328L89.3557 12.1307L89.0536 10.1536L87.0765 10.4557Z" fill="#FF8559"/>
<path d="M49.8296 14.6295L53.5318 11.3831C53.8171 11.154 53.9308 10.85 53.8729 10.4711C53.815 10.0921 53.6157 9.83597 53.275 9.70257L48.7723 7.7098C48.4101 7.54596 48.0698 7.58109 47.7516 7.81519C47.4333 8.04928 47.3043 8.36403 47.3647 8.75945L48.1728 14.0481C48.2332 14.4435 48.4503 14.7054 48.824 14.8337C49.1976 14.9621 49.5329 14.894 49.8296 14.6295ZM43.5402 20.1427C42.9965 20.2258 42.5017 20.1035 42.0558 19.7757C41.609 19.4474 41.3442 19.0114 41.2611 18.4677L39.4486 6.60541C39.3655 6.06172 39.4882 5.56685 39.8166 5.1208C40.1442 4.67419 40.5798 4.40935 41.1235 4.32627L56.94 1.90959C57.4837 1.82652 57.9789 1.94913 58.4256 2.27742C58.8715 2.60516 59.136 3.04087 59.2191 3.58456L61.0316 15.4469C61.1147 15.9906 60.9924 16.4857 60.6648 16.9323C60.3364 17.3784 59.9003 17.643 59.3567 17.726L43.5402 20.1427ZM43.2381 18.1657L59.0546 15.749L57.2421 3.88665L41.4256 6.30333L43.2381 18.1657Z" fill="#FF8559"/>
<path d="M153.321 -12.8171C153.041 -12.7743 152.792 -12.8333 152.573 -12.9941C152.355 -13.1543 152.224 -13.3745 152.182 -13.6546C152.139 -13.9346 152.197 -14.184 152.358 -14.4027C152.518 -14.6209 152.739 -14.7513 153.019 -14.7941L160.927 -16.0025C161.207 -16.0453 161.456 -15.9865 161.674 -15.8263C161.893 -15.6655 162.024 -15.4451 162.067 -15.165C162.11 -14.8849 162.051 -14.6358 161.89 -14.4177C161.73 -14.199 161.509 -14.0682 161.229 -14.0254L153.321 -12.8171ZM150.809 -9.39837C150.529 -9.35557 150.279 -9.41425 150.061 -9.57438C149.842 -9.73528 149.712 -9.95577 149.669 -10.2359C149.626 -10.5159 149.685 -10.7653 149.845 -10.984C150.006 -11.2022 150.227 -11.3326 150.507 -11.3754L164.346 -13.49C164.626 -13.5328 164.875 -13.4741 165.093 -13.3139C165.312 -13.1531 165.443 -12.9326 165.486 -12.6525C165.528 -12.3725 165.469 -12.123 165.309 -11.9042C165.148 -11.6862 164.928 -11.5558 164.648 -11.513L150.809 -9.39837ZM152.086 5.58058C151.542 5.66366 151.047 5.54132 150.601 5.21359C150.155 4.88529 149.89 4.4493 149.807 3.90561L148.296 -5.97966C148.213 -6.52335 148.336 -7.01855 148.664 -7.46526C148.992 -7.91121 149.428 -8.17573 149.971 -8.2588L165.788 -10.6755C166.331 -10.7586 166.826 -10.6363 167.273 -10.3086C167.719 -9.98024 167.984 -9.5442 168.067 -9.00051L169.577 0.884763C169.66 1.42845 169.538 1.9236 169.21 2.37021C168.882 2.81627 168.446 3.08083 167.902 3.1639L152.086 5.58058ZM151.784 3.60353L167.6 1.18685L166.09 -8.69842L150.273 -6.28175L151.784 3.60353ZM158.941 0.46139L161.78 -2.14728C162.046 -2.3903 162.153 -2.6848 162.1 -3.03078C162.047 -3.37677 161.857 -3.62596 161.531 -3.77835L158.043 -5.42035C157.678 -5.60066 157.338 -5.56553 157.022 -5.31496C156.706 -5.06439 156.578 -4.74139 156.639 -4.34598L157.281 -0.144743C157.341 0.250668 157.559 0.520794 157.936 0.665634C158.312 0.810475 158.647 0.742394 158.941 0.46139Z" fill="#FF8559"/>
<path d="M115.702 9.11659C115.159 9.19966 114.664 9.07733 114.218 8.74959C113.771 8.4213 113.506 7.98531 113.423 7.44162L111.611 -4.42071C111.528 -4.9644 111.65 -5.45927 111.979 -5.90533C112.306 -6.35194 112.742 -6.61678 113.286 -6.69985L125.148 -8.51236C125.692 -8.59543 126.187 -8.47282 126.634 -8.14453C127.08 -7.81679 127.344 -7.38108 127.427 -6.83739L128.107 -2.38902L130.745 -5.97866C130.884 -6.16859 131.059 -6.23747 131.27 -6.1853C131.48 -6.13313 131.603 -5.99172 131.638 -5.76107L132.937 2.74027C132.972 2.97093 132.897 3.14255 132.712 3.25513C132.527 3.36772 132.34 3.35422 132.15 3.21464L128.56 0.576563L129.24 5.02494C129.323 5.56863 129.2 6.06378 128.873 6.51039C128.544 6.95644 128.108 7.221 127.565 7.30408L115.702 9.11659ZM115.4 7.13953L127.263 5.32702L125.45 -6.53531L113.588 -4.7228L115.4 7.13953Z" fill="#FF8559"/>
<path d="M190.144 -0.234542C189.601 -0.151469 189.106 -0.2738 188.66 -0.601535C188.213 -0.92983 187.948 -1.36582 187.865 -1.90951L185.449 -17.7259C185.365 -18.2696 185.488 -18.7648 185.816 -19.2116C186.144 -19.6575 186.58 -19.922 187.124 -20.0051L194.216 -21.0888C194.48 -21.1291 194.739 -21.1181 194.993 -21.0558C195.247 -20.9934 195.478 -20.8854 195.687 -20.7319L201.214 -16.6701C201.423 -16.5165 201.595 -16.328 201.73 -16.1046C201.866 -15.8805 201.954 -15.6366 201.994 -15.373L203.682 -4.32619C203.765 -3.7825 203.642 -3.28735 203.315 -2.84074C202.986 -2.39469 202.55 -2.13013 202.007 -2.04705L190.144 -0.234542ZM194.949 -15.1312L194.345 -19.0853L187.426 -18.028L189.842 -2.2116L201.705 -4.02411L200.043 -14.8979L196.089 -14.2937C195.809 -14.2509 195.56 -14.31 195.342 -14.4709C195.123 -14.631 194.992 -14.8511 194.949 -15.1312Z" fill="#FF8559"/>
<path d="M188.758 17.1746L190.117 26.0713L176.258 28.1889L174.143 14.3496L183.04 12.9902L182.738 11.0131L173.861 12.3695C172.773 12.5356 172.02 13.5612 172.186 14.6486L174.3 28.488C174.467 29.5754 175.492 30.3291 176.58 30.163L190.419 28.0484C191.506 27.8822 192.26 26.8566 192.094 25.7692L190.735 16.8725L188.758 17.1746ZM186.761 17.4797L187.379 15.3013L189.273 14.061L187.095 13.4429L185.854 11.5485L185.236 13.7269L183.342 14.9672L185.52 15.5853L186.761 17.4797ZM183.167 18.7875L181.516 16.2578L180.696 19.1651L178.166 20.8161L181.073 21.6364L182.724 24.1661L183.545 21.2588L186.074 19.6078L183.167 18.7875Z" fill="#FF8559"/>
<path d="M214.358 12.5803L215.166 17.8689C215.226 18.2643 215.443 18.5262 215.817 18.6545C216.191 18.7829 216.526 18.7148 216.823 18.4503L220.525 15.2039C220.81 14.9748 220.924 14.6708 220.866 14.2919C220.808 13.9129 220.609 13.6568 220.268 13.5234L215.765 11.5306C215.403 11.3668 215.063 11.4019 214.745 11.636C214.426 11.8701 214.297 12.1848 214.358 12.5803ZM218.744 24.7322C217.376 24.9412 216.051 24.8779 214.769 24.5423C213.487 24.2075 212.334 23.6631 211.308 22.9094C210.282 22.1557 209.418 21.2171 208.716 20.0936C208.013 18.9703 207.557 17.7248 207.348 16.3574C207.139 14.9899 207.202 13.6652 207.538 12.3831C207.873 11.1011 208.417 9.94736 209.171 8.92175C209.924 7.89614 210.863 7.03179 211.986 6.32872C213.11 5.6263 214.355 5.17062 215.723 4.96168C217.09 4.75274 218.415 4.81571 219.697 5.15059C220.979 5.48613 222.133 6.03076 223.158 6.7845C224.184 7.53824 225.048 8.47683 225.75 9.6003C226.453 10.7237 226.909 11.9691 227.118 13.3365C227.327 14.704 227.264 16.0288 226.928 17.3108C226.594 18.5928 226.049 19.7465 225.296 20.7722C224.542 21.7978 223.603 22.6618 222.48 23.3642C221.356 24.0673 220.111 24.5233 218.744 24.7322ZM218.441 22.7552C220.633 22.4204 222.381 21.3652 223.686 19.5896C224.991 17.8135 225.476 15.8299 225.141 13.6386C224.807 11.4474 223.751 9.69903 221.976 8.39357C220.2 7.08887 218.216 6.60393 216.025 6.93874C213.834 7.27355 212.086 8.32868 210.781 10.1041C209.475 11.8803 208.99 13.8641 209.325 16.0553C209.66 18.2465 210.715 19.9948 212.491 21.3002C214.267 22.605 216.25 23.09 218.441 22.7552Z" fill="#FF8559"/>
<path d="M139.359 34.8386C138.815 34.9216 138.321 34.7993 137.875 34.4716C137.428 34.1433 137.163 33.7073 137.08 33.1636L135.267 21.3013C135.184 20.7576 135.307 20.2627 135.635 19.8167C135.963 19.37 136.399 19.1052 136.942 19.0221L142.058 18.2405C142.322 18.2002 142.581 18.2112 142.835 18.2735C143.089 18.3359 143.32 18.4439 143.529 18.5974L145.153 19.7908L153.061 18.5825C153.605 18.4994 154.1 18.622 154.547 18.9503C154.992 19.2781 155.257 19.7138 155.34 20.2575L156.85 30.1428C156.934 30.6864 156.811 31.1816 156.484 31.6282C156.155 32.0743 155.719 32.3388 155.176 32.4219L139.359 34.8386ZM137.244 20.9992L139.057 32.8615L154.873 30.4448L153.363 20.5596L144.639 21.8925L142.36 20.2175L137.244 20.9992Z" fill="#FF8559"/>
<path fill-rule="evenodd" clip-rule="evenodd" d="M-5.11846 -16.9332C-5.20188 -17.4791 -4.82693 -17.9893 -4.28098 -18.0728L-0.326868 -18.6769C0.21908 -18.7604 0.729283 -18.3854 0.812702 -17.8395L1.41687 -13.8853C1.50029 -13.3394 1.12533 -12.8292 0.579387 -12.7458L-3.37472 -12.1416C-3.92067 -12.0582 -4.43087 -12.4331 -4.51429 -12.9791L-4.64085 -13.8074C-5.47301 -13.3704 -6.12779 -12.526 -6.45365 -11.3327C-6.85884 -9.84881 -6.72632 -7.86192 -5.70926 -5.71526L-4.44552 -5.90835C-3.89957 -5.99177 -3.38937 -5.61682 -3.30595 -5.07087L-2.70178 -1.11676C-2.61836 -0.570812 -2.99332 -0.0606083 -3.53927 0.0228101L-7.49338 0.62698C-8.03932 0.710398 -8.54953 0.335443 -8.63295 -0.210505L-8.79012 -1.23913C-10.9678 -1.09231 -12.6144 -1.65672 -13.7909 -2.8887C-14.86 -4.00833 -15.4169 -5.56145 -15.7504 -7.21583L-16.761 -7.06143C-17.3069 -6.97801 -17.8171 -7.35296 -17.9005 -7.89891L-18.5047 -11.853C-18.5881 -12.399 -18.2132 -12.9092 -17.6672 -12.9926L-13.7131 -13.5968C-13.1672 -13.6802 -12.657 -13.3052 -12.5736 -12.7593L-11.9694 -8.80517C-11.886 -8.25922 -12.2609 -7.74901 -12.8069 -7.6656L-13.7705 -7.51836C-13.4693 -6.07316 -13.0256 -4.98327 -12.3444 -4.26995C-11.7058 -3.60117 -10.7364 -3.14464 -9.0934 -3.22405L-9.23712 -4.16461C-9.32053 -4.71056 -8.94558 -5.22077 -8.39963 -5.30418L-7.75913 -5.40205C-8.73424 -7.72444 -8.89351 -9.99001 -8.38301 -11.8595C-7.87194 -13.7312 -6.66485 -15.2366 -4.95333 -15.8524L-5.11846 -16.9332ZM-0.711225 -14.5718L-2.68828 -14.2697L-2.99036 -16.2468L-1.01331 -16.5488L-0.711225 -14.5718ZM-16.3766 -11.1666L-16.0745 -9.18952L-14.0975 -9.49161L-14.3996 -11.4687L-16.3766 -11.1666ZM-7.10902 -3.47817L-6.80693 -1.50112L-4.82988 -1.8032L-5.13196 -3.78026L-7.10902 -3.47817Z" fill="#FF8559"/>
<path fill-rule="evenodd" clip-rule="evenodd" d="M3.4914 39.4129C3.40798 38.8669 3.78294 38.3567 4.32889 38.2733L8.283 37.6691C8.82894 37.5857 9.33915 37.9607 9.42257 38.5066L10.0267 42.4607C10.1102 43.0067 9.7352 43.5169 9.18925 43.6003L5.23514 44.2045C4.68919 44.2879 4.17899 43.9129 4.09557 43.367L3.96901 42.5387C3.13685 42.9757 2.48207 43.82 2.15622 45.0134C1.75102 46.4973 1.88354 48.4841 2.9006 50.6308L4.16434 50.4377C4.71029 50.3543 5.22049 50.7293 5.30391 51.2752L5.90808 55.2293C5.9915 55.7753 5.61654 56.2855 5.0706 56.3689L1.11649 56.973C0.570539 57.0565 0.0603357 56.6815 -0.0230827 56.1356L-0.180252 55.1069C-2.35797 55.2538 -4.00456 54.6893 -5.18101 53.4574C-6.25018 52.3377 -6.80703 50.7846 -7.14057 49.1302L-8.15111 49.2846C-8.69706 49.3681 -9.20727 48.9931 -9.29068 48.4472L-9.89485 44.493C-9.97827 43.9471 -9.60332 43.4369 -9.05737 43.3535L-5.10326 42.7493C-4.55731 42.6659 -4.04711 43.0408 -3.96369 43.5868L-3.35952 47.5409C-3.2761 48.0869 -3.65106 48.5971 -4.197 48.6805L-5.16061 48.8277C-4.85944 50.2729 -4.41576 51.3628 -3.73458 52.0761C-3.09595 52.7449 -2.12658 53.2014 -0.483539 53.122L-0.627253 52.1815C-0.710671 51.6355 -0.335716 51.1253 0.210232 51.0419L0.850738 50.944C-0.124378 48.6216 -0.283646 46.3561 0.226852 44.4865C0.737923 42.6149 1.94501 41.1095 3.65654 40.4936L3.4914 39.4129ZM7.89864 41.7743L5.92158 42.0764L5.6195 40.0993L7.59655 39.7972L7.89864 41.7743ZM-7.76676 45.1795L-7.46467 47.1565L-5.48762 46.8545L-5.7897 44.8774L-7.76676 45.1795ZM1.50084 52.8679L1.80293 54.845L3.77998 54.5429L3.4779 52.5658L1.50084 52.8679Z" fill="#FF8559"/>
<path d="M67.7455 29.5951C67.4654 29.6379 67.2159 29.5789 66.9971 29.4181C66.7791 29.2579 66.6487 29.0377 66.6059 28.7576C66.5631 28.4775 66.6218 28.2281 66.7819 28.0094C66.9428 27.7913 67.1633 27.6608 67.4434 27.618L75.3516 26.4097C75.6317 26.3669 75.8807 26.4256 76.0988 26.5859C76.3176 26.7467 76.4484 26.9671 76.4912 27.2472C76.534 27.5273 76.4749 27.7764 76.314 27.9945C76.1539 28.2132 75.9338 28.344 75.6537 28.3868L67.7455 29.5951ZM65.233 33.0138C64.9529 33.0566 64.7035 32.9979 64.4848 32.8378C64.2667 32.6769 64.1362 32.4564 64.0934 32.1763C64.0506 31.8962 64.1093 31.6468 64.2694 31.4281C64.4303 31.21 64.6508 31.0795 64.9309 31.0367L78.7703 28.9222C79.0504 28.8794 79.2994 28.9381 79.5175 29.0983C79.7363 29.2591 79.8671 29.4796 79.9099 29.7596C79.9527 30.0397 79.8937 30.2892 79.7329 30.508C79.5726 30.726 79.3525 30.8564 79.0724 30.8992L65.233 33.0138ZM66.5101 47.9928C65.9664 48.0758 65.4716 47.9535 65.0256 47.6258C64.5789 47.2975 64.314 46.8615 64.231 46.3178L62.7205 36.4325C62.6375 35.8888 62.7601 35.3936 63.0884 34.9469C63.4161 34.501 63.8518 34.2364 64.3955 34.1534L80.212 31.7367C80.7556 31.6536 81.2508 31.7759 81.6974 32.1035C82.1435 32.4319 82.408 32.868 82.4911 33.4117L84.0015 43.2969C84.0846 43.8406 83.9623 44.3358 83.6347 44.7824C83.3063 45.2284 82.8702 45.493 82.3265 45.5761L66.5101 47.9928ZM66.208 46.0157L82.0245 43.599L80.514 33.7137L64.6976 36.1304L66.208 46.0157ZM73.3655 42.8736L76.2041 40.2649C76.4704 40.0219 76.5772 39.7274 76.5243 39.3814C76.4715 39.0354 76.2816 38.7862 75.9549 38.6338L72.4668 36.9918C72.1021 36.8115 71.7618 36.8466 71.4461 37.0972C71.1303 37.3478 71.0026 37.6708 71.063 38.0662L71.7049 42.2674C71.7654 42.6628 71.9837 42.933 72.3599 43.0778C72.7361 43.2226 73.0713 43.1546 73.3655 42.8736Z" fill="#FF8559"/>
<path d="M30.1266 51.5288C29.583 51.6118 29.0881 51.4895 28.6422 51.1618C28.1955 50.8335 27.9306 50.3975 27.8475 49.8538L26.035 37.9915C25.9519 37.4478 26.0746 36.9529 26.403 36.5068C26.7306 36.0602 27.1663 35.7954 27.71 35.7123L39.5723 33.8998C40.116 33.8167 40.6112 33.9393 41.0579 34.2676C41.5038 34.5954 41.7684 35.0311 41.8514 35.5748L42.5311 40.0232L45.1692 36.4335C45.3088 36.2436 45.4837 36.1747 45.694 36.2269C45.9043 36.279 46.0271 36.4204 46.0623 36.6511L47.3613 45.1524C47.3965 45.3831 47.3216 45.5547 47.1365 45.6673C46.9513 45.7799 46.7638 45.7664 46.5739 45.6268L42.9843 42.9887L43.6639 47.4371C43.747 47.9808 43.6247 48.4759 43.2971 48.9226C42.9687 49.3686 42.5327 49.6332 41.989 49.7162L30.1266 51.5288ZM29.8246 49.5517L41.6869 47.7392L39.8744 35.8769L28.012 37.6894L29.8246 49.5517Z" fill="#FF8559"/>
<path d="M104.568 42.1776C104.025 42.2607 103.53 42.1384 103.084 41.8106C102.637 41.4823 102.372 41.0463 102.289 40.5027L99.8724 24.6862C99.7893 24.1425 99.9119 23.6473 100.24 23.2006C100.568 22.7547 101.004 22.4902 101.547 22.4071L108.64 21.3234C108.904 21.2831 109.163 21.2941 109.417 21.3564C109.671 21.4188 109.902 21.5268 110.111 21.6803L115.638 25.7421C115.847 25.8956 116.019 26.0841 116.154 26.3076C116.289 26.5317 116.377 26.7756 116.418 27.0392L118.106 38.086C118.189 38.6297 118.066 39.1248 117.739 39.5714C117.41 40.0175 116.974 40.282 116.431 40.3651L104.568 42.1776ZM109.373 27.2809L108.769 23.3268L101.849 24.3841L104.266 40.2006L116.128 38.3881L114.467 27.5143L110.513 28.1184C110.233 28.1612 109.984 28.1022 109.766 27.9413C109.547 27.7811 109.416 27.561 109.373 27.2809Z" fill="#FF8559"/>
<path d="M216.274 170.781C215.731 170.864 215.236 170.741 214.79 170.414C214.343 170.085 214.078 169.649 213.995 169.106L211.578 153.289C211.495 152.746 211.618 152.25 211.946 151.804C212.274 151.358 212.71 151.093 213.253 151.01L220.346 149.926C220.61 149.886 220.869 149.897 221.123 149.959C221.377 150.022 221.608 150.13 221.817 150.283L227.344 154.345C227.553 154.499 227.725 154.687 227.86 154.911C227.996 155.135 228.083 155.379 228.124 155.642L229.812 166.689C229.895 167.233 229.772 167.728 229.445 168.174C229.116 168.621 228.68 168.885 228.137 168.968L216.274 170.781ZM221.079 155.884L220.475 151.93L213.556 152.987L215.972 168.804L227.835 166.991L226.173 156.117L222.219 156.721C221.939 156.764 221.69 156.705 221.472 156.544C221.253 156.384 221.122 156.164 221.079 155.884Z" fill="#FF8559"/>
<path d="M39.3633 126.126C40.2529 125.99 41.0925 126.607 41.2284 127.496C41.4073 128.669 40.3428 129.502 39.4368 129.368L36.9958 132.679C37.4041 133.51 36.9188 134.776 35.7462 134.955C34.5657 135.135 33.7313 134.063 33.8738 133.156L31.4966 131.408C31.2651 131.518 30.9095 131.572 30.6558 131.536L27.5394 135.787C27.9383 136.612 27.461 137.876 26.2886 138.056C25.399 138.192 24.5594 137.575 24.4235 136.685C24.2443 135.512 25.309 134.679 26.2151 134.814L29.3405 130.57C28.9322 129.739 29.4177 128.473 30.5901 128.294C31.7709 128.114 32.6052 129.186 32.4625 130.093L34.8405 131.84C35.072 131.73 35.4277 131.676 35.6814 131.712L38.1125 128.394C37.7134 127.57 38.1906 126.305 39.3633 126.126ZM25.6146 128.226L27.2934 128.384L25.7382 129.035L25.5808 130.714L24.9293 129.159L23.2495 129.002L24.8057 128.35L24.9629 126.67L25.6146 128.226ZM34.909 124.381L36.6901 124.878L35.1389 125.886L34.634 127.676L33.6349 126.116L31.8372 125.62L33.405 124.611L33.8925 122.823L34.909 124.381Z" fill="#FF8559"/>
<path fill-rule="evenodd" clip-rule="evenodd" d="M106.437 110.681C106.353 110.135 106.728 109.625 107.274 109.542L111.228 108.938C111.774 108.854 112.284 109.229 112.368 109.775L112.972 113.729C113.055 114.275 112.681 114.785 112.135 114.869L108.18 115.473C107.635 115.556 107.124 115.181 107.041 114.635L106.914 113.807C106.082 114.244 105.427 115.088 105.102 116.282C104.696 117.766 104.829 119.753 105.846 121.899L107.11 121.706C107.656 121.623 108.166 121.998 108.249 122.544L108.853 126.498C108.937 127.044 108.562 127.554 108.016 127.637L104.062 128.241C103.516 128.325 103.006 127.95 102.922 127.404L102.765 126.375C100.587 126.522 98.9408 125.958 97.7643 124.726C96.6951 123.606 96.1383 122.053 95.8047 120.399L94.7942 120.553C94.2483 120.636 93.738 120.262 93.6546 119.716L93.0505 115.761C92.967 115.216 93.342 114.705 93.8879 114.622L97.8421 114.018C98.388 113.934 98.8982 114.309 98.9816 114.855L99.5858 118.809C99.6692 119.355 99.2943 119.865 98.7483 119.949L97.7847 120.096C98.0859 121.541 98.5296 122.631 99.2107 123.345C99.8494 124.013 100.819 124.47 102.462 124.39L102.318 123.45C102.235 122.904 102.61 122.394 103.156 122.31L103.796 122.212C102.821 119.89 102.662 117.624 103.172 115.755C103.683 113.883 104.89 112.378 106.602 111.762L106.437 110.681ZM110.844 113.043L108.867 113.345L108.565 111.368L110.542 111.066L110.844 113.043ZM95.1786 116.448L95.4806 118.425L97.4577 118.123L97.1556 116.146L95.1786 116.448ZM104.446 124.136L104.748 126.113L106.725 125.811L106.423 123.834L104.446 124.136Z" fill="#FF8559"/>
<path d="M67.1993 128.31L70.9014 125.064C71.1867 124.835 71.3005 124.531 71.2426 124.152C71.1847 123.773 70.9854 123.517 70.6446 123.383L66.142 121.39C65.7797 121.227 65.4395 121.262 65.1212 121.496C64.8029 121.73 64.674 122.045 64.7344 122.44L65.5424 127.729C65.6029 128.124 65.8199 128.386 66.1936 128.514C66.5673 128.643 66.9025 128.575 67.1993 128.31ZM60.9098 133.823C60.3662 133.906 59.8713 133.784 59.4254 133.456C58.9787 133.128 58.7138 132.692 58.6307 132.148L56.8182 120.286C56.7351 119.742 56.8578 119.247 57.1862 118.801C57.5138 118.355 57.9495 118.09 58.4932 118.007L74.3096 115.59C74.8533 115.507 75.3485 115.63 75.7952 115.958C76.2412 116.286 76.5057 116.721 76.5887 117.265L78.4013 129.127C78.4843 129.671 78.362 130.166 78.0344 130.613C77.706 131.059 77.27 131.324 76.7263 131.407L60.9098 133.823ZM60.6078 131.846L76.4242 129.43L74.6117 117.567L58.7953 119.984L60.6078 131.846Z" fill="#FF8559"/>
<path d="M170.691 100.864C170.411 100.906 170.162 100.847 169.943 100.687C169.725 100.526 169.594 100.306 169.552 100.026C169.509 99.746 169.568 99.4966 169.728 99.2779C169.889 99.0598 170.109 98.9293 170.389 98.8865L178.297 97.6782C178.577 97.6354 178.827 97.6941 179.045 97.8544C179.263 98.0152 179.394 98.2356 179.437 98.5157C179.48 98.7958 179.421 99.0449 179.26 99.263C179.1 99.4817 178.88 99.6124 178.599 99.6552L170.691 100.864ZM168.179 104.282C167.899 104.325 167.649 104.266 167.431 104.106C167.212 103.945 167.082 103.725 167.039 103.445C166.996 103.165 167.055 102.915 167.215 102.697C167.376 102.479 167.597 102.348 167.877 102.305L181.716 100.191C181.996 100.148 182.245 100.207 182.463 100.367C182.682 100.528 182.813 100.748 182.856 101.028C182.898 101.308 182.839 101.558 182.679 101.776C182.518 101.994 182.298 102.125 182.018 102.168L168.179 104.282ZM169.456 119.261C168.912 119.344 168.417 119.222 167.971 118.894C167.525 118.566 167.26 118.13 167.177 117.586L165.666 107.701C165.583 107.157 165.706 106.662 166.034 106.215C166.362 105.769 166.798 105.505 167.341 105.422L183.158 103.005C183.701 102.922 184.197 103.044 184.643 103.372C185.089 103.7 185.354 104.136 185.437 104.68L186.947 114.565C187.03 115.109 186.908 115.604 186.58 116.051C186.252 116.497 185.816 116.761 185.272 116.845L169.456 119.261ZM169.154 117.284L184.97 114.868L183.46 104.982L167.643 107.399L169.154 117.284ZM176.311 114.142L179.15 111.533C179.416 111.29 179.523 110.996 179.47 110.65C179.417 110.304 179.227 110.055 178.901 109.902L175.413 108.26C175.048 108.08 174.708 108.115 174.392 108.366C174.076 108.616 173.948 108.939 174.009 109.335L174.651 113.536C174.711 113.931 174.929 114.201 175.306 114.346C175.682 114.491 176.017 114.423 176.311 114.142Z" fill="#FF8559"/>
<path d="M-5.45085 133.164L-4.64277 138.453C-4.58236 138.848 -4.36531 139.11 -3.99163 139.238C-3.61796 139.367 -3.28273 139.299 -2.98595 139.034L0.71618 135.788C1.00152 135.559 1.11524 135.255 1.05734 134.876C0.999445 134.497 0.800132 134.241 0.459407 134.107L-4.04324 132.114C-4.40548 131.951 -4.74574 131.986 -5.06404 132.22C-5.38233 132.454 -5.51127 132.769 -5.45085 133.164ZM-1.06507 145.316C-2.43253 145.525 -3.75729 145.462 -5.03935 145.126C-6.3213 144.791 -7.47509 144.247 -8.5007 143.493C-9.52631 142.739 -10.3903 141.801 -11.0927 140.677C-11.7958 139.554 -12.2518 138.309 -12.4608 136.941C-12.6697 135.574 -12.6064 134.249 -12.2709 132.967C-11.936 131.685 -11.3917 130.531 -10.6379 129.506C-9.88421 128.48 -8.94566 127.616 -7.8223 126.913C-6.69884 126.21 -5.45338 125.754 -4.08592 125.545C-2.71846 125.337 -1.39375 125.4 -0.111792 125.734C1.17026 126.07 2.3241 126.615 3.34971 127.368C4.37532 128.122 5.23934 129.061 5.94175 130.184C6.64483 131.307 7.10084 132.553 7.30978 133.92C7.51872 135.288 7.45542 136.613 7.11989 137.895C6.78501 139.177 6.2407 140.33 5.48696 141.356C4.73323 142.382 3.79463 143.246 2.67117 143.948C1.5478 144.651 0.302394 145.107 -1.06507 145.316ZM-1.36715 143.339C0.824082 143.004 2.57243 141.949 3.87789 140.173C5.18259 138.397 5.66754 136.414 5.33272 134.222C4.99791 132.031 3.94273 130.283 2.16718 128.977C0.391075 127.673 -1.5926 127.188 -3.78383 127.523C-5.97507 127.857 -7.72309 128.912 -9.02789 130.688C-10.3332 132.464 -10.8185 134.448 -10.4837 136.639C-10.1489 138.83 -9.09339 140.579 -7.31718 141.884C-5.54173 143.189 -3.55839 143.674 -1.36715 143.339Z" fill="#FF8559"/>
<path d="M133.072 122.797C132.529 122.88 132.034 122.758 131.588 122.43C131.141 122.102 130.876 121.666 130.793 121.122L128.981 109.26C128.898 108.716 129.02 108.221 129.349 107.775C129.676 107.329 130.112 107.064 130.656 106.981L142.518 105.168C143.062 105.085 143.557 105.208 144.004 105.536C144.45 105.864 144.714 106.3 144.797 106.843L145.477 111.292L148.115 107.702C148.255 107.512 148.43 107.443 148.64 107.495C148.85 107.548 148.973 107.689 149.008 107.92L150.307 116.421C150.342 116.652 150.267 116.823 150.082 116.936C149.897 117.048 149.71 117.035 149.52 116.895L145.93 114.257L146.61 118.706C146.693 119.249 146.571 119.744 146.243 120.191C145.915 120.637 145.478 120.902 144.935 120.985L133.072 122.797ZM132.77 120.82L144.633 119.008L142.82 107.145L130.958 108.958L132.77 120.82Z" fill="#FF8559"/>
<path d="M207.514 113.446C206.97 113.529 206.476 113.407 206.03 113.079C205.583 112.751 205.318 112.315 205.235 111.771L202.818 95.9547C202.735 95.411 202.858 94.9158 203.186 94.4691C203.514 94.0232 203.949 93.7586 204.493 93.6756L211.586 92.5918C211.849 92.5516 212.108 92.5626 212.363 92.6249C212.616 92.6873 212.848 92.7953 213.057 92.9488L218.584 97.0106C218.792 97.1641 218.965 97.3526 219.1 97.5761C219.235 97.8002 219.323 98.0441 219.363 98.3077L221.051 109.354C221.134 109.898 221.012 110.393 220.684 110.84C220.356 111.286 219.92 111.551 219.376 111.634L207.514 113.446ZM212.319 98.5494L211.715 94.5953L204.795 95.6526L207.212 111.469L219.074 109.657L217.413 98.7828L213.459 99.3869C213.179 99.4297 212.929 99.3707 212.711 99.2098C212.493 99.0496 212.362 98.8295 212.319 98.5494Z" fill="#FF8559"/>
<path d="M197.518 74.5092L198.878 83.4059L185.018 85.5235L182.904 71.6842L191.801 70.3248L191.499 68.3477L182.622 69.7041C181.534 69.8702 180.78 70.8958 180.947 71.9832L183.061 85.8226C183.227 86.91 184.253 87.6637 185.34 87.4976L199.18 85.383C200.267 85.2168 201.021 84.1912 200.855 83.1038L199.495 74.2071L197.518 74.5092ZM195.521 74.8143L196.14 72.6359L198.034 71.3956L195.856 70.7775L194.615 68.8831L193.997 71.0615L192.103 72.3018L194.281 72.9199L195.521 74.8143ZM191.928 76.1221L190.277 73.5924L189.456 76.4997L186.927 78.1507L189.834 78.971L191.485 81.5007L192.305 78.5934L194.835 76.9424L191.928 76.1221Z" fill="#FF8559"/>
<path d="M206.128 130.855L207.487 139.752L193.628 141.87L191.513 128.03L200.41 126.671L200.108 124.694L191.231 126.05C190.144 126.216 189.39 127.242 189.556 128.329L191.671 142.169C191.837 143.256 192.862 144.01 193.95 143.844L207.789 141.729C208.876 141.563 209.63 140.537 209.464 139.45L208.105 130.553L206.128 130.855ZM204.131 131.16L204.749 128.982L206.643 127.742L204.465 127.124L203.225 125.229L202.606 127.408L200.712 128.648L202.89 129.266L204.131 131.16ZM200.537 132.468L198.886 129.939L198.066 132.846L195.536 134.497L198.443 135.317L200.094 137.847L200.915 134.939L203.444 133.288L200.537 132.468Z" fill="#FF8559"/>
<path d="M223.118 69.9148L223.926 75.2034C223.986 75.5988 224.204 75.8607 224.577 75.9891C224.951 76.1174 225.286 76.0494 225.583 75.7848L229.285 72.5384C229.57 72.3093 229.684 72.0053 229.626 71.6264C229.568 71.2475 229.369 70.9913 229.028 70.8579L224.526 68.8651C224.163 68.7013 223.823 68.7364 223.505 68.9705C223.187 69.2046 223.058 69.5194 223.118 69.9148ZM227.504 82.0668C226.136 82.2757 224.812 82.2124 223.53 81.8769C222.248 81.542 221.094 80.9977 220.068 80.2439C219.043 79.4902 218.179 78.5516 217.476 77.4281C216.773 76.3048 216.317 75.0594 216.108 73.6919C215.899 72.3245 215.962 70.9997 216.298 69.7176C216.633 68.4357 217.177 67.2819 217.931 66.2563C218.685 65.2307 219.623 64.3663 220.747 63.6633C221.87 62.9608 223.115 62.5052 224.483 62.2962C225.85 62.0873 227.175 62.1502 228.457 62.4851C229.739 62.8207 230.893 63.3653 231.919 64.119C232.944 64.8728 233.808 65.8114 234.511 66.9348C235.214 68.0582 235.67 69.3036 235.879 70.6711C236.088 72.0385 236.024 73.3633 235.689 74.6453C235.354 75.9273 234.81 77.0811 234.056 78.1067C233.302 79.1323 232.363 79.9963 231.24 80.6987C230.117 81.4018 228.871 81.8578 227.504 82.0668ZM227.202 80.0897C229.393 79.7549 231.141 78.6997 232.447 76.9242C233.751 75.1481 234.236 73.1644 233.902 70.9731C233.567 68.7819 232.512 67.0336 230.736 65.7281C228.96 64.4234 226.976 63.9385 224.785 64.2733C222.594 64.6081 220.846 65.6632 219.541 67.4387C218.236 69.2149 217.75 71.1986 218.085 73.3898C218.42 75.5811 219.475 77.3294 221.252 78.6347C223.027 79.9395 225.01 80.4245 227.202 80.0897Z" fill="#FF8559"/>
<path d="M148.119 92.1731C147.576 92.2562 147.081 92.1338 146.635 91.8061C146.188 91.4778 145.923 91.0418 145.84 90.4981L144.028 78.6358C143.945 78.0921 144.067 77.5972 144.396 77.1512C144.723 76.7046 145.159 76.4397 145.703 76.3567L150.818 75.575C151.082 75.5347 151.341 75.5458 151.595 75.6081C151.849 75.6705 152.08 75.7784 152.289 75.932L153.913 77.1254L161.821 75.917C162.365 75.834 162.86 75.9566 163.307 76.2849C163.753 76.6126 164.017 77.0483 164.1 77.592L165.611 87.4773C165.694 88.021 165.572 88.5161 165.244 88.9627C164.915 89.4088 164.479 89.6734 163.936 89.7564L148.119 92.1731ZM146.005 78.3337L147.817 90.196L163.634 87.7794L162.123 77.8941L153.399 79.227L151.12 77.5521L146.005 78.3337Z" fill="#FF8559"/>
<path d="M156.729 148.519C156.185 148.602 155.69 148.48 155.244 148.152C154.798 147.824 154.533 147.388 154.45 146.844L152.637 134.982C152.554 134.438 152.677 133.943 153.005 133.497C153.333 133.051 153.768 132.786 154.312 132.703L159.428 131.921C159.691 131.881 159.95 131.892 160.205 131.954C160.458 132.017 160.69 132.124 160.898 132.278L162.522 133.471L170.431 132.263C170.974 132.18 171.469 132.303 171.916 132.631C172.362 132.959 172.627 133.394 172.71 133.938L174.22 143.823C174.303 144.367 174.181 144.862 173.853 145.309C173.525 145.755 173.089 146.019 172.545 146.102L156.729 148.519ZM154.614 134.68L156.427 146.542L172.243 144.125L170.733 134.24L162.009 135.573L159.73 133.898L154.614 134.68Z" fill="#FF8559"/>
<path fill-rule="evenodd" clip-rule="evenodd" d="M12.2517 96.7474C12.1682 96.2015 12.5432 95.6913 13.0891 95.6078L17.0432 95.0037C17.5892 94.9202 18.0994 95.2952 18.1828 95.8412L18.787 99.7953C18.8704 100.341 18.4955 100.851 17.9495 100.935L13.9954 101.539C13.4494 101.622 12.9392 101.247 12.8558 100.702L12.7293 99.8732C11.8971 100.31 11.2423 101.155 10.9165 102.348C10.5113 103.832 10.6438 105.819 11.6609 107.965L12.9246 107.772C13.4705 107.689 13.9807 108.064 14.0642 108.61L14.6683 112.564C14.7518 113.11 14.3768 113.62 13.8309 113.703L9.87674 114.308C9.33079 114.391 8.82059 114.016 8.73717 113.47L8.58 112.441C6.40229 112.588 4.75569 112.024 3.57924 110.792C2.51007 109.672 1.95323 108.119 1.61968 106.465L0.60914 106.619C0.0631918 106.703 -0.447011 106.328 -0.53043 105.782L-1.1346 101.828C-1.21802 101.282 -0.843063 100.771 -0.297115 100.688L3.65699 100.084C4.20294 100 4.71315 100.375 4.79656 100.921L5.40073 104.875C5.48415 105.421 5.1092 105.932 4.56325 106.015L3.59965 106.162C3.90081 107.607 4.3445 108.697 5.02567 109.411C5.66431 110.079 6.63367 110.536 8.27671 110.457L8.133 109.516C8.04958 108.97 8.42454 108.46 8.97049 108.376L9.61099 108.279C8.63588 105.956 8.47661 103.691 8.98711 101.821C9.49818 99.9494 10.7053 98.444 12.4168 97.8282L12.2517 96.7474ZM16.6589 99.1088L14.6818 99.4109L14.3798 97.4338L16.3568 97.1318L16.6589 99.1088ZM0.993498 102.514L1.29558 104.491L3.27264 104.189L2.97055 102.212L0.993498 102.514ZM10.2611 110.202L10.5632 112.179L12.5402 111.877L12.2382 109.9L10.2611 110.202Z" fill="#FF8559"/>
<path d="M76.5057 86.9297C76.2256 86.9725 75.9762 86.9135 75.7574 86.7527C75.5394 86.5924 75.4089 86.3723 75.3661 86.0922C75.3233 85.8121 75.382 85.5627 75.5422 85.344C75.7031 85.1259 75.9235 84.9954 76.2036 84.9526L84.1118 83.7443C84.3919 83.7015 84.641 83.7602 84.859 83.9205C85.0778 84.0813 85.2086 84.3017 85.2514 84.5818C85.2942 84.8619 85.2352 85.111 85.0743 85.3291C84.9141 85.5478 84.694 85.6786 84.4139 85.7213L76.5057 86.9297ZM73.9933 90.3484C73.7132 90.3912 73.4638 90.3325 73.2451 90.1724C73.0269 90.0115 72.8965 89.791 72.8537 89.5109C72.8109 89.2308 72.8696 88.9814 73.0297 88.7627C73.1906 88.5446 73.4111 88.4141 73.6912 88.3713L87.5306 86.2567C87.8106 86.214 88.0597 86.2727 88.2777 86.4329C88.4965 86.5937 88.6273 86.8141 88.6701 87.0942C88.7129 87.3743 88.6539 87.6238 88.4931 87.8426C88.3329 88.0606 88.1127 88.191 87.8326 88.2338L73.9933 90.3484ZM75.2704 105.327C74.7267 105.41 74.2319 105.288 73.7859 104.96C73.3392 104.632 73.0743 104.196 72.9912 103.652L71.4808 93.7671C71.3977 93.2234 71.5203 92.7282 71.8486 92.2815C72.1764 91.8356 72.6121 91.571 73.1558 91.488L88.9722 89.0713C89.5159 88.9882 90.011 89.1105 90.4577 89.4381C90.9037 89.7665 91.1683 90.2026 91.2513 90.7463L92.7618 100.632C92.8448 101.175 92.7226 101.67 92.3949 102.117C92.0665 102.563 91.6305 102.828 91.0868 102.911L75.2704 105.327ZM74.9683 103.35L90.7847 100.934L89.2743 91.0483L73.4579 93.465L74.9683 103.35ZM82.1258 100.208L84.9643 97.5995C85.2307 97.3565 85.3374 97.062 85.2846 96.716C85.2317 96.37 85.0419 96.1208 84.7151 95.9684L81.2271 94.3264C80.8623 94.1461 80.5221 94.1812 80.2063 94.4318C79.8905 94.6824 79.7628 95.0054 79.8233 95.4008L80.4652 99.602C80.5256 99.9974 80.7439 100.268 81.1201 100.412C81.4963 100.557 81.8315 100.489 82.1258 100.208Z" fill="#FF8559"/>
<path d="M85.1151 143.276C84.835 143.318 84.5856 143.259 84.3668 143.099C84.1487 142.938 84.0183 142.718 83.9755 142.438C83.9327 142.158 83.9914 141.909 84.1515 141.69C84.3124 141.472 84.5329 141.341 84.813 141.299L92.7212 140.09C93.0013 140.048 93.2504 140.106 93.4684 140.266C93.6872 140.427 93.818 140.648 93.8608 140.928C93.9036 141.208 93.8445 141.457 93.6836 141.675C93.5235 141.894 93.3034 142.025 93.0233 142.067L85.1151 143.276ZM82.6026 146.694C82.3225 146.737 82.0732 146.679 81.8545 146.518C81.6363 146.357 81.5059 146.137 81.4631 145.857C81.4203 145.577 81.4789 145.327 81.6391 145.109C81.8 144.891 82.0205 144.76 82.3005 144.717L96.1399 142.603C96.42 142.56 96.6691 142.619 96.8871 142.779C97.1059 142.94 97.2367 143.16 97.2795 143.44C97.3223 143.72 97.2633 143.97 97.1025 144.189C96.9423 144.407 96.7221 144.537 96.442 144.58L82.6026 146.694ZM83.8797 161.673C83.3361 161.756 82.8412 161.634 82.3953 161.306C81.9486 160.978 81.6837 160.542 81.6006 159.998L80.0902 150.113C80.0071 149.569 80.1297 149.074 80.458 148.628C80.7857 148.182 81.2215 147.917 81.7651 147.834L97.5816 145.417C98.1253 145.334 98.6204 145.457 99.067 145.784C99.5131 146.113 99.7776 146.549 99.8607 147.092L101.371 156.978C101.454 157.521 101.332 158.016 101.004 158.463C100.676 158.909 100.24 159.174 99.6962 159.257L83.8797 161.673ZM83.5777 159.696L99.3941 157.28L97.8837 147.394L82.0672 149.811L83.5777 159.696ZM90.7352 156.554L93.5737 153.945C93.8401 153.702 93.9468 153.408 93.8939 153.062C93.8411 152.716 93.6513 152.467 93.3245 152.314L89.8365 150.672C89.4717 150.492 89.1315 150.527 88.8157 150.778C88.4999 151.028 88.3722 151.351 88.4326 151.747L89.0746 155.948C89.135 156.343 89.3533 156.614 89.7295 156.758C90.1057 156.903 90.4409 156.835 90.7352 156.554Z" fill="#FF8559"/>
<path d="M38.8874 108.863C38.3437 108.946 37.8489 108.824 37.4029 108.496C36.9562 108.168 36.6913 107.732 36.6082 107.188L34.7957 95.3261C34.7127 94.7824 34.8353 94.2875 35.1637 93.8414C35.4914 93.3948 35.927 93.13 36.4707 93.0469L48.333 91.2344C48.8767 91.1513 49.3719 91.2739 49.8186 91.6022C50.2646 91.93 50.5291 92.3657 50.6122 92.9094L51.2919 97.3577L53.9299 93.7681C54.0695 93.5782 54.2445 93.5093 54.4548 93.5615C54.665 93.6136 54.7878 93.755 54.8231 93.9857L56.122 102.487C56.1573 102.718 56.0823 102.889 55.8972 103.002C55.7121 103.114 55.5246 103.101 55.3346 102.961L51.745 100.323L52.4247 104.772C52.5078 105.315 52.3855 105.811 52.0578 106.257C51.7294 106.703 51.2934 106.968 50.7497 107.051L38.8874 108.863ZM38.5853 106.886L50.4476 105.074L48.6351 93.2115L36.7728 95.024L38.5853 106.886Z" fill="#FF8559"/>
<path d="M47.4968 165.209C46.9531 165.292 46.4583 165.17 46.0123 164.842C45.5656 164.514 45.3007 164.078 45.2176 163.534L43.4051 151.672C43.322 151.128 43.4447 150.634 43.7731 150.187C44.1007 149.741 44.5364 149.476 45.0801 149.393L56.9424 147.58C57.4861 147.497 57.9813 147.62 58.428 147.948C58.874 148.276 59.1385 148.712 59.2215 149.255L59.9012 153.704L62.5393 150.114C62.6789 149.924 62.8538 149.855 63.0641 149.907C63.2744 149.96 63.3972 150.101 63.4324 150.332L64.7314 158.833C64.7666 159.064 64.6917 159.235 64.5066 159.348C64.3215 159.46 64.1339 159.447 63.944 159.307L60.3544 156.669L61.0341 161.118C61.1171 161.661 60.9949 162.157 60.6672 162.603C60.3388 163.049 59.9028 163.314 59.3591 163.397L47.4968 165.209ZM47.1947 163.232L59.057 161.42L57.2445 149.557L45.3822 151.37L47.1947 163.232Z" fill="#FF8559"/>
<path d="M113.329 99.5122C112.785 99.5953 112.29 99.473 111.844 99.1452C111.398 98.8169 111.133 98.3809 111.05 97.8373L108.633 82.0208C108.55 81.4771 108.673 80.9819 109.001 80.5352C109.329 80.0893 109.764 79.8248 110.308 79.7417L117.401 78.6579C117.664 78.6177 117.923 78.6287 118.178 78.691C118.431 78.7534 118.663 78.8614 118.872 79.0149L124.398 83.0767C124.607 83.2302 124.78 83.4187 124.915 83.6422C125.05 83.8663 125.138 84.1102 125.178 84.3738L126.866 95.4206C126.949 95.9643 126.827 96.4594 126.499 96.906C126.171 97.3521 125.735 97.6166 125.191 97.6997L113.329 99.5122ZM118.134 84.6155L117.53 80.6614L110.61 81.7187L113.027 97.5352L124.889 95.7227L123.228 84.8489L119.274 85.453C118.994 85.4958 118.744 85.4368 118.526 85.2759C118.308 85.1157 118.177 84.8956 118.134 84.6155Z" fill="#FF8559"/>
<path d="M121.938 155.858C121.395 155.941 120.9 155.819 120.454 155.491C120.007 155.163 119.742 154.727 119.659 154.183L117.243 138.367C117.159 137.823 117.282 137.328 117.61 136.881C117.938 136.435 118.374 136.171 118.917 136.088L126.01 135.004C126.274 134.964 126.533 134.975 126.787 135.037C127.041 135.099 127.272 135.207 127.481 135.361L133.008 139.423C133.217 139.576 133.389 139.765 133.524 139.988C133.66 140.212 133.747 140.456 133.788 140.72L135.476 151.767C135.559 152.31 135.436 152.805 135.109 153.252C134.78 153.698 134.344 153.963 133.801 154.046L121.938 155.858ZM126.743 140.962L126.139 137.007L119.22 138.065L121.636 153.881L133.499 152.069L131.837 141.195L127.883 141.799C127.603 141.842 127.354 141.783 127.136 141.622C126.917 141.462 126.786 141.242 126.743 140.962Z" fill="#FF8559"/>
</g>
</svg>
