<svg width="223" height="150" viewBox="0 0 223 150" fill="none" xmlns="http://www.w3.org/2000/svg">
<path d="M16 0.5H206.617C215.178 0.5 222.117 7.43959 222.117 16V149.5H0.5V16C0.500001 7.43959 7.43959 0.5 16 0.5Z" fill="#F1DBFF" fill-opacity="0.2"/>
<mask id="mask0_23_443" style="mask-type:alpha" maskUnits="userSpaceOnUse" x="0" y="0" width="223" height="150">
<path d="M16 0.5H206.617C215.178 0.5 222.117 7.43959 222.117 16V149.5H0.5V16C0.500001 7.43959 7.43959 0.5 16 0.5Z" fill="#F1DBFF"/>
</mask>
<g mask="url(#mask0_23_443)" opacity="0.7">
<path d="M30.0083 68.7308C30.8979 68.5948 31.7375 69.2119 31.8734 70.1015C32.0523 71.2739 30.9878 72.1071 30.0818 71.9727L27.6408 75.2837C28.0491 76.1151 27.5639 77.3809 26.3912 77.5601C25.2107 77.7402 24.3763 76.6679 24.5188 75.7607L22.1416 74.0128C21.9102 74.1226 21.5545 74.1769 21.3008 74.1413L18.1844 78.3922C18.5833 79.2167 18.106 80.4815 16.9337 80.6608C16.044 80.7968 15.2044 80.1798 15.0685 79.2901C14.8893 78.1174 15.954 77.2843 16.8601 77.4189L19.9855 73.1755C19.5773 72.3441 20.0627 71.0785 21.2351 70.8991C22.416 70.7187 23.2503 71.7911 23.1075 72.6985L25.4855 74.4453C25.717 74.3356 26.0728 74.2812 26.3264 74.3168L28.7575 70.9994C28.3584 70.1749 28.8356 68.91 30.0083 68.7308ZM16.2596 70.8315L17.9384 70.9889L16.3833 71.6405L16.2258 73.3193L15.5743 71.7641L13.8945 71.6068L15.4507 70.9551L15.6079 69.2754L16.2596 70.8315ZM25.554 66.9861L27.3351 67.4835L25.784 68.4911L25.279 70.2812L24.2799 68.7209L22.4823 68.225L24.05 67.2159L24.5375 65.4284L25.554 66.9861Z" fill="#C78DEC"/>
<path fill-rule="evenodd" clip-rule="evenodd" d="M97.0817 53.2865C96.9983 52.7405 97.3733 52.2303 97.9192 52.1469L101.873 51.5427C102.419 51.4593 102.929 51.8343 103.013 52.3802L103.617 56.3343C103.7 56.8803 103.326 57.3905 102.78 57.4739L98.8255 58.0781C98.2795 58.1615 97.7693 57.7865 97.6859 57.2406L97.5593 56.4123C96.7272 56.8493 96.0724 57.6936 95.7465 58.887C95.3414 60.3709 95.4739 62.3577 96.4909 64.5044L97.7547 64.3113C98.3006 64.2279 98.8108 64.6028 98.8942 65.1488L99.4984 69.1029C99.5818 69.6489 99.2069 70.1591 98.6609 70.2425L94.7068 70.8466C94.1609 70.9301 93.6507 70.5551 93.5672 70.0092L93.4101 68.9805C91.2324 69.1274 89.5858 68.5629 88.4093 67.331C87.3402 66.2113 86.7833 64.6582 86.4498 63.0038L85.4392 63.1582C84.8933 63.2417 84.3831 62.8667 84.2996 62.3208L83.6955 58.3666C83.6121 57.8207 83.987 57.3105 84.533 57.2271L88.4871 56.6229C89.033 56.5395 89.5432 56.9144 89.6266 57.4604L90.2308 61.4145C90.3142 61.9604 89.9393 62.4707 89.3933 62.5541L88.4297 62.7013C88.7309 64.1465 89.1746 65.2364 89.8557 65.9497C90.4944 66.6185 91.4638 67.075 93.1068 66.9956L92.9631 66.0551C92.8797 65.5091 93.2546 64.9989 93.8006 64.9155L94.4411 64.8176C93.466 62.4952 93.3067 60.2297 93.8172 58.3601C94.3283 56.4885 95.5353 54.9831 97.2469 54.3672L97.0817 53.2865ZM101.489 55.6479L99.5119 55.95L99.2098 53.9729L101.187 53.6708L101.489 55.6479ZM85.8236 59.0531L86.1257 61.0301L88.1027 60.7281L87.8006 58.751L85.8236 59.0531ZM95.0912 66.7415L95.3933 68.7185L97.3703 68.4165L97.0682 66.4394L95.0912 66.7415Z" fill="#C78DEC"/>
<path d="M57.8443 70.9152L61.5464 67.6688C61.8318 67.4397 61.9455 67.1357 61.8876 66.7568C61.8297 66.3778 61.6304 66.1217 61.2896 65.9883L56.787 63.9955C56.4248 63.8317 56.0845 63.8668 55.7662 64.1009C55.4479 64.335 55.319 64.6497 55.3794 65.0452L56.1875 70.3338C56.2479 70.7292 56.4649 70.9911 56.8386 71.1194C57.2123 71.2478 57.5475 71.1797 57.8443 70.9152ZM51.5549 76.4284C51.0112 76.5115 50.5164 76.3892 50.0704 76.0614C49.6237 75.7331 49.3588 75.2971 49.2757 74.7534L47.4632 62.8911C47.3801 62.3474 47.5028 61.8526 47.8312 61.4065C48.1588 60.9599 48.5945 60.6951 49.1382 60.612L64.9546 58.1953C65.4983 58.1122 65.9935 58.2348 66.4402 58.5631C66.8862 58.8909 67.1507 59.3266 67.2338 59.8703L69.0463 71.7326C69.1293 72.2763 69.0071 72.7714 68.6794 73.218C68.351 73.6641 67.915 73.9287 67.3713 74.0117L51.5549 76.4284ZM51.2528 74.4514L67.0692 72.0347L65.2567 60.1724L49.4403 62.589L51.2528 74.4514Z" fill="#C78DEC"/>
<path d="M161.336 43.4687C161.056 43.5115 160.807 43.4525 160.588 43.2917C160.37 43.1314 160.24 42.9113 160.197 42.6312C160.154 42.3511 160.213 42.1017 160.373 41.883C160.534 41.6649 160.754 41.5344 161.034 41.4916L168.942 40.2833C169.222 40.2405 169.472 40.2992 169.69 40.4595C169.908 40.6203 170.039 40.8407 170.082 41.1208C170.125 41.4009 170.066 41.65 169.905 41.8681C169.745 42.0868 169.525 42.2176 169.244 42.2603L161.336 43.4687ZM158.824 46.8874C158.544 46.9302 158.294 46.8715 158.076 46.7114C157.858 46.5505 157.727 46.33 157.684 46.0499C157.641 45.7698 157.7 45.5204 157.86 45.3017C158.021 45.0836 158.242 44.9531 158.522 44.9103L172.361 42.7957C172.641 42.753 172.89 42.8117 173.108 42.9719C173.327 43.1327 173.458 43.3531 173.501 43.6332C173.543 43.9133 173.484 44.1628 173.324 44.3816C173.163 44.5996 172.943 44.73 172.663 44.7728L158.824 46.8874ZM160.101 61.8663C159.557 61.9494 159.062 61.8271 158.616 61.4994C158.17 61.1711 157.905 60.7351 157.822 60.1914L156.311 50.3061C156.228 49.7624 156.351 49.2672 156.679 48.8205C157.007 48.3746 157.443 48.11 157.986 48.027L173.803 45.6103C174.346 45.5272 174.842 45.6495 175.288 45.9771C175.734 46.3055 175.999 46.7416 176.082 47.2853L177.592 57.1705C177.675 57.7142 177.553 58.2094 177.225 58.656C176.897 59.102 176.461 59.3666 175.917 59.4497L160.101 61.8663ZM159.799 59.8893L175.615 57.4726L174.105 47.5873L158.288 50.004L159.799 59.8893ZM166.956 56.7472L169.795 54.1385C170.061 53.8955 170.168 53.601 170.115 53.255C170.062 52.909 169.872 52.6598 169.546 52.5074L166.058 50.8654C165.693 50.6851 165.353 50.7202 165.037 50.9708C164.721 51.2214 164.593 51.5444 164.654 51.9398L165.296 56.141C165.356 56.5364 165.574 56.8066 165.951 56.9514C166.327 57.0962 166.662 57.0282 166.956 56.7472Z" fill="#C78DEC"/>
<path d="M123.717 65.4024C123.174 65.4854 122.679 65.3631 122.233 65.0354C121.786 64.7071 121.521 64.2711 121.438 63.7274L119.626 51.8651C119.543 51.3214 119.665 50.8265 119.994 50.3804C120.321 49.9338 120.757 49.669 121.301 49.5859L133.163 47.7734C133.707 47.6903 134.202 47.8129 134.649 48.1412C135.095 48.469 135.359 48.9047 135.442 49.4484L136.122 53.8967L138.76 50.3071C138.9 50.1172 139.075 50.0483 139.285 50.1005C139.495 50.1526 139.618 50.294 139.653 50.5247L140.952 59.026C140.987 59.2567 140.912 59.4283 140.727 59.5409C140.542 59.6535 140.355 59.64 140.165 59.5004L136.575 56.8623L137.255 61.3107C137.338 61.8544 137.216 62.3495 136.888 62.7962C136.56 63.2422 136.123 63.5068 135.58 63.5898L123.717 65.4024ZM123.415 63.4253L135.278 61.6128L133.465 49.7505L121.603 51.563L123.415 63.4253Z" fill="#C78DEC"/>
<path d="M198.159 56.0512C197.615 56.1343 197.121 56.012 196.675 55.6842C196.228 55.3559 195.963 54.9199 195.88 54.3763L193.463 38.5598C193.38 38.0161 193.503 37.5209 193.831 37.0742C194.159 36.6283 194.594 36.3638 195.138 36.2807L202.231 35.1969C202.494 35.1567 202.753 35.1677 203.008 35.23C203.261 35.2924 203.493 35.4004 203.702 35.5539L209.229 39.6157C209.437 39.7692 209.61 39.9577 209.745 40.1812C209.88 40.4053 209.968 40.6492 210.008 40.9128L211.696 51.9596C211.779 52.5033 211.657 52.9984 211.329 53.445C211.001 53.8911 210.565 54.1556 210.021 54.2387L198.159 56.0512ZM202.964 41.1545L202.36 37.2004L195.44 38.2577L197.857 54.0742L209.719 52.2617L208.058 41.3879L204.104 41.992C203.824 42.0348 203.575 41.9758 203.356 41.8149C203.138 41.6547 203.007 41.4346 202.964 41.1545Z" fill="#C78DEC"/>
<path d="M21.248 11.3963C22.1377 11.2603 22.9772 11.8773 23.1132 12.767C23.2921 13.9394 22.2276 14.7726 21.3215 14.6382L18.8806 17.9491C19.2889 18.7806 18.8036 20.0463 17.6309 20.2255C16.4504 20.4057 15.6161 19.3334 15.7586 18.4262L13.3814 16.6783C13.1499 16.7881 12.7943 16.8424 12.5405 16.8067L9.4242 21.0576C9.82302 21.8822 9.34579 23.147 8.17341 23.3263C7.28375 23.4622 6.44419 22.8452 6.30825 21.9556C6.12907 20.7829 7.19372 19.9497 8.09989 20.0844L11.2253 15.841C10.817 15.0096 11.3025 13.744 12.4749 13.5646C13.6557 13.3842 14.49 14.4566 14.3473 15.364L16.7253 17.1108C16.9568 17.001 17.3125 16.9466 17.5661 16.9823L19.9972 13.6649C19.5981 12.8403 20.0754 11.5755 21.248 11.3963ZM7.49939 13.497L9.17817 13.6544L7.623 14.306L7.46558 15.9847L6.81403 14.4296L5.13428 14.2723L6.69042 13.6206L6.84769 11.9408L7.49939 13.497ZM16.7938 9.65156L18.5749 10.149L17.0237 11.1566L16.5188 12.9467L15.5197 11.3864L13.722 10.8905L15.2897 9.88137L15.7773 8.09386L16.7938 9.65156Z" fill="#C78DEC"/>
<path fill-rule="evenodd" clip-rule="evenodd" d="M88.3215 -4.04813C88.2381 -4.59407 88.613 -5.10428 89.159 -5.1877L93.1131 -5.79187C93.659 -5.87528 94.1692 -5.50033 94.2526 -4.95438L94.8568 -1.00027C94.9402 -0.454323 94.5653 0.05588 94.0193 0.139298L90.0652 0.743468C89.5193 0.826887 89.0091 0.451932 88.9256 -0.0940165L88.7991 -0.922291C87.9669 -0.48529 87.3121 0.359033 86.9863 1.55236C86.5811 3.03626 86.7136 5.02315 87.7307 7.16981L88.9944 6.97672C89.5404 6.8933 90.0506 7.26825 90.134 7.8142L90.7382 11.7683C90.8216 12.3143 90.4466 12.8245 89.9007 12.9079L85.9466 13.5121C85.4006 13.5955 84.8904 13.2205 84.807 12.6746L84.6498 11.6459C82.4721 11.7928 80.8255 11.2283 79.6491 9.99637C78.5799 8.87674 78.0231 7.32362 77.6895 5.66924L76.679 5.82365C76.133 5.90706 75.6228 5.53211 75.5394 4.98616L74.9352 1.03205C74.8518 0.486103 75.2268 -0.0241002 75.7727 -0.107519L79.7268 -0.711689C80.2728 -0.795107 80.783 -0.420152 80.8664 0.125796L81.4706 4.07991C81.554 4.62585 81.179 5.13606 80.6331 5.21948L79.6695 5.36671C79.9706 6.81191 80.4143 7.9018 81.0955 8.61512C81.7341 9.2839 82.7035 9.74043 84.3465 9.66102L84.2028 8.72046C84.1194 8.17451 84.4944 7.66431 85.0403 7.58089L85.6808 7.48302C84.7057 5.16063 84.5464 2.89506 85.0569 1.02553C85.568 -0.8461 86.7751 -2.35151 88.4866 -2.96737L88.3215 -4.04813ZM92.7287 -1.68671L90.7517 -1.38463L90.4496 -3.36168L92.4266 -3.66377L92.7287 -1.68671ZM77.0633 1.71849L77.3654 3.69555L79.3425 3.39346L79.0404 1.41641L77.0633 1.71849ZM86.3309 9.4069L86.633 11.384L88.6101 11.0819L88.308 9.10481L86.3309 9.4069Z" fill="#C78DEC"/>
<path d="M49.084 13.5807L52.7862 10.3342C53.0715 10.1052 53.1852 9.80118 53.1273 9.42224C53.0694 9.04331 52.8701 8.78714 52.5294 8.65374L48.0267 6.66097C47.6645 6.49713 47.3242 6.53226 47.0059 6.76636C46.6877 7.00045 46.5587 7.31521 46.6191 7.71062L47.4272 12.9992C47.4876 13.3946 47.7047 13.6565 48.0784 13.7849C48.452 13.9133 48.7873 13.8452 49.084 13.5807ZM42.7946 19.0939C42.2509 19.177 41.7561 19.0546 41.3102 18.7269C40.8634 18.3986 40.5985 17.9626 40.5155 17.4189L38.703 5.55658C38.6199 5.01289 38.7426 4.51802 39.0709 4.07197C39.3986 3.62536 39.8342 3.36052 40.3779 3.27744L56.1944 0.860764C56.7381 0.777691 57.2333 0.900301 57.68 1.22859C58.1259 1.55633 58.3904 1.99204 58.4735 2.53573L60.286 14.3981C60.3691 14.9418 60.2468 15.4369 59.9192 15.8835C59.5908 16.3296 59.1547 16.5941 58.6111 16.6772L42.7946 19.0939ZM42.4925 17.1168L58.309 14.7001L56.4965 2.83782L40.68 5.2545L42.4925 17.1168Z" fill="#C78DEC"/>
<path d="M152.576 -13.8659C152.295 -13.8231 152.046 -13.8821 151.827 -14.0429C151.609 -14.2031 151.479 -14.4233 151.436 -14.7034C151.393 -14.9835 151.452 -15.2329 151.612 -15.4516C151.773 -15.6697 151.993 -15.8002 152.273 -15.843L160.182 -17.0513C160.462 -17.0941 160.711 -17.0354 160.929 -16.8751C161.148 -16.7143 161.278 -16.4939 161.321 -16.2138C161.364 -15.9337 161.305 -15.6846 161.144 -15.4665C160.984 -15.2478 160.764 -15.117 160.484 -15.0742L152.576 -13.8659ZM150.063 -10.4472C149.783 -10.4044 149.534 -10.4631 149.315 -10.6232C149.097 -10.7841 148.966 -11.0046 148.924 -11.2847C148.881 -11.5648 148.939 -11.8142 149.1 -12.0329C149.26 -12.251 149.481 -12.3815 149.761 -12.4243L163.6 -14.5388C163.88 -14.5816 164.13 -14.5229 164.348 -14.3627C164.566 -14.2019 164.697 -13.9814 164.74 -13.7014C164.783 -13.4213 164.724 -13.1718 164.563 -12.953C164.403 -12.735 164.183 -12.6046 163.902 -12.5618L150.063 -10.4472ZM151.34 4.53175C150.796 4.61483 150.302 4.4925 149.856 4.16476C149.409 3.83647 149.144 3.40047 149.061 2.85678L147.551 -7.02849C147.468 -7.57218 147.59 -8.06738 147.918 -8.51409C148.246 -8.96004 148.682 -9.22455 149.226 -9.30763L165.042 -11.7243C165.586 -11.8074 166.081 -11.6851 166.527 -11.3575C166.974 -11.0291 167.238 -10.593 167.321 -10.0493L168.832 -0.164065C168.915 0.379624 168.792 0.874775 168.465 1.32139C168.136 1.76744 167.7 2.032 167.157 2.11507L151.34 4.53175ZM151.038 2.5547L166.855 0.13802L165.344 -9.74725L149.528 -7.33057L151.038 2.5547ZM158.196 -0.587438L161.034 -3.19611C161.301 -3.43913 161.407 -3.73363 161.354 -4.07961C161.302 -4.4256 161.112 -4.67479 160.785 -4.82718L157.297 -6.46918C156.932 -6.64949 156.592 -6.61435 156.276 -6.36378C155.96 -6.11321 155.833 -5.79022 155.893 -5.39481L156.535 -1.19357C156.595 -0.798161 156.814 -0.528034 157.19 -0.383194C157.566 -0.238353 157.901 -0.306434 158.196 -0.587438Z" fill="#C78DEC"/>
<path d="M114.957 8.06776C114.413 8.15083 113.918 8.0285 113.472 7.70076C113.026 7.37247 112.761 6.93648 112.678 6.39279L110.865 -5.46954C110.782 -6.01323 110.905 -6.5081 111.233 -6.95415C111.561 -7.40076 111.996 -7.66561 112.54 -7.74868L124.402 -9.56119C124.946 -9.64426 125.441 -9.52165 125.888 -9.19336C126.334 -8.86562 126.598 -8.42991 126.682 -7.88622L127.361 -3.43785L129.999 -7.02749C130.139 -7.21742 130.314 -7.2863 130.524 -7.23413C130.734 -7.18196 130.857 -7.04055 130.892 -6.80989L132.191 1.69144C132.227 1.9221 132.152 2.09372 131.967 2.2063C131.781 2.31889 131.594 2.30539 131.404 2.16581L127.814 -0.472265L128.494 3.97611C128.577 4.5198 128.455 5.01495 128.127 5.46156C127.799 5.90761 127.363 6.17217 126.819 6.25525L114.957 8.06776ZM114.655 6.0907L126.517 4.27819L124.704 -7.58413L112.842 -5.77162L114.655 6.0907Z" fill="#C78DEC"/>
<path d="M188.012 16.1258L189.371 25.0225L175.512 27.1401L173.398 13.3007L182.294 11.9413L181.992 9.9643L173.115 11.3207C172.028 11.4868 171.274 12.5124 171.44 13.5998L173.555 27.4392C173.721 28.5266 174.747 29.2803 175.834 29.1141L189.673 26.9996C190.761 26.8334 191.515 25.8078 191.348 24.7204L189.989 15.8237L188.012 16.1258ZM186.015 16.4309L186.633 14.2525L188.528 13.0121L186.349 12.3941L185.109 10.4997L184.491 12.678L182.596 13.9184L184.775 14.5365L186.015 16.4309ZM182.421 17.7387L180.77 15.209L179.95 18.1163L177.42 19.7673L180.328 20.5876L181.979 23.1172L182.799 20.21L185.329 18.559L182.421 17.7387Z" fill="#C78DEC"/>
<path d="M213.612 11.5314L214.42 16.82C214.481 17.2155 214.698 17.4773 215.071 17.6057C215.445 17.7341 215.78 17.666 216.077 17.4015L219.779 14.155C220.065 13.926 220.178 13.622 220.12 13.243C220.062 12.8641 219.863 12.6079 219.522 12.4745L215.02 10.4818C214.658 10.3179 214.317 10.3531 213.999 10.5872C213.681 10.8213 213.552 11.136 213.612 11.5314ZM217.998 23.6834C216.63 23.8923 215.306 23.829 214.024 23.4935C212.742 23.1586 211.588 22.6143 210.562 21.8606C209.537 21.1068 208.673 20.1682 207.97 19.0448C207.267 17.9214 206.811 16.676 206.602 15.3086C206.393 13.9411 206.457 12.6163 206.792 11.3343C207.127 10.0523 207.671 8.89853 208.425 7.87292C209.179 6.84731 210.117 5.98297 211.241 5.27989C212.364 4.57747 213.61 4.1218 214.977 3.91285C216.345 3.70391 217.669 3.76688 218.951 4.10176C220.233 4.4373 221.387 4.98193 222.413 5.73567C223.438 6.48941 224.302 7.42801 225.005 8.55147C225.708 9.67483 226.164 10.9202 226.373 12.2877C226.582 13.6552 226.518 14.9799 226.183 16.262C225.848 17.5439 225.304 18.6977 224.55 19.7233C223.796 20.7489 222.858 21.613 221.734 22.3154C220.611 23.0184 219.365 23.4745 217.998 23.6834ZM217.696 21.7063C219.887 21.3715 221.635 20.3164 222.941 18.5408C224.246 16.7647 224.731 14.781 224.396 12.5898C224.061 10.3986 223.006 8.6502 221.23 7.34474C219.454 6.04004 217.47 5.5551 215.279 5.88991C213.088 6.22472 211.34 7.27985 210.035 9.0553C208.73 10.8315 208.244 12.8152 208.579 15.0065C208.914 17.1977 209.97 18.946 211.746 20.2514C213.521 21.5562 215.505 22.0412 217.696 21.7063Z" fill="#C78DEC"/>
<path d="M138.613 33.7897C138.07 33.8728 137.575 33.7505 137.129 33.4227C136.682 33.0945 136.417 32.6585 136.334 32.1148L134.522 20.2524C134.439 19.7088 134.561 19.2139 134.89 18.7678C135.217 18.3212 135.653 18.0564 136.197 17.9733L141.312 17.1917C141.576 17.1514 141.835 17.1624 142.089 17.2247C142.343 17.2871 142.574 17.3951 142.783 17.5486L144.407 18.742L152.315 17.5337C152.859 17.4506 153.354 17.5732 153.801 17.9015C154.247 18.2292 154.511 18.665 154.594 19.2086L156.105 29.0939C156.188 29.6376 156.066 30.1328 155.738 30.5794C155.41 31.0254 154.974 31.29 154.43 31.3731L138.613 33.7897ZM136.499 19.9504L138.311 31.8127L154.128 29.396L152.617 19.5107L143.894 20.8437L141.614 19.1687L136.499 19.9504Z" fill="#C78DEC"/>
<path fill-rule="evenodd" clip-rule="evenodd" d="M-5.86407 -17.982C-5.94749 -18.528 -5.57253 -19.0382 -5.02658 -19.1216L-1.07247 -19.7258C-0.526525 -19.8092 -0.0163222 -19.4342 0.0670963 -18.8883L0.671266 -14.9342C0.754685 -14.3882 0.379729 -13.878 -0.166219 -13.7946L-4.12033 -13.1904C-4.66628 -13.107 -5.17648 -13.482 -5.2599 -14.0279L-5.38645 -14.8562C-6.21862 -14.4192 -6.8734 -13.5749 -7.19925 -12.3815C-7.60445 -10.8976 -7.47193 -8.91075 -6.45486 -6.76409L-5.19113 -6.95718C-4.64518 -7.0406 -4.13498 -6.66565 -4.05156 -6.1197L-3.44739 -2.16559C-3.36397 -1.61964 -3.73892 -1.10944 -4.28487 -1.02602L-8.23898 -0.421848C-8.78493 -0.33843 -9.29513 -0.713385 -9.37855 -1.25933L-9.53572 -2.28796C-11.7134 -2.14114 -13.36 -2.70555 -14.5365 -3.93753C-15.6056 -5.05715 -16.1625 -6.61028 -16.496 -8.26466L-17.5066 -8.11025C-18.0525 -8.02684 -18.5627 -8.40179 -18.6462 -8.94774L-19.2503 -12.9018C-19.3337 -13.4478 -18.9588 -13.958 -18.4128 -14.0414L-14.4587 -14.6456C-13.9128 -14.729 -13.4026 -14.3541 -13.3192 -13.8081L-12.715 -9.85399C-12.6316 -9.30805 -13.0065 -8.79784 -13.5525 -8.71442L-14.5161 -8.56719C-14.2149 -7.12199 -13.7712 -6.0321 -13.0901 -5.31877C-12.4514 -4.65 -11.482 -4.19347 -9.83901 -4.27288L-9.98272 -5.21344C-10.0661 -5.75939 -9.69118 -6.26959 -9.14524 -6.35301L-8.50473 -6.45088C-9.47985 -8.77327 -9.63911 -11.0388 -9.12862 -12.9084C-8.61755 -14.78 -7.41046 -16.2854 -5.69893 -16.9013L-5.86407 -17.982ZM-1.45683 -15.6206L-3.43389 -15.3185L-3.73597 -17.2956L-1.75892 -17.5977L-1.45683 -15.6206ZM-17.1222 -12.2154L-16.8201 -10.2384L-14.8431 -10.5404L-15.1452 -12.5175L-17.1222 -12.2154ZM-7.85462 -4.527L-7.55254 -2.54995L-5.57548 -2.85203L-5.87757 -4.82908L-7.85462 -4.527Z" fill="#C78DEC"/>
<path fill-rule="evenodd" clip-rule="evenodd" d="M2.7458 38.364C2.66238 37.8181 3.03733 37.3079 3.58328 37.2245L7.53739 36.6203C8.08334 36.5369 8.59354 36.9118 8.67696 37.4578L9.28113 41.4119C9.36455 41.9578 8.98959 42.4681 8.44364 42.5515L4.48954 43.1556C3.94359 43.2391 3.43338 42.8641 3.34997 42.3182L3.22341 41.4899C2.39125 41.9269 1.73646 42.7712 1.41061 43.9645C1.00541 45.4484 1.13794 47.4353 2.155 49.582L3.41874 49.3889C3.96468 49.3055 4.47489 49.6804 4.55831 50.2264L5.16248 54.1805C5.24589 54.7264 4.87094 55.2366 4.32499 55.3201L0.370882 55.9242C-0.175066 56.0076 -0.68527 55.6327 -0.768688 55.0867L-0.925858 54.0581C-3.10357 54.2049 -4.75017 53.6405 -5.92662 52.4085C-6.99579 51.2889 -7.55263 49.7358 -7.88618 48.0814L-8.89672 48.2358C-9.44267 48.3192 -9.95287 47.9443 -10.0363 47.3983L-10.6405 43.4442C-10.7239 42.8983 -10.3489 42.3881 -9.80297 42.3047L-5.84886 41.7005C-5.30292 41.6171 -4.79271 41.992 -4.7093 42.538L-4.10513 46.4921C-4.02171 47.038 -4.39666 47.5482 -4.94261 47.6316L-5.90621 47.7789C-5.60505 49.2241 -5.16136 50.314 -4.48019 51.0273C-3.84155 51.6961 -2.87219 52.1526 -1.22914 52.0732L-1.37286 51.1326C-1.45628 50.5867 -1.08132 50.0765 -0.535373 49.9931L0.105133 49.8952C-0.869983 47.5728 -1.02925 45.3072 -0.518754 43.4377C-0.00768254 41.5661 1.1994 40.0607 2.91093 39.4448L2.7458 38.364ZM7.15303 40.7255L5.17598 41.0275L4.87389 39.0505L6.85095 38.7484L7.15303 40.7255ZM-8.51236 44.1307L-8.21028 46.1077L-6.23322 45.8056L-6.53531 43.8286L-8.51236 44.1307ZM0.755239 51.8191L1.05732 53.7961L3.03438 53.494L2.73229 51.517L0.755239 51.8191Z" fill="#C78DEC"/>
<path d="M66.9999 28.5463C66.7198 28.5891 66.4703 28.5301 66.2515 28.3693C66.0335 28.209 65.9031 27.9889 65.8603 27.7088C65.8175 27.4287 65.8762 27.1793 66.0363 26.9606C66.1972 26.7425 66.4177 26.612 66.6978 26.5692L74.606 25.3609C74.8861 25.3181 75.1351 25.3768 75.3532 25.537C75.572 25.6978 75.7028 25.9183 75.7456 26.1984C75.7883 26.4784 75.7293 26.7275 75.5684 26.9457C75.4083 27.1644 75.1882 27.2951 74.9081 27.3379L66.9999 28.5463ZM64.4874 31.965C64.2073 32.0078 63.9579 31.9491 63.7392 31.789C63.5211 31.6281 63.3906 31.4076 63.3478 31.1275C63.305 30.8474 63.3637 30.598 63.5238 30.3793C63.6847 30.1612 63.9052 30.0307 64.1853 29.9879L78.0247 27.8733C78.3048 27.8305 78.5538 27.8893 78.7719 28.0495C78.9907 28.2103 79.1215 28.4307 79.1643 28.7108C79.2071 28.9909 79.1481 29.2403 78.9873 29.4591C78.827 29.6772 78.6069 29.8076 78.3268 29.8504L64.4874 31.965ZM65.7645 46.9439C65.2208 47.027 64.726 46.9047 64.28 46.5769C63.8333 46.2486 63.5684 45.8126 63.4854 45.269L61.9749 35.3837C61.8919 34.84 62.0145 34.3448 62.3428 33.8981C62.6705 33.4521 63.1062 33.1876 63.6499 33.1045L79.4663 30.6879C80.01 30.6048 80.5052 30.7271 80.9518 31.0547C81.3979 31.3831 81.6624 31.8191 81.7455 32.3628L83.2559 42.2481C83.339 42.7918 83.2167 43.2869 82.8891 43.7336C82.5607 44.1796 82.1246 44.4442 81.5809 44.5272L65.7645 46.9439ZM65.4624 44.9669L81.2789 42.5502L79.7684 32.6649L63.952 35.0816L65.4624 44.9669ZM72.6199 41.8247L75.4585 39.2161C75.7248 38.973 75.8316 38.6785 75.7787 38.3326C75.7258 37.9866 75.536 37.7374 75.2093 37.585L71.7212 35.943C71.3565 35.7627 71.0162 35.7978 70.7004 36.0484C70.3847 36.299 70.257 36.6219 70.3174 37.0174L70.9593 41.2186C71.0198 41.614 71.2381 41.8841 71.6143 42.029C71.9904 42.1738 72.3257 42.1057 72.6199 41.8247Z" fill="#C78DEC"/>
<path d="M29.381 50.4799C28.8373 50.563 28.3425 50.4407 27.8966 50.1129C27.4499 49.7846 27.185 49.3486 27.1019 48.805L25.2894 36.9426C25.2063 36.3989 25.329 35.9041 25.6574 35.458C25.985 35.0114 26.4207 34.7466 26.9644 34.6635L38.8267 32.851C39.3704 32.7679 39.8656 32.8905 40.3123 33.2188C40.7582 33.5465 41.0228 33.9823 41.1058 34.526L41.7855 38.9743L44.4236 35.3847C44.5632 35.1948 44.7381 35.1259 44.9484 35.178C45.1587 35.2302 45.2815 35.3716 45.3167 35.6023L46.6157 44.1036C46.6509 44.3343 46.576 44.5059 46.3909 44.6185C46.2057 44.7311 46.0182 44.7176 45.8283 44.578L42.2386 41.9399L42.9183 46.3883C43.0014 46.932 42.8791 47.4271 42.5515 47.8737C42.2231 48.3198 41.7871 48.5843 41.2434 48.6674L29.381 50.4799ZM29.079 48.5029L40.9413 46.6904L39.1288 34.828L27.2664 36.6405L29.079 48.5029Z" fill="#C78DEC"/>
<path d="M103.823 41.1288C103.279 41.2119 102.784 41.0895 102.338 40.7618C101.891 40.4335 101.627 39.9975 101.543 39.4538L99.1268 23.6374C99.0437 23.0937 99.1663 22.5985 99.4946 22.1518C99.8224 21.7058 100.258 21.4413 100.802 21.3583L107.894 20.2745C108.158 20.2342 108.417 20.2453 108.671 20.3076C108.925 20.37 109.156 20.4779 109.365 20.6315L114.892 24.6933C115.101 24.8468 115.273 25.0353 115.408 25.2588C115.544 25.4829 115.632 25.7268 115.672 25.9904L117.36 37.0372C117.443 37.5808 117.321 38.076 116.993 38.5226C116.665 38.9687 116.229 39.2332 115.685 39.3163L103.823 41.1288ZM108.628 26.2321L108.024 22.278L101.104 23.3353L103.521 39.1517L115.383 37.3392L113.721 26.4654L109.767 27.0696C109.487 27.1124 109.238 27.0533 109.02 26.8925C108.801 26.7323 108.671 26.5122 108.628 26.2321Z" fill="#C78DEC"/>
<path d="M215.529 169.732C214.985 169.815 214.49 169.693 214.044 169.365C213.597 169.037 213.333 168.601 213.25 168.057L210.833 152.24C210.75 151.697 210.872 151.202 211.201 150.755C211.528 150.309 211.964 150.044 212.508 149.961L219.6 148.878C219.864 148.837 220.123 148.848 220.377 148.911C220.631 148.973 220.862 149.081 221.071 149.234L226.598 153.296C226.807 153.45 226.979 153.638 227.115 153.862C227.25 154.086 227.338 154.33 227.378 154.593L229.066 165.64C229.149 166.184 229.027 166.679 228.699 167.126C228.371 167.572 227.935 167.836 227.391 167.919L215.529 169.732ZM220.334 154.835L219.73 150.881L212.81 151.938L215.227 167.755L227.089 165.942L225.427 155.068L221.473 155.673C221.193 155.715 220.944 155.656 220.726 155.495C220.507 155.335 220.377 155.115 220.334 154.835Z" fill="#C78DEC"/>
<path d="M38.6177 125.077C39.5073 124.941 40.3469 125.558 40.4828 126.448C40.6617 127.62 39.5972 128.453 38.6912 128.319L36.2502 131.63C36.6585 132.461 36.1732 133.727 35.0006 133.906C33.8201 134.086 32.9857 133.014 33.1282 132.107L30.751 130.359C30.5195 130.469 30.1639 130.523 29.9102 130.487L26.7938 134.738C27.1926 135.563 26.7154 136.828 25.543 137.007C24.6534 137.143 23.8138 136.526 23.6779 135.636C23.4987 134.463 24.5634 133.63 25.4695 133.765L28.5949 129.522C28.1866 128.69 28.6721 127.425 29.8445 127.245C31.0253 127.065 31.8596 128.137 31.7169 129.045L34.0949 130.791C34.3264 130.682 34.6821 130.627 34.9357 130.663L37.3669 127.346C36.9678 126.521 37.445 125.256 38.6177 125.077ZM24.869 127.178L26.5478 127.335L24.9926 127.987L24.8352 129.665L24.1837 128.11L22.5039 127.953L24.06 127.301L24.2173 125.621L24.869 127.178ZM34.1634 123.332L35.9445 123.83L34.3933 124.837L33.8884 126.627L32.8893 125.067L31.0916 124.571L32.6594 123.562L33.1469 121.774L34.1634 123.332Z" fill="#C78DEC"/>
<path fill-rule="evenodd" clip-rule="evenodd" d="M105.691 109.632C105.608 109.087 105.983 108.576 106.529 108.493L110.483 107.889C111.029 107.805 111.539 108.18 111.622 108.726L112.226 112.68C112.31 113.226 111.935 113.736 111.389 113.82L107.435 114.424C106.889 114.507 106.379 114.133 106.295 113.587L106.169 112.758C105.337 113.195 104.682 114.04 104.356 115.233C103.951 116.717 104.083 118.704 105.1 120.85L106.364 120.657C106.91 120.574 107.42 120.949 107.504 121.495L108.108 125.449C108.191 125.995 107.816 126.505 107.27 126.588L103.316 127.193C102.77 127.276 102.26 126.901 102.177 126.355L102.019 125.327C99.8417 125.473 98.1951 124.909 97.0187 123.677C95.9495 122.557 95.3927 121.004 95.0591 119.35L94.0486 119.504C93.5026 119.588 92.9924 119.213 92.909 118.667L92.3049 114.713C92.2214 114.167 92.5964 113.657 93.1423 113.573L97.0964 112.969C97.6424 112.885 98.1526 113.26 98.236 113.806L98.8402 117.761C98.9236 118.306 98.5487 118.817 98.0027 118.9L97.0391 119.047C97.3403 120.493 97.784 121.582 98.4651 122.296C99.1038 122.965 100.073 123.421 101.716 123.342L101.572 122.401C101.489 121.855 101.864 121.345 102.41 121.261L103.05 121.164C102.075 118.841 101.916 116.576 102.427 114.706C102.938 112.835 104.145 111.329 105.856 110.713L105.691 109.632ZM110.098 111.994L108.121 112.296L107.819 110.319L109.796 110.017L110.098 111.994ZM94.433 115.399L94.735 117.376L96.7121 117.074L96.41 115.097L94.433 115.399ZM103.701 123.088L104.003 125.065L105.98 124.762L105.678 122.785L103.701 123.088Z" fill="#C78DEC"/>
<path d="M66.4537 127.261L70.1558 124.015C70.4411 123.786 70.5549 123.482 70.497 123.103C70.4391 122.724 70.2397 122.468 69.899 122.334L65.3964 120.342C65.0341 120.178 64.6939 120.213 64.3756 120.447C64.0573 120.681 63.9283 120.996 63.9888 121.391L64.7968 126.68C64.8573 127.075 65.0743 127.337 65.448 127.466C65.8217 127.594 66.1569 127.526 66.4537 127.261ZM60.1642 132.774C59.6206 132.858 59.1257 132.735 58.6798 132.407C58.2331 132.079 57.9682 131.643 57.8851 131.1L56.0726 119.237C55.9895 118.693 56.1122 118.199 56.4406 117.753C56.7682 117.306 57.2039 117.041 57.7476 116.958L73.564 114.541C74.1077 114.458 74.6029 114.581 75.0496 114.909C75.4956 115.237 75.7601 115.673 75.8431 116.216L77.6556 128.079C77.7387 128.622 77.6164 129.118 77.2888 129.564C76.9604 130.01 76.5244 130.275 75.9807 130.358L60.1642 132.774ZM59.8622 130.797L75.6786 128.381L73.8661 116.518L58.0496 118.935L59.8622 130.797Z" fill="#C78DEC"/>
<path d="M169.946 99.8148C169.666 99.8576 169.416 99.7986 169.197 99.6378C168.979 99.4775 168.849 99.2574 168.806 98.9773C168.763 98.6972 168.822 98.4478 168.982 98.2291C169.143 98.011 169.363 97.8805 169.644 97.8377L177.552 96.6294C177.832 96.5866 178.081 96.6453 178.299 96.8055C178.518 96.9663 178.649 97.1868 178.691 97.4668C178.734 97.7469 178.675 97.996 178.514 98.2142C178.354 98.4329 178.134 98.5636 177.854 98.6064L169.946 99.8148ZM167.433 103.233C167.153 103.276 166.904 103.218 166.685 103.057C166.467 102.897 166.336 102.676 166.294 102.396C166.251 102.116 166.31 101.867 166.47 101.648C166.631 101.43 166.851 101.299 167.131 101.256L180.97 99.1418C181.251 99.099 181.5 99.1577 181.718 99.318C181.936 99.4788 182.067 99.6992 182.11 99.9793C182.153 100.259 182.094 100.509 181.933 100.728C181.773 100.946 181.553 101.076 181.273 101.119L167.433 103.233ZM168.71 118.212C168.167 118.295 167.672 118.173 167.226 117.845C166.779 117.517 166.514 117.081 166.431 116.537L164.921 106.652C164.838 106.108 164.96 105.613 165.289 105.167C165.616 104.721 166.052 104.456 166.596 104.373L182.412 101.956C182.956 101.873 183.451 101.996 183.898 102.323C184.344 102.652 184.608 103.088 184.691 103.631L186.202 113.517C186.285 114.06 186.163 114.555 185.835 115.002C185.506 115.448 185.07 115.713 184.527 115.796L168.71 118.212ZM168.408 116.235L184.225 113.819L182.714 103.933L166.898 106.35L168.408 116.235ZM175.566 113.093L178.404 110.485C178.671 110.242 178.777 109.947 178.725 109.601C178.672 109.255 178.482 109.006 178.155 108.853L174.667 107.211C174.302 107.031 173.962 107.066 173.646 107.317C173.33 107.567 173.203 107.89 173.263 108.286L173.905 112.487C173.966 112.883 174.184 113.153 174.56 113.297C174.936 113.442 175.271 113.374 175.566 113.093Z" fill="#C78DEC"/>
<path d="M-6.19646 132.115L-5.38838 137.404C-5.32796 137.799 -5.11092 138.061 -4.73724 138.19C-4.36356 138.318 -4.02833 138.25 -3.73155 137.985L-0.0294256 134.739C0.255917 134.51 0.369639 134.206 0.311739 133.827C0.253839 133.448 0.0545267 133.192 -0.286198 133.058L-4.78885 131.066C-5.15108 130.902 -5.49135 130.937 -5.80964 131.171C-6.12793 131.405 -6.25687 131.72 -6.19646 132.115ZM-1.81067 144.267C-3.17814 144.476 -4.5029 144.413 -5.78495 144.077C-7.06691 143.742 -8.22069 143.198 -9.2463 142.444C-10.2719 141.691 -11.1359 140.752 -11.8383 139.629C-12.5414 138.505 -12.9974 137.26 -13.2064 135.892C-13.4153 134.525 -13.352 133.2 -13.0165 131.918C-12.6816 130.636 -12.1373 129.482 -11.3836 128.457C-10.6298 127.431 -9.69127 126.567 -8.56791 125.864C-7.44445 125.161 -6.19899 124.706 -4.83152 124.497C-3.46406 124.288 -2.13935 124.351 -0.857397 124.686C0.424659 125.021 1.57849 125.566 2.60411 126.319C3.62972 127.073 4.49373 128.012 5.19615 129.135C5.89922 130.259 6.35523 131.504 6.56417 132.872C6.77312 134.239 6.70982 135.564 6.37428 136.846C6.0394 138.128 5.49509 139.282 4.74136 140.307C3.98762 141.333 3.04902 142.197 1.92556 142.899C0.802199 143.602 -0.443211 144.058 -1.81067 144.267ZM-2.11276 142.29C0.078477 141.955 1.82683 140.9 3.13228 139.125C4.43699 137.348 4.92193 135.365 4.58712 133.174C4.25231 130.982 3.19713 129.234 1.42158 127.929C-0.354531 126.624 -2.3382 126.139 -4.52944 126.474C-6.72067 126.809 -8.46869 127.864 -9.77349 129.639C-11.0789 131.415 -11.5641 133.399 -11.2293 135.59C-10.8945 137.782 -9.839 139.53 -8.06279 140.835C-6.28734 142.14 -4.30399 142.625 -2.11276 142.29Z" fill="#C78DEC"/>
<path d="M132.327 121.748C131.783 121.831 131.288 121.709 130.842 121.381C130.396 121.053 130.131 120.617 130.048 120.073L128.235 108.211C128.152 107.667 128.275 107.173 128.603 106.727C128.931 106.28 129.366 106.015 129.91 105.932L141.772 104.119C142.316 104.036 142.811 104.159 143.258 104.487C143.704 104.815 143.969 105.251 144.052 105.794L144.731 110.243L147.369 106.653C147.509 106.463 147.684 106.394 147.894 106.447C148.104 106.499 148.227 106.64 148.263 106.871L149.561 115.372C149.597 115.603 149.522 115.774 149.337 115.887C149.152 116 148.964 115.986 148.774 115.846L145.184 113.208L145.864 117.657C145.947 118.2 145.825 118.696 145.497 119.142C145.169 119.588 144.733 119.853 144.189 119.936L132.327 121.748ZM132.025 119.771L143.887 117.959L142.075 106.097L130.212 107.909L132.025 119.771Z" fill="#C78DEC"/>
<path d="M206.768 112.397C206.225 112.48 205.73 112.358 205.284 112.03C204.837 111.702 204.572 111.266 204.489 110.722L202.073 94.9059C201.99 94.3622 202.112 93.867 202.44 93.4203C202.768 92.9743 203.204 92.7098 203.748 92.6267L210.84 91.543C211.104 91.5027 211.363 91.5138 211.617 91.5761C211.871 91.6385 212.102 91.7464 212.311 91.9L217.838 95.9618C218.047 96.1153 218.219 96.3038 218.354 96.5273C218.49 96.7514 218.578 96.9952 218.618 97.2589L220.306 108.306C220.389 108.849 220.267 109.344 219.939 109.791C219.61 110.237 219.174 110.502 218.631 110.585L206.768 112.397ZM211.574 97.5006L210.969 93.5465L204.05 94.6038L206.466 110.42L218.329 108.608L216.667 97.7339L212.713 98.3381C212.433 98.3809 212.184 98.3218 211.966 98.1609C211.747 98.0008 211.616 97.7807 211.574 97.5006Z" fill="#C78DEC"/>
<path d="M196.773 73.4603L198.132 82.3571L184.273 84.4747L182.158 70.6353L191.055 69.2759L190.753 67.2989L181.876 68.6553C180.789 68.8214 180.035 69.847 180.201 70.9344L182.316 84.7738C182.482 85.8612 183.507 86.6149 184.595 86.4487L198.434 84.3341C199.522 84.168 200.275 83.1424 200.109 82.055L198.75 73.1583L196.773 73.4603ZM194.776 73.7655L195.394 71.5871L197.288 70.3467L195.11 69.7287L193.87 67.8343L193.252 70.0126L191.357 71.253L193.535 71.8711L194.776 73.7655ZM191.182 75.0733L189.531 72.5436L188.711 75.4509L186.181 77.1019L189.088 77.9222L190.739 80.4518L191.56 77.5446L194.089 75.8936L191.182 75.0733Z" fill="#C78DEC"/>
<path d="M205.382 129.806L206.741 138.703L192.882 140.821L190.768 126.981L199.664 125.622L199.362 123.645L190.485 125.001C189.398 125.167 188.644 126.193 188.81 127.28L190.925 141.12C191.091 142.207 192.117 142.961 193.204 142.795L207.044 140.68C208.131 140.514 208.885 139.488 208.718 138.401L207.359 129.504L205.382 129.806ZM203.385 130.112L204.003 127.933L205.898 126.693L203.719 126.075L202.479 124.18L201.861 126.359L199.967 127.599L202.145 128.217L203.385 130.112ZM199.792 131.419L198.14 128.89L197.32 131.797L194.791 133.448L197.698 134.268L199.349 136.798L200.169 133.891L202.699 132.24L199.792 131.419Z" fill="#C78DEC"/>
<path d="M222.372 68.866L223.18 74.1546C223.241 74.55 223.458 74.8119 223.832 74.9402C224.205 75.0686 224.541 75.0005 224.837 74.736L228.539 71.4896C228.825 71.2605 228.938 70.9565 228.881 70.5776C228.823 70.1986 228.623 69.9425 228.283 69.8091L223.78 67.8163C223.418 67.6525 223.077 67.6876 222.759 67.9217C222.441 68.1558 222.312 68.4705 222.372 68.866ZM226.758 81.0179C225.391 81.2269 224.066 81.1636 222.784 80.828C221.502 80.4932 220.348 79.9489 219.323 79.1951C218.297 78.4414 217.433 77.5028 216.731 76.3793C216.027 75.256 215.571 74.0105 215.362 72.6431C215.154 71.2756 215.217 69.9509 215.552 68.6688C215.887 67.3869 216.432 66.2331 217.185 65.2075C217.939 64.1818 218.878 63.3175 220.001 62.6144C221.124 61.912 222.37 61.4563 223.737 61.2474C225.105 61.0384 226.429 61.1014 227.711 61.4363C228.994 61.7718 230.147 62.3165 231.173 63.0702C232.199 63.8239 233.063 64.7625 233.765 65.886C234.468 67.0094 234.924 68.2548 235.133 69.6222C235.342 70.9897 235.279 72.3145 234.943 73.5965C234.608 74.8785 234.064 76.0323 233.31 77.0579C232.556 78.0835 231.618 78.9475 230.494 79.6499C229.371 80.353 228.126 80.809 226.758 81.0179ZM226.456 79.0409C228.647 78.7061 230.396 77.6509 231.701 75.8753C233.006 74.0992 233.491 72.1156 233.156 69.9243C232.821 67.7331 231.766 65.9847 229.99 64.6793C228.214 63.3746 226.231 62.8896 224.039 63.2244C221.848 63.5593 220.1 64.6144 218.795 66.3898C217.49 68.166 217.005 70.1498 217.34 72.341C217.674 74.5322 218.73 76.2805 220.506 77.5859C222.282 78.8907 224.265 79.3757 226.456 79.0409Z" fill="#C78DEC"/>
<path d="M230.982 125.212L231.79 130.501C231.85 130.896 232.067 131.158 232.441 131.286C232.815 131.415 233.15 131.347 233.447 131.082L237.149 127.836C237.434 127.607 237.548 127.303 237.49 126.924C237.432 126.545 237.233 126.289 236.892 126.155L232.389 124.162C232.027 123.999 231.687 124.034 231.369 124.268C231.05 124.502 230.921 124.817 230.982 125.212ZM235.368 137.364C234 137.573 232.675 137.51 231.393 137.174C230.111 136.839 228.958 136.295 227.932 135.541C226.906 134.787 226.042 133.849 225.34 132.725C224.637 131.602 224.181 130.357 223.972 128.989C223.763 127.622 223.826 126.297 224.162 125.015C224.497 123.733 225.041 122.579 225.795 121.554C226.548 120.528 227.487 119.664 228.61 118.96C229.734 118.258 230.979 117.802 232.347 117.593C233.714 117.385 235.039 117.447 236.321 117.782C237.603 118.118 238.757 118.663 239.782 119.416C240.808 120.17 241.672 121.109 242.374 122.232C243.077 123.355 243.533 124.601 243.742 125.968C243.951 127.336 243.888 128.661 243.553 129.943C243.218 131.225 242.673 132.378 241.92 133.404C241.166 134.43 240.227 135.294 239.104 135.996C237.98 136.699 236.735 137.155 235.368 137.364ZM235.065 135.387C237.257 135.052 239.005 133.997 240.311 132.221C241.615 130.445 242.1 128.462 241.765 126.27C241.431 124.079 240.375 122.331 238.6 121.025C236.824 119.721 234.84 119.236 232.649 119.571C230.458 119.905 228.71 120.96 227.405 122.736C226.099 124.512 225.614 126.496 225.949 128.687C226.284 130.878 227.339 132.627 229.115 133.932C230.891 135.237 232.874 135.722 235.065 135.387Z" fill="#C78DEC"/>
<path d="M147.374 91.1243C146.83 91.2073 146.335 91.085 145.889 90.7573C145.443 90.429 145.178 89.993 145.095 89.4493L143.282 77.587C143.199 77.0433 143.322 76.5484 143.65 76.1024C143.978 75.6558 144.413 75.3909 144.957 75.3078L150.073 74.5262C150.336 74.4859 150.595 74.4969 150.85 74.5592C151.103 74.6216 151.335 74.7296 151.543 74.8831L153.167 76.0766L161.076 74.8682C161.619 74.7851 162.114 74.9078 162.561 75.236C163.007 75.5638 163.272 75.9995 163.355 76.5432L164.865 86.4285C164.948 86.9721 164.826 87.4673 164.498 87.9139C164.17 88.36 163.734 88.6245 163.19 88.7076L147.374 91.1243ZM145.259 77.2849L147.072 89.1472L162.888 86.7305L161.378 76.8453L152.654 78.1782L150.375 76.5032L145.259 77.2849Z" fill="#C78DEC"/>
<path d="M155.983 147.47C155.439 147.553 154.945 147.431 154.499 147.103C154.052 146.775 153.787 146.339 153.704 145.795L151.891 133.933C151.808 133.389 151.931 132.894 152.259 132.448C152.587 132.002 153.023 131.737 153.566 131.654L158.682 130.872C158.946 130.832 159.205 130.843 159.459 130.905C159.713 130.968 159.944 131.076 160.153 131.229L161.777 132.423L169.685 131.214C170.229 131.131 170.724 131.254 171.171 131.582C171.616 131.91 171.881 132.346 171.964 132.889L173.474 142.775C173.558 143.318 173.435 143.813 173.108 144.26C172.779 144.706 172.343 144.971 171.8 145.054L155.983 147.47ZM153.868 133.631L155.681 145.493L171.497 143.077L169.987 133.191L161.263 134.524L158.984 132.849L153.868 133.631Z" fill="#C78DEC"/>
<path fill-rule="evenodd" clip-rule="evenodd" d="M11.506 95.6986C11.4226 95.1526 11.7976 94.6424 12.3435 94.559L16.2976 93.9548C16.8436 93.8714 17.3538 94.2464 17.4372 94.7923L18.0414 98.7464C18.1248 99.2924 17.7498 99.8026 17.2039 99.886L13.2498 100.49C12.7038 100.574 12.1936 100.199 12.1102 99.6527L11.9837 98.8244C11.1515 99.2614 10.4967 100.106 10.1709 101.299C9.76567 102.783 9.89819 104.77 10.9153 106.917L12.179 106.723C12.7249 106.64 13.2351 107.015 13.3186 107.561L13.9227 111.515C14.0061 112.061 13.6312 112.571 13.0852 112.655L9.13114 113.259C8.58519 113.342 8.07498 112.967 7.99157 112.421L7.8344 111.393C5.65668 111.539 4.01009 110.975 2.83363 109.743C1.76447 108.623 1.20762 107.07 0.874078 105.416L-0.136465 105.57C-0.682414 105.654 -1.19262 105.279 -1.27604 104.733L-1.88021 100.779C-1.96362 100.233 -1.58867 99.7226 -1.04272 99.6392L2.91139 99.035C3.45734 98.9516 3.96754 99.3266 4.05096 99.8725L4.65513 103.827C4.73855 104.373 4.36359 104.883 3.81764 104.966L2.85404 105.113C3.1552 106.559 3.59889 107.649 4.28007 108.362C4.9187 109.031 5.88807 109.487 7.53111 109.408L7.3874 108.467C7.30398 107.921 7.67893 107.411 8.22488 107.328L8.86539 107.23C7.89027 104.907 7.731 102.642 8.2415 100.772C8.75257 98.9006 9.95966 97.3952 11.6712 96.7793L11.506 95.6986ZM15.9133 98.06L13.9362 98.3621L13.6341 96.385L15.6112 96.0829L15.9133 98.06ZM0.247892 101.465L0.549977 103.442L2.52703 103.14L2.22495 101.163L0.247892 101.465ZM9.51549 109.154L9.81758 111.131L11.7946 110.829L11.4925 108.852L9.51549 109.154Z" fill="#C78DEC"/>
<path d="M75.7601 85.8809C75.48 85.9237 75.2306 85.8647 75.0118 85.7039C74.7937 85.5436 74.6633 85.3235 74.6205 85.0434C74.5777 84.7633 74.6364 84.5139 74.7965 84.2952C74.9574 84.0771 75.1779 83.9466 75.458 83.9038L83.3662 82.6955C83.6463 82.6527 83.8954 82.7114 84.1134 82.8716C84.3322 83.0324 84.463 83.2529 84.5058 83.5329C84.5486 83.813 84.4896 84.0621 84.3287 84.2803C84.1685 84.499 83.9484 84.6297 83.6683 84.6725L75.7601 85.8809ZM73.2476 89.2996C72.9676 89.3424 72.7182 89.2837 72.4995 89.1236C72.2813 88.9627 72.1509 88.7422 72.1081 88.4621C72.0653 88.182 72.124 87.9326 72.2841 87.7139C72.445 87.4958 72.6655 87.3653 72.9456 87.3225L86.7849 85.2079C87.065 85.1651 87.3141 85.2238 87.5321 85.3841C87.7509 85.5449 87.8817 85.7653 87.9245 86.0454C87.9673 86.3255 87.9083 86.5749 87.7475 86.7937C87.5873 87.0118 87.3671 87.1422 87.087 87.185L73.2476 89.2996ZM74.5248 104.279C73.9811 104.362 73.4862 104.239 73.0403 103.912C72.5936 103.583 72.3287 103.147 72.2456 102.604L70.7352 92.7183C70.6521 92.1746 70.7747 91.6794 71.103 91.2327C71.4308 90.7867 71.8665 90.5222 72.4102 90.4391L88.2266 88.0225C88.7703 87.9394 89.2654 88.0617 89.7121 88.3893C90.1581 88.7177 90.4227 89.1537 90.5057 89.6974L92.0162 99.5827C92.0992 100.126 91.977 100.622 91.6493 101.068C91.3209 101.514 90.8849 101.779 90.3412 101.862L74.5248 104.279ZM74.2227 102.301L90.0391 99.8848L88.5287 89.9995L72.7122 92.4162L74.2227 102.301ZM81.3802 99.1593L84.2187 96.5507C84.4851 96.3076 84.5918 96.0131 84.539 95.6672C84.4861 95.3212 84.2963 95.072 83.9695 94.9196L80.4815 93.2776C80.1167 93.0973 79.7765 93.1324 79.4607 93.383C79.1449 93.6336 79.0172 93.9565 79.0777 94.352L79.7196 98.5532C79.78 98.9486 79.9983 99.2187 80.3745 99.3636C80.7507 99.5084 81.0859 99.4403 81.3802 99.1593Z" fill="#C78DEC"/>
<path d="M84.3695 142.227C84.0894 142.27 83.84 142.211 83.6212 142.05C83.4031 141.89 83.2727 141.669 83.2299 141.389C83.1871 141.109 83.2458 140.86 83.4059 140.641C83.5668 140.423 83.7873 140.293 84.0674 140.25L91.9756 139.041C92.2557 138.999 92.5048 139.057 92.7228 139.218C92.9416 139.378 93.0724 139.599 93.1152 139.879C93.158 140.159 93.0989 140.408 92.938 140.626C92.7779 140.845 92.5578 140.976 92.2777 141.019L84.3695 142.227ZM81.857 145.646C81.5769 145.688 81.3276 145.63 81.1089 145.47C80.8907 145.309 80.7603 145.088 80.7175 144.808C80.6747 144.528 80.7333 144.279 80.8935 144.06C81.0544 143.842 81.2749 143.711 81.5549 143.669L95.3943 141.554C95.6744 141.511 95.9235 141.57 96.1415 141.73C96.3603 141.891 96.4911 142.111 96.5339 142.391C96.5767 142.671 96.5177 142.921 96.3569 143.14C96.1966 143.358 95.9765 143.488 95.6964 143.531L81.857 145.646ZM83.1341 160.625C82.5904 160.708 82.0956 160.585 81.6497 160.258C81.203 159.929 80.9381 159.493 80.855 158.95L79.3446 149.064C79.2615 148.521 79.3841 148.025 79.7124 147.579C80.0401 147.133 80.4759 146.868 81.0195 146.785L96.836 144.368C97.3797 144.285 97.8748 144.408 98.3214 144.735C98.7675 145.064 99.032 145.5 99.1151 146.043L100.626 155.929C100.709 156.472 100.586 156.968 100.259 157.414C99.9303 157.86 99.4943 158.125 98.9506 158.208L83.1341 160.625ZM82.832 158.647L98.6485 156.231L97.1381 146.346L81.3216 148.762L82.832 158.647ZM89.9896 155.505L92.8281 152.897C93.0945 152.654 93.2012 152.359 93.1483 152.013C93.0955 151.667 92.9057 151.418 92.5789 151.266L89.0909 149.624C88.7261 149.443 88.3859 149.478 88.0701 149.729C87.7543 149.98 87.6266 150.303 87.687 150.698L88.329 154.899C88.3894 155.295 88.6077 155.565 88.9839 155.71C89.3601 155.854 89.6953 155.786 89.9896 155.505Z" fill="#C78DEC"/>
<path d="M38.1418 107.815C37.5981 107.898 37.1033 107.775 36.6573 107.448C36.2106 107.119 35.9457 106.683 35.8626 106.14L34.0501 94.2772C33.9671 93.7335 34.0897 93.2387 34.4181 92.7926C34.7457 92.346 35.1814 92.0812 35.7251 91.9981L47.5874 90.1856C48.1311 90.1025 48.6263 90.2251 49.073 90.5534C49.519 90.8811 49.7835 91.3169 49.8666 91.8605L50.5463 96.3089L53.1843 92.7193C53.3239 92.5293 53.4989 92.4605 53.7091 92.5126C53.9194 92.5648 54.0422 92.7062 54.0775 92.9369L55.3764 101.438C55.4117 101.669 55.3367 101.84 55.1516 101.953C54.9665 102.066 54.779 102.052 54.589 101.913L50.9994 99.2745L51.6791 103.723C51.7622 104.267 51.6399 104.762 51.3122 105.208C50.9838 105.654 50.5478 105.919 50.0041 106.002L38.1418 107.815ZM37.8397 105.837L49.702 104.025L47.8895 92.1626L36.0272 93.9751L37.8397 105.837Z" fill="#C78DEC"/>
<path d="M46.7512 164.161C46.2075 164.244 45.7126 164.121 45.2667 163.794C44.82 163.465 44.5551 163.029 44.472 162.486L42.6595 150.623C42.5764 150.08 42.6991 149.585 43.0275 149.139C43.3551 148.692 43.7908 148.427 44.3345 148.344L56.1968 146.532C56.7405 146.449 57.2357 146.571 57.6824 146.899C58.1284 147.227 58.3929 147.663 58.4759 148.207L59.1556 152.655L61.7937 149.065C61.9333 148.875 62.1082 148.806 62.3185 148.859C62.5288 148.911 62.6516 149.052 62.6868 149.283L63.9858 157.784C64.021 158.015 63.9461 158.186 63.761 158.299C63.5759 158.412 63.3883 158.398 63.1984 158.259L59.6088 155.621L60.2885 160.069C60.3715 160.613 60.2492 161.108 59.9216 161.554C59.5932 162 59.1572 162.265 58.6135 162.348L46.7512 164.161ZM46.4491 162.183L58.3114 160.371L56.4989 148.509L44.6366 150.321L46.4491 162.183Z" fill="#C78DEC"/>
<path d="M112.583 98.4634C112.04 98.5465 111.545 98.4241 111.099 98.0964C110.652 97.7681 110.387 97.3321 110.304 96.7884L107.888 80.972C107.804 80.4283 107.927 79.9331 108.255 79.4864C108.583 79.0404 109.019 78.7759 109.563 78.6928L116.655 77.6091C116.919 77.5688 117.178 77.5799 117.432 77.6422C117.686 77.7046 117.917 77.8125 118.126 77.9661L123.653 82.0279C123.862 82.1814 124.034 82.3699 124.169 82.5934C124.305 82.8175 124.392 83.0613 124.433 83.325L126.121 94.3717C126.204 94.9154 126.081 95.4106 125.754 95.8572C125.425 96.3032 124.989 96.5678 124.446 96.6509L112.583 98.4634ZM117.388 83.5667L116.784 79.6126L109.865 80.6699L112.281 96.4863L124.144 94.6738L122.482 83.8L118.528 84.4042C118.248 84.447 117.999 84.3879 117.781 84.227C117.562 84.0669 117.431 83.8468 117.388 83.5667Z" fill="#C78DEC"/>
<path d="M121.193 154.809C120.649 154.892 120.154 154.77 119.708 154.442C119.262 154.114 118.997 153.678 118.914 153.134L116.497 137.318C116.414 136.774 116.536 136.279 116.865 135.832C117.192 135.386 117.628 135.122 118.172 135.039L125.265 133.955C125.528 133.915 125.787 133.926 126.041 133.988C126.295 134.051 126.526 134.159 126.735 134.312L132.262 138.374C132.471 138.527 132.643 138.716 132.779 138.939C132.914 139.163 133.002 139.407 133.042 139.671L134.73 150.718C134.813 151.261 134.691 151.757 134.363 152.203C134.035 152.649 133.599 152.914 133.055 152.997L121.193 154.809ZM125.998 139.913L125.394 135.959L118.474 137.016L120.891 152.832L132.753 151.02L131.092 140.146L127.137 140.75C126.857 140.793 126.608 140.734 126.39 140.573C126.171 140.413 126.041 140.193 125.998 139.913Z" fill="#C78DEC"/>
</g>
</svg>
