<svg width="223" height="150" viewBox="0 0 223 150" fill="none" xmlns="http://www.w3.org/2000/svg">
<path d="M16 0.5H206.617C215.178 0.5 222.117 7.43959 222.117 16V149.5H0.5V16C0.500001 7.43959 7.43959 0.5 16 0.5Z" fill="#D1E5FF" fill-opacity="0.2"/>
<mask id="mask0_23_444" style="mask-type:alpha" maskUnits="userSpaceOnUse" x="0" y="0" width="223" height="150">
<path d="M16 0.5H206.617C215.178 0.5 222.117 7.43959 222.117 16V149.5H0.5V16C0.500001 7.43959 7.43959 0.5 16 0.5Z" fill="#D1E5FF"/>
</mask>
<g mask="url(#mask0_23_444)" opacity="0.7">
<path d="M32.2641 69.2217C33.1538 69.0858 33.9934 69.7028 34.1293 70.5924C34.3082 71.7648 33.2437 72.598 32.3377 72.4636L29.8967 75.7746C30.305 76.606 29.8197 77.8718 28.6471 78.051C27.4666 78.2311 26.6322 77.1589 26.7747 76.2516L24.3975 74.5037C24.166 74.6135 23.8104 74.6678 23.5566 74.6322L20.4403 78.8831C20.8391 79.7076 20.3619 80.9724 19.1895 81.1517C18.2999 81.2877 17.4603 80.6707 17.3244 79.781C17.1452 78.6083 18.2098 77.7752 19.116 77.9098L22.2414 73.6664C21.8331 72.835 22.3186 71.5694 23.491 71.39C24.6718 71.2096 25.5061 72.282 25.3634 73.1894L27.7414 74.9362C27.9729 74.8265 28.3286 74.7721 28.5822 74.8077L31.0134 71.4904C30.6142 70.6658 31.0915 69.4009 32.2641 69.2217ZM18.5155 71.3224L20.1943 71.4798L18.6391 72.1314L18.4817 73.8102L17.8301 72.255L16.1504 72.0977L17.7065 71.446L17.8638 69.7663L18.5155 71.3224ZM27.8099 67.477L29.591 67.9744L28.0398 68.982L27.5349 70.7722L26.5358 69.2118L24.7381 68.7159L26.3058 67.7068L26.7934 65.9193L27.8099 67.477Z" fill="#82B7FD"/>
<path fill-rule="evenodd" clip-rule="evenodd" d="M99.3376 53.7773C99.2542 53.2314 99.6291 52.7212 100.175 52.6377L104.129 52.0336C104.675 51.9502 105.185 52.3251 105.269 52.8711L105.873 56.8252C105.956 57.3711 105.581 57.8813 105.035 57.9647L101.081 58.5689C100.535 58.6523 100.025 58.2774 99.9418 57.7314L99.8152 56.9031C98.983 57.3401 98.3283 58.1845 98.0024 59.3778C97.5972 60.8617 97.7297 62.8486 98.7468 64.9952L100.011 64.8022C100.556 64.7187 101.067 65.0937 101.15 65.6396L101.754 69.5938C101.838 70.1397 101.463 70.6499 100.917 70.7333L96.9627 71.3375C96.4167 71.4209 95.9065 71.046 95.8231 70.5L95.6659 69.4714C93.4882 69.6182 91.8416 69.0538 90.6652 67.8218C89.596 66.7022 89.0392 65.1491 88.7056 63.4947L87.6951 63.6491C87.1491 63.7325 86.6389 63.3575 86.5555 62.8116L85.9513 58.8575C85.8679 58.3115 86.2429 57.8013 86.7888 57.7179L90.7429 57.1138C91.2889 57.0303 91.7991 57.4053 91.8825 57.9512L92.4867 61.9053C92.5701 62.4513 92.1951 62.9615 91.6492 63.0449L90.6856 63.1921C90.9867 64.6373 91.4304 65.7272 92.1116 66.4406C92.7502 67.1093 93.7196 67.5659 95.3627 67.4865L95.2189 66.5459C95.1355 65.9999 95.5105 65.4897 96.0564 65.4063L96.6969 65.3085C95.7218 62.9861 95.5625 60.7205 96.073 58.851C96.5841 56.9793 97.7912 55.4739 99.5027 54.8581L99.3376 53.7773ZM103.745 56.1387L101.768 56.4408L101.466 54.4638L103.443 54.1617L103.745 56.1387ZM88.0794 59.5439L88.3815 61.521L90.3586 61.2189L90.0565 59.2418L88.0794 59.5439ZM97.347 67.2323L97.6491 69.2094L99.6262 68.9073L99.3241 66.9303L97.347 67.2323Z" fill="#82B7FD"/>
<path d="M60.1002 71.4061L63.8023 68.1597C64.0876 67.9306 64.2013 67.6266 64.1434 67.2477C64.0855 66.8687 63.8862 66.6126 63.5455 66.4792L59.0429 64.4864C58.6806 64.3226 58.3404 64.3577 58.0221 64.5918C57.7038 64.8259 57.5748 65.1406 57.6352 65.5361L58.4433 70.8247C58.5037 71.2201 58.7208 71.482 59.0945 71.6103C59.4681 71.7387 59.8034 71.6706 60.1002 71.4061ZM53.8107 76.9193C53.267 77.0024 52.7722 76.8801 52.3263 76.5523C51.8796 76.224 51.6147 75.788 51.5316 75.2444L49.7191 63.382C49.636 62.8383 49.7587 62.3435 50.0871 61.8974C50.4147 61.4508 50.8504 61.186 51.394 61.1029L67.2105 58.6862C67.7542 58.6031 68.2494 58.7257 68.6961 59.054C69.142 59.3818 69.4065 59.8175 69.4896 60.3612L71.3021 72.2235C71.3852 72.7672 71.2629 73.2623 70.9353 73.709C70.6069 74.155 70.1709 74.4196 69.6272 74.5026L53.8107 76.9193ZM53.5086 74.9423L69.3251 72.5256L67.5126 60.6633L51.6961 63.0799L53.5086 74.9423Z" fill="#82B7FD"/>
<path d="M163.592 43.9595C163.312 44.0023 163.063 43.9433 162.844 43.7825C162.626 43.6223 162.495 43.4021 162.453 43.122C162.41 42.842 162.468 42.5926 162.629 42.3739C162.789 42.1557 163.01 42.0253 163.29 41.9825L171.198 40.7741C171.478 40.7313 171.727 40.7901 171.945 40.9503C172.164 41.1111 172.295 41.3315 172.338 41.6116C172.381 41.8917 172.322 42.1408 172.161 42.359C172.001 42.5777 171.78 42.7084 171.5 42.7512L163.592 43.9595ZM161.08 47.3782C160.8 47.421 160.55 47.3624 160.332 47.2022C160.113 47.0413 159.983 46.8208 159.94 46.5408C159.897 46.2607 159.956 46.0113 160.116 45.7926C160.277 45.5744 160.498 45.444 160.778 45.4012L174.617 43.2866C174.897 43.2438 175.146 43.3025 175.364 43.4628C175.583 43.6236 175.714 43.844 175.757 44.1241C175.799 44.4042 175.74 44.6536 175.58 44.8724C175.419 45.0904 175.199 45.2209 174.919 45.2636L161.08 47.3782ZM162.357 62.3572C161.813 62.4403 161.318 62.3179 160.872 61.9902C160.426 61.6619 160.161 61.2259 160.078 60.6822L158.567 50.797C158.484 50.2533 158.607 49.7581 158.935 49.3113C159.263 48.8654 159.699 48.6009 160.242 48.5178L176.059 46.1011C176.602 46.0181 177.097 46.1403 177.544 46.468C177.99 46.7964 178.255 47.2324 178.338 47.7761L179.848 57.6614C179.931 58.2051 179.809 58.7002 179.481 59.1468C179.153 59.5929 178.717 59.8574 178.173 59.9405L162.357 62.3572ZM162.055 60.3801L177.871 57.9635L176.361 48.0782L160.544 50.4949L162.055 60.3801ZM169.212 57.238L172.051 54.6293C172.317 54.3863 172.424 54.0918 172.371 53.7458C172.318 53.3998 172.128 53.1507 171.802 52.9983L168.314 51.3563C167.949 51.176 167.609 51.2111 167.293 51.4617C166.977 51.7122 166.849 52.0352 166.91 52.4306L167.552 56.6319C167.612 57.0273 167.83 57.2974 168.207 57.4422C168.583 57.5871 168.918 57.519 169.212 57.238Z" fill="#82B7FD"/>
<path d="M-12.55 76.2601L-11.7419 81.5487C-11.6815 81.9441 -11.4644 82.206 -11.0908 82.3343C-10.7171 82.4627 -10.3818 82.3946 -10.0851 82.1301L-6.38294 78.8837C-6.0976 78.6546 -5.98388 78.3506 -6.04178 77.9717C-6.09968 77.5927 -6.29899 77.3366 -6.63971 77.2032L-11.1424 75.2104C-11.5046 75.0466 -11.8449 75.0817 -12.1632 75.3158C-12.4815 75.5499 -12.6104 75.8646 -12.55 76.2601ZM-8.16419 88.412C-9.53165 88.621 -10.8564 88.5577 -12.1385 88.2221C-13.4204 87.8873 -14.5742 87.343 -15.5998 86.5892C-16.6254 85.8355 -17.4894 84.8969 -18.1919 83.7734C-18.8949 82.6501 -19.3509 81.4047 -19.5599 80.0372C-19.7688 78.6697 -19.7055 77.345 -19.37 76.0629C-19.0351 74.781 -18.4908 73.6272 -17.7371 72.6016C-16.9833 71.5759 -16.0448 70.7116 -14.9214 70.0085C-13.798 69.3061 -12.5525 68.8504 -11.185 68.6415C-9.81758 68.4325 -8.49287 68.4955 -7.21091 68.8304C-5.92886 69.1659 -4.77502 69.7106 -3.74941 70.4643C-2.7238 71.218 -1.85978 72.1566 -1.15737 73.2801C-0.454292 74.4035 0.00171628 75.6489 0.210658 77.0163C0.4196 78.3838 0.356302 79.7086 0.0207644 80.9906C-0.314114 82.2726 -0.858421 83.4264 -1.61216 84.452C-2.36589 85.4776 -3.30449 86.3416 -4.42796 87.044C-5.55132 87.7471 -6.79673 88.2031 -8.16419 88.412ZM-8.46627 86.435C-6.27504 86.1002 -4.52669 85.045 -3.22123 83.2694C-1.91653 81.4933 -1.43159 79.5097 -1.7664 77.3184C-2.10121 75.1272 -3.15639 73.3788 -4.93194 72.0734C-6.70805 70.7687 -8.69172 70.2837 -10.883 70.6185C-13.0742 70.9534 -14.8222 72.0085 -16.127 73.7839C-17.4324 75.5601 -17.9176 77.5439 -17.5828 79.7351C-17.248 81.9263 -16.1925 83.6746 -14.4163 84.98C-12.6409 86.2848 -10.6575 86.7698 -8.46627 86.435Z" fill="#82B7FD"/>
<path d="M125.973 65.8932C125.43 65.9763 124.935 65.8539 124.489 65.5262C124.042 65.1979 123.777 64.7619 123.694 64.2182L121.882 52.3559C121.799 51.8122 121.921 51.3173 122.25 50.8713C122.577 50.4247 123.013 50.1598 123.557 50.0768L135.419 48.2643C135.963 48.1812 136.458 48.3038 136.905 48.6321C137.351 48.9598 137.615 49.3955 137.698 49.9392L138.378 54.3876L141.016 50.7979C141.155 50.608 141.33 50.5391 141.541 50.5913C141.751 50.6435 141.874 50.7849 141.909 51.0155L143.208 59.5169C143.243 59.7475 143.168 59.9192 142.983 60.0317C142.798 60.1443 142.611 60.1308 142.421 59.9913L138.831 57.3532L139.511 61.8015C139.594 62.3452 139.471 62.8404 139.144 63.287C138.815 63.7331 138.379 63.9976 137.836 64.0807L125.973 65.8932ZM125.671 63.9161L137.534 62.1036L135.721 50.2413L123.859 52.0538L125.671 63.9161Z" fill="#82B7FD"/>
<path d="M200.415 56.5421C199.871 56.6251 199.376 56.5028 198.93 56.1751C198.484 55.8468 198.219 55.4108 198.136 54.8671L195.719 39.0507C195.636 38.507 195.759 38.0118 196.087 37.5651C196.415 37.1191 196.85 36.8546 197.394 36.7715L204.487 35.6878C204.75 35.6475 205.009 35.6585 205.264 35.7208C205.517 35.7832 205.749 35.8912 205.958 36.0447L211.484 40.1065C211.693 40.2601 211.865 40.4486 212.001 40.672C212.136 40.8962 212.224 41.14 212.264 41.4036L213.952 52.4504C214.035 52.9941 213.913 53.4893 213.585 53.9359C213.257 54.3819 212.821 54.6465 212.277 54.7296L200.415 56.5421ZM205.22 41.6454L204.616 37.6913L197.696 38.7486L200.113 54.565L211.975 52.7525L210.314 41.8787L206.36 42.4829C206.079 42.5257 205.83 42.4666 205.612 42.3057C205.394 42.1456 205.263 41.9255 205.22 41.6454Z" fill="#82B7FD"/>
<path d="M23.5039 11.8871C24.3935 11.7512 25.2331 12.3682 25.369 13.2578C25.5479 14.4302 24.4834 15.2635 23.5774 15.129L21.1364 18.44C21.5447 19.2714 21.0595 20.5372 19.8868 20.7164C18.7063 20.8965 17.872 19.8243 18.0144 18.917L15.6372 17.1691C15.4058 17.2789 15.0501 17.3332 14.7964 17.2976L11.6801 21.5485C12.0789 22.373 11.6017 23.6378 10.4293 23.8171C9.53961 23.9531 8.70005 23.3361 8.56411 22.4464C8.38493 21.2737 9.44958 20.4406 10.3558 20.5752L13.4811 16.3318C13.0729 15.5004 13.5583 14.2348 14.7307 14.0554C15.9116 13.875 16.7459 14.9474 16.6031 15.8548L18.9811 17.6016C19.2126 17.4919 19.5684 17.4375 19.822 17.4731L22.2531 14.1558C21.854 13.3312 22.3312 12.0663 23.5039 11.8871ZM9.75525 13.9878L11.434 14.1452L9.87886 14.7968L9.72144 16.4756L9.06989 14.9204L7.39014 14.7631L8.94628 14.1114L9.10355 12.4317L9.75525 13.9878ZM19.0496 10.1424L20.8307 10.6398L19.2796 11.6474L18.7746 13.4376L17.7755 11.8772L15.9779 11.3813L17.5456 10.3722L18.0331 8.5847L19.0496 10.1424Z" fill="#82B7FD"/>
<path fill-rule="evenodd" clip-rule="evenodd" d="M90.5773 -3.55728C90.4939 -4.10323 90.8689 -4.61343 91.4148 -4.69685L95.3689 -5.30102C95.9149 -5.38444 96.4251 -5.00948 96.5085 -4.46354L97.1127 -0.509427C97.1961 0.0365218 96.8211 0.546725 96.2752 0.630143L92.3211 1.23431C91.7751 1.31773 91.2649 0.942777 91.1815 0.396828L91.055 -0.431446C90.2228 0.00555486 89.568 0.849877 89.2422 2.04321C88.837 3.5271 88.9695 5.51399 89.9865 7.66066L91.2503 7.46756C91.7962 7.38414 92.3064 7.7591 92.3898 8.30505L92.994 12.2592C93.0774 12.8051 92.7025 13.3153 92.1565 13.3987L88.2024 14.0029C87.6565 14.0863 87.1463 13.7114 87.0629 13.1654L86.9057 12.1368C84.728 12.2836 83.0814 11.7192 81.9049 10.4872C80.8358 9.36759 80.2789 7.81446 79.9454 6.16008L78.9348 6.31449C78.3889 6.39791 77.8787 6.02295 77.7953 5.47701L77.1911 1.5229C77.1077 0.976947 77.4826 0.466744 78.0286 0.383326L81.9827 -0.220844C82.5286 -0.304262 83.0388 0.0706923 83.1222 0.616641L83.7264 4.57075C83.8098 5.1167 83.4349 5.6269 82.8889 5.71032L81.9253 5.85755C82.2265 7.30275 82.6702 8.39265 83.3514 9.10597C83.99 9.77474 84.9594 10.2313 86.6024 10.1519L86.4587 9.2113C86.3753 8.66535 86.7502 8.15515 87.2962 8.07173L87.9367 7.97387C86.9616 5.65148 86.8023 3.3859 87.3128 1.51637C87.8239 -0.355256 89.0309 -1.86067 90.7425 -2.47653L90.5773 -3.55728ZM94.9846 -1.19587L93.0075 -0.893784L92.7054 -2.87084L94.6825 -3.17292L94.9846 -1.19587ZM79.3192 2.20934L79.6213 4.18639L81.5983 3.88431L81.2962 1.90725L79.3192 2.20934ZM88.5868 9.89774L88.8889 11.8748L90.8659 11.5727L90.5638 9.59566L88.5868 9.89774Z" fill="#82B7FD"/>
<path d="M51.3399 14.0715L55.042 10.8251C55.3274 10.596 55.4411 10.292 55.3832 9.91309C55.3253 9.53415 55.126 9.27798 54.7853 9.14458L50.2826 7.15181C49.9204 6.98798 49.5801 7.02311 49.2618 7.2572C48.9435 7.4913 48.8146 7.80605 48.875 8.20146L49.6831 13.4901C49.7435 13.8855 49.9605 14.1474 50.3342 14.2757C50.7079 14.4041 51.0431 14.336 51.3399 14.0715ZM45.0505 19.5847C44.5068 19.6678 44.012 19.5455 43.566 19.2177C43.1193 18.8894 42.8544 18.4534 42.7713 17.9098L40.9588 6.04743C40.8757 5.50374 40.9984 5.00887 41.3268 4.56281C41.6544 4.1162 42.0901 3.85136 42.6338 3.76829L58.4502 1.35161C58.9939 1.26854 59.4891 1.39115 59.9358 1.71944C60.3818 2.04718 60.6463 2.48289 60.7294 3.02658L62.5419 14.8889C62.625 15.4326 62.5027 15.9277 62.175 16.3744C61.8466 16.8204 61.4106 17.085 60.8669 17.168L45.0505 19.5847ZM44.7484 17.6077L60.5648 15.191L58.7523 3.32866L42.9359 5.74534L44.7484 17.6077Z" fill="#82B7FD"/>
<path d="M154.831 -13.3751C154.551 -13.3323 154.302 -13.3913 154.083 -13.5521C153.865 -13.7123 153.735 -13.9325 153.692 -14.2125C153.649 -14.4926 153.708 -14.742 153.868 -14.9607C154.029 -15.1789 154.249 -15.3093 154.529 -15.3521L162.438 -16.5605C162.718 -16.6033 162.967 -16.5445 163.185 -16.3843C163.404 -16.2235 163.534 -16.0031 163.577 -15.723C163.62 -15.4429 163.561 -15.1938 163.4 -14.9756C163.24 -14.7569 163.02 -14.6262 162.74 -14.5834L154.831 -13.3751ZM152.319 -9.95635C152.039 -9.91356 151.789 -9.97223 151.571 -10.1324C151.353 -10.2933 151.222 -10.5138 151.179 -10.7938C151.137 -11.0739 151.195 -11.3233 151.355 -11.542C151.516 -11.7601 151.737 -11.8906 152.017 -11.9334L165.856 -14.048C166.136 -14.0908 166.385 -14.0321 166.603 -13.8718C166.822 -13.711 166.953 -13.4906 166.996 -13.2105C167.039 -12.9304 166.98 -12.681 166.819 -12.4622C166.659 -12.2442 166.438 -12.1137 166.158 -12.0709L152.319 -9.95635ZM153.596 5.0226C153.052 5.10567 152.558 4.98334 152.112 4.65561C151.665 4.32731 151.4 3.89132 151.317 3.34763L149.806 -6.53764C149.723 -7.08133 149.846 -7.57653 150.174 -8.02325C150.502 -8.4692 150.938 -8.73371 151.481 -8.81678L167.298 -11.2335C167.842 -11.3165 168.337 -11.1943 168.783 -10.8666C169.229 -10.5382 169.494 -10.1022 169.577 -9.55849L171.087 0.32678C171.171 0.870469 171.048 1.36562 170.721 1.81223C170.392 2.25828 169.956 2.52285 169.412 2.60592L153.596 5.0226ZM153.294 3.04554L169.11 0.628865L167.6 -9.25641L151.784 -6.83973L153.294 3.04554ZM160.451 -0.0965937L163.29 -2.70526C163.556 -2.94828 163.663 -3.24278 163.61 -3.58877C163.557 -3.93475 163.368 -4.18394 163.041 -4.33633L159.553 -5.97833C159.188 -6.15864 158.848 -6.12351 158.532 -5.87294C158.216 -5.62237 158.089 -5.29938 158.149 -4.90397L158.791 -0.702726C158.851 -0.307316 159.07 -0.0371898 159.446 0.107651C159.822 0.252492 160.157 0.18441 160.451 -0.0965937Z" fill="#82B7FD"/>
<path d="M117.213 8.5586C116.669 8.64168 116.174 8.51934 115.728 8.19161C115.281 7.86331 115.017 7.42732 114.933 6.88363L113.121 -4.97869C113.038 -5.52238 113.161 -6.01726 113.489 -6.46331C113.817 -6.90992 114.252 -7.17476 114.796 -7.25783L126.658 -9.07034C127.202 -9.15342 127.697 -9.03081 128.144 -8.70251C128.59 -8.37478 128.854 -7.93906 128.937 -7.39537L129.617 -2.947L132.255 -6.53665C132.395 -6.72658 132.57 -6.79545 132.78 -6.74329C132.99 -6.69112 133.113 -6.5497 133.148 -6.31905L134.447 2.18229C134.482 2.41294 134.408 2.58456 134.222 2.69715C134.037 2.80973 133.85 2.79624 133.66 2.65666L130.07 0.01858L130.75 4.46695C130.833 5.01064 130.711 5.50579 130.383 5.9524C130.055 6.39846 129.619 6.66302 129.075 6.74609L117.213 8.5586ZM116.91 6.58155L128.773 4.76904L126.96 -7.09329L115.098 -5.28078L116.91 6.58155Z" fill="#82B7FD"/>
<path d="M190.268 16.6166L191.627 25.5133L177.768 27.631L175.653 13.7916L184.55 12.4322L184.248 10.4551L175.371 11.8115C174.284 11.9776 173.53 13.0033 173.696 14.0906L175.811 27.93C175.977 29.0174 177.002 29.7711 178.09 29.605L191.929 27.4904C193.017 27.3243 193.77 26.2986 193.604 25.2113L192.245 16.3145L190.268 16.6166ZM188.271 16.9217L188.889 14.7434L190.783 13.503L188.605 12.8849L187.365 10.9905L186.747 13.1689L184.852 14.4092L187.031 15.0273L188.271 16.9217ZM184.677 18.2295L183.026 15.6999L182.206 18.6071L179.676 20.2581L182.584 21.0784L184.235 23.6081L185.055 20.7008L187.585 19.0498L184.677 18.2295Z" fill="#82B7FD"/>
<path d="M215.868 12.0223L216.676 17.3109C216.736 17.7063 216.954 17.9682 217.327 18.0966C217.701 18.2249 218.036 18.1568 218.333 17.8923L222.035 14.6459C222.32 14.4168 222.434 14.1128 222.376 13.7339C222.318 13.355 222.119 13.0988 221.778 12.9654L217.276 10.9726C216.913 10.8088 216.573 10.8439 216.255 11.078C215.937 11.3121 215.808 11.6269 215.868 12.0223ZM220.254 24.1742C218.886 24.3832 217.562 24.3199 216.28 23.9844C214.998 23.6495 213.844 23.1052 212.818 22.3514C211.793 21.5977 210.929 20.6591 210.226 19.5356C209.523 18.4123 209.067 17.1669 208.858 15.7994C208.649 14.4319 208.712 13.1072 209.048 11.8251C209.383 10.5432 209.927 9.38938 210.681 8.36377C211.435 7.33815 212.373 6.47381 213.497 5.77074C214.62 5.06832 215.865 4.61264 217.233 4.4037C218.6 4.19476 219.925 4.25773 221.207 4.5926C222.489 4.92814 223.643 5.47278 224.669 6.22652C225.694 6.98025 226.558 7.91885 227.261 9.04231C227.964 10.1657 228.42 11.4111 228.629 12.7785C228.838 14.146 228.774 15.4708 228.439 16.7528C228.104 18.0348 227.56 19.1886 226.806 20.2142C226.052 21.2398 225.113 22.1038 223.99 22.8062C222.867 23.5093 221.621 23.9653 220.254 24.1742ZM219.952 22.1972C222.143 21.8624 223.891 20.8072 225.197 19.0316C226.501 17.2555 226.986 15.2719 226.652 13.0806C226.317 10.8894 225.262 9.14105 223.486 7.83559C221.71 6.53089 219.726 6.04594 217.535 6.38075C215.344 6.71556 213.596 7.77069 212.291 9.54614C210.986 11.3224 210.5 13.3061 210.835 15.4973C211.17 17.6885 212.225 19.4368 214.002 20.7422C215.777 22.047 217.76 22.532 219.952 22.1972Z" fill="#82B7FD"/>
<path d="M140.869 34.2806C140.326 34.3637 139.831 34.2413 139.385 33.9136C138.938 33.5853 138.673 33.1493 138.59 32.6056L136.778 20.7433C136.695 20.1996 136.817 19.7047 137.146 19.2587C137.473 18.8121 137.909 18.5472 138.453 18.4642L143.568 17.6825C143.832 17.6422 144.091 17.6532 144.345 17.7155C144.599 17.7779 144.83 17.8859 145.039 18.0394L146.663 19.2329L154.571 18.0245C155.115 17.9415 155.61 18.0641 156.057 18.3924C156.503 18.7201 156.767 19.1558 156.85 19.6995L158.361 29.5848C158.444 30.1285 158.322 30.6236 157.994 31.0702C157.665 31.5163 157.229 31.7808 156.686 31.8639L140.869 34.2806ZM138.755 20.4412L140.567 32.3035L156.384 29.8869L154.873 20.0016L146.149 21.3345L143.87 19.6596L138.755 20.4412Z" fill="#82B7FD"/>
<path fill-rule="evenodd" clip-rule="evenodd" d="M-3.60821 -17.4912C-3.69163 -18.0371 -3.31667 -18.5473 -2.77072 -18.6307L1.18339 -19.2349C1.72933 -19.3183 2.23954 -18.9434 2.32296 -18.3974L2.92713 -14.4433C3.01054 -13.8974 2.63559 -13.3872 2.08964 -13.3038L-1.86447 -12.6996C-2.41042 -12.6162 -2.92062 -12.9911 -3.00404 -13.5371L-3.13059 -14.3653C-3.96276 -13.9283 -4.61754 -13.084 -4.94339 -11.8907C-5.34859 -10.4068 -5.21607 -8.41991 -4.199 -6.27324L-2.93527 -6.46634C-2.38932 -6.54976 -1.87912 -6.1748 -1.7957 -5.62885L-1.19153 -1.67474C-1.10811 -1.1288 -1.48307 -0.618592 -2.02901 -0.535173L-5.98312 0.0689966C-6.52907 0.152415 -7.03927 -0.22254 -7.12269 -0.768488L-7.27986 -1.79712C-9.45758 -1.6503 -11.1042 -2.21471 -12.2806 -3.44669C-13.3498 -4.56631 -13.9066 -6.11944 -14.2402 -7.77382L-15.2507 -7.61941C-15.7967 -7.53599 -16.3069 -7.91095 -16.3903 -8.45689L-16.9945 -12.411C-17.0779 -12.957 -16.7029 -13.4672 -16.157 -13.5506L-12.2029 -14.1547C-11.6569 -14.2382 -11.1467 -13.8632 -11.0633 -13.3173L-10.4591 -9.36315C-10.3757 -8.8172 -10.7507 -8.307 -11.2966 -8.22358L-12.2602 -8.07634C-11.9591 -6.63115 -11.5154 -5.54125 -10.8342 -4.82793C-10.1956 -4.15915 -9.22619 -3.70262 -7.58315 -3.78204L-7.72686 -4.7226C-7.81028 -5.26855 -7.43533 -5.77875 -6.88938 -5.86217L-6.24887 -5.96003C-7.22399 -8.28242 -7.38326 -10.548 -6.87276 -12.4175C-6.36169 -14.2892 -5.1546 -15.7946 -3.44307 -16.4104L-3.60821 -17.4912ZM0.799029 -15.1298L-1.17803 -14.8277L-1.48011 -16.8047L0.496944 -17.1068L0.799029 -15.1298ZM-14.8664 -11.7246L-14.5643 -9.74751L-12.5872 -10.0496L-12.8893 -12.0266L-14.8664 -11.7246ZM-5.59876 -4.03616L-5.29668 -2.0591L-3.31963 -2.36119L-3.62171 -4.33824L-5.59876 -4.03616Z" fill="#82B7FD"/>
<path fill-rule="evenodd" clip-rule="evenodd" d="M5.00166 38.8549C4.91824 38.3089 5.29319 37.7987 5.83914 37.7153L9.79325 37.1111C10.3392 37.0277 10.8494 37.4027 10.9328 37.9486L11.537 41.9027C11.6204 42.4487 11.2455 42.9589 10.6995 43.0423L6.74539 43.6465C6.19945 43.7299 5.68924 43.3549 5.60583 42.809L5.47927 41.9807C4.6471 42.4177 3.99232 43.262 3.66647 44.4554C3.26127 45.9393 3.39379 47.9262 4.41086 50.0728L5.6746 49.8797C6.22054 49.7963 6.73075 50.1713 6.81417 50.7172L7.41833 54.6713C7.50175 55.2173 7.1268 55.7275 6.58085 55.8109L2.62674 56.4151C2.08079 56.4985 1.57059 56.1235 1.48717 55.5776L1.33 54.549C-0.847714 54.6958 -2.49431 54.1314 -3.67076 52.8994C-4.73993 51.7798 -5.29677 50.2266 -5.63032 48.5723L-6.64086 48.7267C-7.18681 48.8101 -7.69701 48.4351 -7.78043 47.8892L-8.3846 43.9351C-8.46802 43.3891 -8.09306 42.8789 -7.54711 42.7955L-3.59301 42.1913C-3.04706 42.1079 -2.53685 42.4829 -2.45344 43.0288L-1.84927 46.9829C-1.76585 47.5289 -2.1408 48.0391 -2.68675 48.1225L-3.65035 48.2697C-3.34919 49.7149 -2.9055 50.8048 -2.22433 51.5181C-1.58569 52.1869 -0.616327 52.6434 1.02671 52.564L0.883001 51.6235C0.799583 51.0775 1.17454 50.5673 1.72049 50.4839L2.36099 50.386C1.38588 48.0636 1.22661 45.7981 1.73711 43.9285C2.24818 42.0569 3.45526 40.5515 5.16679 39.9356L5.00166 38.8549ZM9.40889 41.2163L7.43184 41.5184L7.12975 39.5413L9.10681 39.2392L9.40889 41.2163ZM-6.2565 44.6215L-5.95442 46.5986L-3.97736 46.2965L-4.27945 44.3194L-6.2565 44.6215ZM3.0111 52.3099L3.31318 54.287L5.29024 53.9849L4.98815 52.0078L3.0111 52.3099Z" fill="#82B7FD"/>
<path d="M69.2557 29.0371C68.9756 29.0799 68.7262 29.0209 68.5074 28.8601C68.2894 28.6999 68.1589 28.4797 68.1161 28.1996C68.0733 27.9195 68.132 27.6702 68.2922 27.4515C68.4531 27.2333 68.6735 27.1028 68.9536 27.0601L76.8618 25.8517C77.1419 25.8089 77.391 25.8676 77.609 26.0279C77.8278 26.1887 77.9586 26.4091 78.0014 26.6892C78.0442 26.9693 77.9852 27.2184 77.8243 27.4365C77.6641 27.6552 77.444 27.786 77.1639 27.8288L69.2557 29.0371ZM66.7433 32.4558C66.4632 32.4986 66.2138 32.4399 65.9951 32.2798C65.7769 32.1189 65.6465 31.8984 65.6037 31.6183C65.5609 31.3383 65.6196 31.0889 65.7797 30.8702C65.9406 30.652 66.1611 30.5216 66.4412 30.4788L80.2806 28.3642C80.5606 28.3214 80.8097 28.3801 81.0277 28.5403C81.2465 28.7011 81.3773 28.9216 81.4201 29.2017C81.4629 29.4817 81.4039 29.7312 81.2431 29.95C81.0829 30.168 80.8627 30.2984 80.5826 30.3412L66.7433 32.4558ZM68.0204 47.4348C67.4767 47.5178 66.9819 47.3955 66.5359 47.0678C66.0892 46.7395 65.8243 46.3035 65.7412 45.7598L64.2308 35.8745C64.1477 35.3308 64.2703 34.8356 64.5986 34.3889C64.9264 33.943 65.3621 33.6785 65.9058 33.5954L81.7222 31.1787C82.2659 31.0956 82.761 31.2179 83.2077 31.5455C83.6537 31.8739 83.9183 32.31 84.0013 32.8537L85.5118 42.739C85.5948 43.2826 85.4726 43.7778 85.1449 44.2244C84.8165 44.6705 84.3805 44.935 83.8368 45.0181L68.0204 47.4348ZM67.7183 45.4577L83.5347 43.041L82.0243 33.1558L66.2079 35.5724L67.7183 45.4577ZM74.8758 42.3156L77.7143 39.7069C77.9807 39.4639 78.0874 39.1694 78.0346 38.8234C77.9817 38.4774 77.7919 38.2282 77.4651 38.0758L73.9771 36.4338C73.6123 36.2535 73.2721 36.2887 72.9563 36.5392C72.6405 36.7898 72.5128 37.1128 72.5733 37.5082L73.2152 41.7094C73.2756 42.1049 73.4939 42.375 73.8701 42.5198C74.2463 42.6647 74.5815 42.5966 74.8758 42.3156Z" fill="#82B7FD"/>
<path d="M31.6369 50.9708C31.0932 51.0538 30.5984 50.9315 30.1524 50.6038C29.7057 50.2755 29.4408 49.8395 29.3578 49.2958L27.5452 37.4335C27.4622 36.8898 27.5848 36.3949 27.9132 35.9489C28.2409 35.5023 28.6765 35.2374 29.2202 35.1543L41.0825 33.3418C41.6262 33.2588 42.1214 33.3814 42.5681 33.7097C43.0141 34.0374 43.2786 34.4731 43.3617 35.0168L44.0414 39.4652L46.6795 35.8755C46.819 35.6856 46.994 35.6167 47.2043 35.6689C47.4146 35.7211 47.5373 35.8625 47.5726 36.0931L48.8715 44.5945C48.9068 44.8251 48.8318 44.9967 48.6467 45.1093C48.4616 45.2219 48.2741 45.2084 48.0841 45.0688L44.4945 42.4308L45.1742 46.8791C45.2573 47.4228 45.135 47.918 44.8074 48.3646C44.479 48.8106 44.0429 49.0752 43.4992 49.1583L31.6369 50.9708ZM31.3348 48.9937L43.1971 47.1812L41.3846 35.3189L29.5223 37.1314L31.3348 48.9937Z" fill="#82B7FD"/>
<path d="M106.078 41.6196C105.535 41.7027 105.04 41.5804 104.594 41.2527C104.147 40.9244 103.882 40.4884 103.799 39.9447L101.383 24.1282C101.3 23.5845 101.422 23.0893 101.75 22.6426C102.078 22.1967 102.514 21.9322 103.058 21.8491L110.15 20.7654C110.414 20.7251 110.673 20.7361 110.927 20.7984C111.181 20.8608 111.412 20.9688 111.621 21.1223L117.148 25.1841C117.357 25.3377 117.529 25.5262 117.664 25.7496C117.8 25.9737 117.888 26.2176 117.928 26.4812L119.616 37.528C119.699 38.0717 119.577 38.5668 119.249 39.0134C118.921 39.4595 118.484 39.7241 117.941 39.8071L106.078 41.6196ZM110.884 26.723L110.279 22.7689L103.36 23.8262L105.776 39.6426L117.639 37.8301L115.977 26.9563L112.023 27.5605C111.743 27.6032 111.494 27.5442 111.276 27.3833C111.057 27.2232 110.926 27.003 110.884 26.723Z" fill="#82B7FD"/>
<path d="M217.785 170.223C217.241 170.306 216.746 170.183 216.3 169.856C215.853 169.527 215.588 169.091 215.505 168.548L213.089 152.731C213.006 152.188 213.128 151.692 213.457 151.246C213.784 150.8 214.22 150.535 214.764 150.452L221.856 149.368C222.12 149.328 222.379 149.339 222.633 149.401C222.887 149.464 223.118 149.572 223.327 149.725L228.854 153.787C229.063 153.941 229.235 154.129 229.37 154.353C229.506 154.577 229.594 154.821 229.634 155.084L231.322 166.131C231.405 166.675 231.283 167.17 230.955 167.616C230.627 168.063 230.191 168.327 229.647 168.41L217.785 170.223ZM222.59 155.326L221.985 151.372L215.066 152.429L217.482 168.246L229.345 166.433L227.683 155.559L223.729 156.163C223.449 156.206 223.2 156.147 222.982 155.986C222.763 155.826 222.632 155.606 222.59 155.326Z" fill="#82B7FD"/>
<path d="M40.8735 125.568C41.7632 125.432 42.6027 126.049 42.7387 126.938C42.9176 128.111 41.8531 128.944 40.947 128.81L38.506 132.121C38.9144 132.952 38.4291 134.218 37.2564 134.397C36.0759 134.577 35.2416 133.505 35.3841 132.598L33.0069 130.85C32.7754 130.959 32.4198 131.014 32.166 130.978L29.0497 135.229C29.4485 136.054 28.9713 137.318 27.7989 137.498C26.9092 137.634 26.0697 137.017 25.9337 136.127C25.7546 134.954 26.8192 134.121 27.7254 134.256L30.8508 130.012C30.4425 129.181 30.928 127.915 32.1004 127.736C33.2812 127.556 34.1155 128.628 33.9727 129.535L36.3508 131.282C36.5823 131.172 36.938 131.118 37.1916 131.154L39.6227 127.836C39.2236 127.012 39.7009 125.747 40.8735 125.568ZM27.1249 127.668L28.8037 127.826L27.2485 128.477L27.0911 130.156L26.4395 128.601L24.7598 128.444L26.3159 127.792L26.4732 126.112L27.1249 127.668ZM36.4192 123.823L38.2004 124.32L36.6492 125.328L36.1443 127.118L35.1452 125.558L33.3475 125.062L34.9152 124.053L35.4028 122.265L36.4192 123.823Z" fill="#82B7FD"/>
<path fill-rule="evenodd" clip-rule="evenodd" d="M107.947 110.123C107.864 109.577 108.239 109.067 108.784 108.984L112.739 108.38C113.285 108.296 113.795 108.671 113.878 109.217L114.482 113.171C114.566 113.717 114.191 114.227 113.645 114.311L109.691 114.915C109.145 114.998 108.635 114.623 108.551 114.077L108.425 113.249C107.592 113.686 106.938 114.531 106.612 115.724C106.207 117.208 106.339 119.195 107.356 121.341L108.62 121.148C109.166 121.065 109.676 121.44 109.759 121.986L110.364 125.94C110.447 126.486 110.072 126.996 109.526 127.079L105.572 127.684C105.026 127.767 104.516 127.392 104.432 126.846L104.275 125.817C102.098 125.964 100.451 125.4 99.2746 124.168C98.2054 123.048 97.6485 121.495 97.315 119.841L96.3045 119.995C95.7585 120.079 95.2483 119.704 95.1649 119.158L94.5607 115.204C94.4773 114.658 94.8522 114.147 95.3982 114.064L99.3523 113.46C99.8983 113.376 100.408 113.751 100.492 114.297L101.096 118.251C101.179 118.797 100.805 119.308 100.259 119.391L99.295 119.538C99.5961 120.983 100.04 122.073 100.721 122.787C101.36 123.455 102.329 123.912 103.972 123.833L103.828 122.892C103.745 122.346 104.12 121.836 104.666 121.752L105.306 121.655C104.331 119.332 104.172 117.067 104.682 115.197C105.193 113.325 106.401 111.82 108.112 111.204L107.947 110.123ZM112.354 112.485L110.377 112.787L110.075 110.81L112.052 110.508L112.354 112.485ZM96.6888 115.89L96.9909 117.867L98.9679 117.565L98.6659 115.588L96.6888 115.89ZM105.956 123.578L106.258 125.555L108.236 125.253L107.933 123.276L105.956 123.578Z" fill="#82B7FD"/>
<path d="M68.7095 127.752L72.4117 124.506C72.697 124.277 72.8107 123.973 72.7528 123.594C72.6949 123.215 72.4956 122.959 72.1549 122.825L67.6522 120.832C67.29 120.669 66.9497 120.704 66.6314 120.938C66.3131 121.172 66.1842 121.487 66.2446 121.882L67.0527 127.171C67.1131 127.566 67.3302 127.828 67.7038 127.956C68.0775 128.085 68.4127 128.017 68.7095 127.752ZM62.4201 133.265C61.8764 133.348 61.3816 133.226 60.9356 132.898C60.4889 132.57 60.224 132.134 60.141 131.59L58.3285 119.728C58.2454 119.184 58.368 118.689 58.6964 118.243C59.0241 117.797 59.4597 117.532 60.0034 117.449L75.8199 115.032C76.3635 114.949 76.8587 115.072 77.3055 115.4C77.7514 115.728 78.0159 116.163 78.099 116.707L79.9115 128.569C79.9946 129.113 79.8723 129.608 79.5447 130.055C79.2163 130.501 78.7802 130.766 78.2365 130.849L62.4201 133.265ZM62.118 131.288L77.9345 128.872L76.1219 117.009L60.3055 119.426L62.118 131.288Z" fill="#82B7FD"/>
<path d="M172.202 100.306C171.921 100.348 171.672 100.289 171.453 100.129C171.235 99.9684 171.105 99.7482 171.062 99.4681C171.019 99.188 171.078 98.9386 171.238 98.7199C171.399 98.5018 171.619 98.3713 171.899 98.3285L179.808 97.1202C180.088 97.0774 180.337 97.1361 180.555 97.2964C180.774 97.4572 180.904 97.6776 180.947 97.9577C180.99 98.2378 180.931 98.4869 180.77 98.705C180.61 98.9237 180.39 99.0545 180.11 99.0973L172.202 100.306ZM169.689 103.724C169.409 103.767 169.16 103.708 168.941 103.548C168.723 103.387 168.592 103.167 168.549 102.887C168.507 102.607 168.565 102.357 168.726 102.139C168.886 101.921 169.107 101.79 169.387 101.747L183.226 99.6327C183.506 99.5899 183.755 99.6486 183.974 99.8088C184.192 99.9696 184.323 100.19 184.366 100.47C184.409 100.75 184.35 101 184.189 101.218C184.029 101.437 183.809 101.567 183.528 101.61L169.689 103.724ZM170.966 118.703C170.422 118.786 169.928 118.664 169.482 118.336C169.035 118.008 168.77 117.572 168.687 117.028L167.177 107.143C167.094 106.599 167.216 106.104 167.544 105.657C167.872 105.211 168.308 104.947 168.852 104.864L184.668 102.447C185.212 102.364 185.707 102.486 186.153 102.814C186.6 103.142 186.864 103.578 186.947 104.122L188.458 114.007C188.541 114.551 188.418 115.046 188.091 115.493C187.762 115.939 187.326 116.204 186.783 116.287L170.966 118.703ZM170.664 116.726L186.481 114.31L184.97 104.424L169.154 106.841L170.664 116.726ZM177.822 113.584L180.66 110.975C180.926 110.732 181.033 110.438 180.98 110.092C180.928 109.746 180.738 109.497 180.411 109.344L176.923 107.702C176.558 107.522 176.218 107.557 175.902 107.808C175.586 108.058 175.459 108.381 175.519 108.777L176.161 112.978C176.221 113.373 176.44 113.643 176.816 113.788C177.192 113.933 177.527 113.865 177.822 113.584Z" fill="#82B7FD"/>
<path d="M-3.9406 132.606L-3.13252 137.895C-3.0721 138.29 -2.85506 138.552 -2.48138 138.68C-2.1077 138.809 -1.77247 138.741 -1.47569 138.476L2.22643 135.23C2.51178 135.001 2.6255 134.697 2.5676 134.318C2.5097 133.939 2.31039 133.683 1.96966 133.549L-2.53299 131.556C-2.89522 131.393 -3.23549 131.428 -3.55378 131.662C-3.87208 131.896 -4.00101 132.211 -3.9406 132.606ZM0.445185 144.758C-0.922277 144.967 -2.24704 144.904 -3.52909 144.568C-4.81105 144.233 -5.96483 143.689 -6.99044 142.935C-8.01606 142.182 -8.88007 141.243 -9.58249 140.119C-10.2856 138.996 -10.7416 137.751 -10.9505 136.383C-11.1595 135.016 -11.0962 133.691 -10.7606 132.409C-10.4257 131.127 -9.88143 129.973 -9.1277 128.948C-8.37396 127.922 -7.43541 127.058 -6.31205 126.355C-5.18859 125.652 -3.94313 125.197 -2.57566 124.988C-1.2082 124.779 0.116506 124.842 1.39846 125.176C2.68052 125.512 3.83435 126.057 4.85997 126.81C5.88558 127.564 6.74959 128.503 7.45201 129.626C8.15508 130.75 8.61109 131.995 8.82003 133.362C9.02898 134.73 8.96568 136.055 8.63014 137.337C8.29526 138.619 7.75095 139.772 6.99722 140.798C6.24348 141.824 5.30488 142.688 4.18142 143.39C3.05806 144.093 1.81265 144.549 0.445185 144.758ZM0.1431 142.781C2.33434 142.446 4.08268 141.391 5.38814 139.616C6.69285 137.839 7.17779 135.856 6.84298 133.664C6.50817 131.473 5.45299 129.725 3.67744 128.419C1.90133 127.115 -0.0823435 126.63 -2.27358 126.965C-4.46482 127.299 -6.21283 128.355 -7.51763 130.13C-8.82299 131.906 -9.30827 133.89 -8.97346 136.081C-8.63865 138.272 -7.58314 140.021 -5.80693 141.326C-4.03148 142.631 -2.04814 143.116 0.1431 142.781Z" fill="#82B7FD"/>
<path d="M134.583 122.239C134.039 122.322 133.544 122.2 133.098 121.872C132.652 121.544 132.387 121.108 132.304 120.564L130.491 108.702C130.408 108.158 130.531 107.663 130.859 107.217C131.187 106.771 131.622 106.506 132.166 106.423L144.028 104.61C144.572 104.527 145.067 104.65 145.514 104.978C145.96 105.306 146.224 105.742 146.307 106.285L146.987 110.734L149.625 107.144C149.765 106.954 149.94 106.885 150.15 106.937C150.36 106.99 150.483 107.131 150.518 107.362L151.817 115.863C151.853 116.094 151.778 116.265 151.593 116.378C151.407 116.49 151.22 116.477 151.03 116.337L147.44 113.699L148.12 118.148C148.203 118.691 148.081 119.186 147.753 119.633C147.425 120.079 146.989 120.344 146.445 120.427L134.583 122.239ZM134.281 120.262L146.143 118.45L144.33 106.587L132.468 108.4L134.281 120.262Z" fill="#82B7FD"/>
<path d="M209.024 112.888C208.481 112.971 207.986 112.849 207.54 112.521C207.093 112.193 206.828 111.757 206.745 111.213L204.328 95.3967C204.245 94.853 204.368 94.3578 204.696 93.9111C205.024 93.4651 205.46 93.2006 206.003 93.1175L213.096 92.0338C213.36 91.9935 213.619 92.0045 213.873 92.0668C214.127 92.1292 214.358 92.2372 214.567 92.3907L220.094 96.4525C220.303 96.6061 220.475 96.7946 220.61 97.018C220.746 97.2422 220.833 97.486 220.874 97.7496L222.562 108.796C222.645 109.34 222.522 109.835 222.195 110.282C221.866 110.728 221.43 110.992 220.887 111.076L209.024 112.888ZM213.829 97.9914L213.225 94.0373L206.306 95.0946L208.722 110.911L220.585 109.099L218.923 98.2247L214.969 98.8289C214.689 98.8717 214.44 98.8126 214.222 98.6517C214.003 98.4916 213.872 98.2715 213.829 97.9914Z" fill="#82B7FD"/>
<path d="M199.029 73.9512L200.388 82.8479L186.529 84.9656L184.414 71.1262L193.311 69.7668L193.009 67.7897L184.132 69.1461C183.044 69.3122 182.291 70.3379 182.457 71.4252L184.571 85.2646C184.738 86.352 185.763 87.1057 186.851 86.9396L200.69 84.825C201.777 84.6588 202.531 83.6332 202.365 82.5459L201.006 73.6491L199.029 73.9512ZM197.032 74.2563L197.65 72.078L199.544 70.8376L197.366 70.2195L196.125 68.3251L195.507 70.5035L193.613 71.7438L195.791 72.3619L197.032 74.2563ZM193.438 75.5641L191.787 73.0345L190.967 75.9417L188.437 77.5927L191.344 78.413L192.995 80.9427L193.816 78.0354L196.345 76.3844L193.438 75.5641Z" fill="#82B7FD"/>
<path d="M207.638 130.297L208.997 139.194L195.138 141.312L193.024 127.472L201.92 126.113L201.618 124.136L192.741 125.492C191.654 125.658 190.9 126.684 191.066 127.771L193.181 141.611C193.347 142.698 194.373 143.452 195.46 143.286L209.299 141.171C210.387 141.005 211.14 139.979 210.974 138.892L209.615 129.995L207.638 130.297ZM205.641 130.602L206.259 128.424L208.154 127.184L205.975 126.566L204.735 124.671L204.117 126.85L202.222 128.09L204.401 128.708L205.641 130.602ZM202.047 131.91L200.396 129.381L199.576 132.288L197.046 133.939L199.954 134.759L201.605 137.289L202.425 134.381L204.955 132.73L202.047 131.91Z" fill="#82B7FD"/>
<path d="M224.628 69.3569L225.436 74.6455C225.497 75.0409 225.714 75.3028 226.087 75.4311C226.461 75.5595 226.796 75.4914 227.093 75.2269L230.795 71.9805C231.081 71.7514 231.194 71.4474 231.136 71.0685C231.079 70.6895 230.879 70.4334 230.539 70.3L226.036 68.3072C225.674 68.1434 225.333 68.1785 225.015 68.4126C224.697 68.6467 224.568 68.9615 224.628 69.3569ZM229.014 81.5088C227.647 81.7178 226.322 81.6545 225.04 81.3189C223.758 80.9841 222.604 80.4398 221.578 79.686C220.553 78.9323 219.689 77.9937 218.986 76.8702C218.283 75.7469 217.827 74.5015 217.618 73.134C217.409 71.7665 217.473 70.4418 217.808 69.1597C218.143 67.8778 218.687 66.724 219.441 65.6984C220.195 64.6727 221.133 63.8084 222.257 63.1053C223.38 62.4029 224.626 61.9472 225.993 61.7383C227.361 61.5294 228.685 61.5923 229.967 61.9272C231.249 62.2627 232.403 62.8074 233.429 63.5611C234.454 64.3148 235.318 65.2534 236.021 66.3769C236.724 67.5003 237.18 68.7457 237.389 70.1131C237.598 71.4806 237.535 72.8054 237.199 74.0874C236.864 75.3694 236.32 76.5232 235.566 77.5488C234.812 78.5744 233.874 79.4384 232.75 80.1408C231.627 80.8439 230.381 81.2999 229.014 81.5088ZM228.712 79.5318C230.903 79.197 232.652 78.1418 233.957 76.3662C235.262 74.5901 235.747 72.6065 235.412 70.4152C235.077 68.224 234.022 66.4756 232.246 65.1702C230.47 63.8655 228.487 63.3805 226.295 63.7153C224.104 64.0502 222.356 65.1053 221.051 66.8807C219.746 68.6569 219.261 70.6407 219.595 72.8319C219.93 75.0231 220.986 76.7714 222.762 78.0768C224.537 79.3816 226.521 79.8666 228.712 79.5318Z" fill="#82B7FD"/>
<path d="M149.63 91.6151C149.086 91.6982 148.591 91.5759 148.145 91.2481C147.698 90.9198 147.434 90.4838 147.35 89.9402L145.538 78.0778C145.455 77.5341 145.578 77.0393 145.906 76.5932C146.234 76.1466 146.669 75.8818 147.213 75.7987L152.329 75.017C152.592 74.9768 152.851 74.9878 153.105 75.0501C153.359 75.1125 153.59 75.2204 153.799 75.374L155.423 76.5674L163.331 75.3591C163.875 75.276 164.37 75.3986 164.817 75.7269C165.263 76.0546 165.527 76.4903 165.611 77.034L167.121 86.9193C167.204 87.463 167.082 87.9581 166.754 88.4048C166.426 88.8508 165.99 89.1154 165.446 89.1984L149.63 91.6151ZM147.515 77.7757L149.327 89.6381L165.144 87.2214L163.634 77.3361L154.91 78.6691L152.631 76.9941L147.515 77.7757Z" fill="#82B7FD"/>
<path d="M158.239 147.961C157.695 148.044 157.2 147.922 156.754 147.594C156.308 147.266 156.043 146.83 155.96 146.286L154.147 134.424C154.064 133.88 154.187 133.385 154.515 132.939C154.843 132.493 155.279 132.228 155.822 132.145L160.938 131.363C161.202 131.323 161.46 131.334 161.715 131.396C161.968 131.459 162.2 131.567 162.409 131.72L164.033 132.913L171.941 131.705C172.484 131.622 172.98 131.745 173.426 132.073C173.872 132.401 174.137 132.836 174.22 133.38L175.73 143.265C175.813 143.809 175.691 144.304 175.364 144.751C175.035 145.197 174.599 145.461 174.055 145.545L158.239 147.961ZM156.124 134.122L157.937 145.984L173.753 143.567L172.243 133.682L163.519 135.015L161.24 133.34L156.124 134.122Z" fill="#82B7FD"/>
<path fill-rule="evenodd" clip-rule="evenodd" d="M13.7619 96.1894C13.6785 95.6435 14.0534 95.1333 14.5994 95.0499L18.5535 94.4457C19.0995 94.3623 19.6097 94.7372 19.6931 95.2832L20.2972 99.2373C20.3807 99.7832 20.0057 100.293 19.4598 100.377L15.5056 100.981C14.9597 101.064 14.4495 100.689 14.3661 100.144L14.2395 99.3153C13.4074 99.7523 12.7526 100.597 12.4267 101.79C12.0215 103.274 12.154 105.261 13.1711 107.407L14.4348 107.214C14.9808 107.131 15.491 107.506 15.5744 108.052L16.1786 112.006C16.262 112.552 15.8871 113.062 15.3411 113.145L11.387 113.75C10.841 113.833 10.3308 113.458 10.2474 112.912L10.0903 111.883C7.91254 112.03 6.26595 111.466 5.08949 110.234C4.02033 109.114 3.46348 107.561 3.12994 105.907L2.11939 106.061C1.57345 106.145 1.06324 105.77 0.979824 105.224L0.375654 101.27C0.292236 100.724 0.667191 100.213 1.21314 100.13L5.16725 99.5259C5.7132 99.4424 6.2234 99.8174 6.30682 100.363L6.91099 104.317C6.99441 104.863 6.61945 105.374 6.0735 105.457L5.1099 105.604C5.41106 107.049 5.85475 108.139 6.53593 108.853C7.17456 109.521 8.14393 109.978 9.78697 109.899L9.64326 108.958C9.55984 108.412 9.93479 107.902 10.4807 107.818L11.1212 107.721C10.1461 105.398 9.98686 103.133 10.4974 101.263C11.0084 99.3914 12.2155 97.886 13.927 97.2702L13.7619 96.1894ZM18.1691 98.5508L16.1921 98.8529L15.89 96.8759L17.8671 96.5738L18.1691 98.5508ZM2.50375 101.956L2.80584 103.933L4.78289 103.631L4.48081 101.654L2.50375 101.956ZM11.7714 109.644L12.0734 111.622L14.0505 111.319L13.7484 109.342L11.7714 109.644Z" fill="#82B7FD"/>
<path d="M78.016 86.3718C77.7359 86.4146 77.4864 86.3556 77.2676 86.1948C77.0496 86.0345 76.9192 85.8144 76.8764 85.5343C76.8336 85.2542 76.8923 85.0048 77.0524 84.7861C77.2133 84.568 77.4338 84.4375 77.7139 84.3947L85.6221 83.1864C85.9022 83.1436 86.1512 83.2023 86.3693 83.3625C86.5881 83.5233 86.7189 83.7438 86.7617 84.0239C86.8045 84.3039 86.7454 84.553 86.5845 84.7712C86.4244 84.9899 86.2043 85.1206 85.9242 85.1634L78.016 86.3718ZM75.5035 89.7905C75.2234 89.8333 74.974 89.7746 74.7553 89.6145C74.5372 89.4536 74.4067 89.2331 74.3639 88.953C74.3211 88.6729 74.3798 88.4235 74.54 88.2048C74.7009 87.9867 74.9213 87.8562 75.2014 87.8134L89.0408 85.6988C89.3209 85.656 89.5699 85.7148 89.788 85.875C90.0068 86.0358 90.1376 86.2562 90.1804 86.5363C90.2232 86.8164 90.1642 87.0658 90.0034 87.2846C89.8431 87.5027 89.623 87.6331 89.3429 87.6759L75.5035 89.7905ZM76.7806 104.769C76.2369 104.852 75.7421 104.73 75.2962 104.402C74.8494 104.074 74.5846 103.638 74.5015 103.094L72.9911 93.2092C72.908 92.6655 73.0306 92.1703 73.3589 91.7236C73.6866 91.2776 74.1223 91.0131 74.666 90.93L90.4825 88.5134C91.0262 88.4303 91.5213 88.5526 91.9679 88.8802C92.414 89.2086 92.6785 89.6446 92.7616 90.1883L94.272 100.074C94.3551 100.617 94.2328 101.112 93.9052 101.559C93.5768 102.005 93.1407 102.27 92.5971 102.353L76.7806 104.769ZM76.4785 102.792L92.295 100.376L90.7845 90.4904L74.9681 92.9071L76.4785 102.792ZM83.6361 99.6502L86.4746 97.0416C86.741 96.7985 86.8477 96.504 86.7948 96.1581C86.742 95.8121 86.5521 95.5629 86.2254 95.4105L82.7374 93.7685C82.3726 93.5882 82.0323 93.6233 81.7166 93.8739C81.4008 94.1245 81.2731 94.4474 81.3335 94.8429L81.9755 99.0441C82.0359 99.4395 82.2542 99.7096 82.6304 99.8545C83.0066 99.9993 83.3418 99.9312 83.6361 99.6502Z" fill="#82B7FD"/>
<path d="M86.6253 142.718C86.3453 142.761 86.0958 142.702 85.877 142.541C85.659 142.38 85.5286 142.16 85.4858 141.88C85.443 141.6 85.5016 141.351 85.6618 141.132C85.8227 140.914 86.0432 140.783 86.3233 140.741L94.2315 139.532C94.5116 139.49 94.7606 139.548 94.9787 139.708C95.1975 139.869 95.3282 140.09 95.371 140.37C95.4138 140.65 95.3548 140.899 95.1939 141.117C95.0337 141.336 94.8136 141.467 94.5336 141.509L86.6253 142.718ZM84.1129 146.136C83.8328 146.179 83.5834 146.121 83.3647 145.96C83.1466 145.8 83.0161 145.579 82.9733 145.299C82.9305 145.019 82.9892 144.769 83.1493 144.551C83.3102 144.333 83.5307 144.202 83.8108 144.159L97.6502 142.045C97.9303 142.002 98.1793 142.061 98.3974 142.221C98.6162 142.382 98.747 142.602 98.7898 142.882C98.8325 143.162 98.7735 143.412 98.6127 143.631C98.4525 143.849 98.2323 143.979 97.9523 144.022L84.1129 146.136ZM85.39 161.115C84.8463 161.198 84.3515 161.076 83.9055 160.748C83.4588 160.42 83.1939 159.984 83.1109 159.44L81.6004 149.555C81.5174 149.011 81.64 148.516 81.9683 148.07C82.296 147.624 82.7317 147.359 83.2754 147.276L99.0918 144.859C99.6355 144.776 100.131 144.899 100.577 145.226C101.023 145.555 101.288 145.991 101.371 146.534L102.881 156.42C102.964 156.963 102.842 157.458 102.515 157.905C102.186 158.351 101.75 158.616 101.206 158.699L85.39 161.115ZM85.0879 159.138L100.904 156.722L99.3939 146.836L83.5775 149.253L85.0879 159.138ZM92.2454 155.996L95.084 153.388C95.3503 153.144 95.4571 152.85 95.4042 152.504C95.3513 152.158 95.1615 151.909 94.8348 151.756L91.3467 150.114C90.982 149.934 90.6417 149.969 90.3259 150.22C90.0102 150.47 89.8825 150.793 89.9429 151.189L90.5848 155.39C90.6452 155.785 90.8635 156.056 91.2397 156.2C91.6159 156.345 91.9512 156.277 92.2454 155.996Z" fill="#82B7FD"/>
<path d="M40.3976 108.305C39.854 108.388 39.3591 108.266 38.9132 107.938C38.4665 107.61 38.2016 107.174 38.1185 106.63L36.306 94.768C36.2229 94.2243 36.3456 93.7294 36.674 93.2834C37.0016 92.8368 37.4373 92.5719 37.981 92.4889L49.8433 90.6764C50.387 90.5933 50.8822 90.7159 51.3289 91.0442C51.7748 91.3719 52.0394 91.8076 52.1224 92.3513L52.8021 96.7997L55.4402 93.2101C55.5798 93.0201 55.7547 92.9512 55.965 93.0034C56.1753 93.0556 56.2981 93.197 56.3333 93.4277L57.6323 101.929C57.6675 102.16 57.5926 102.331 57.4075 102.444C57.2223 102.556 57.0348 102.543 56.8449 102.403L53.2552 99.7653L53.9349 104.214C54.018 104.757 53.8957 105.252 53.5681 105.699C53.2397 106.145 52.8037 106.41 52.26 106.493L40.3976 108.305ZM40.0956 106.328L51.9579 104.516L50.1454 92.6534L38.283 94.4659L40.0956 106.328Z" fill="#82B7FD"/>
<path d="M49.007 164.651C48.4633 164.734 47.9685 164.612 47.5226 164.284C47.0758 163.956 46.8109 163.52 46.7279 162.976L44.9154 151.114C44.8323 150.57 44.955 150.076 45.2833 149.629C45.611 149.183 46.0466 148.918 46.5903 148.835L58.4527 147.022C58.9964 146.939 59.4916 147.062 59.9383 147.39C60.3842 147.718 60.6487 148.154 60.7318 148.697L61.4115 153.146L64.0496 149.556C64.1892 149.366 64.3641 149.297 64.5744 149.349C64.7847 149.402 64.9074 149.543 64.9427 149.774L66.2416 158.275C66.2769 158.506 66.202 158.677 66.0168 158.79C65.8317 158.903 65.6442 158.889 65.4543 158.749L61.8646 156.111L62.5443 160.56C62.6274 161.103 62.5051 161.599 62.1775 162.045C61.8491 162.491 61.413 162.756 60.8693 162.839L49.007 164.651ZM48.7049 162.674L60.5673 160.862L58.7547 148.999L46.8924 150.812L48.7049 162.674Z" fill="#82B7FD"/>
<path d="M114.839 98.9542C114.296 99.0373 113.801 98.915 113.355 98.5872C112.908 98.259 112.643 97.823 112.56 97.2793L110.143 81.4628C110.06 80.9191 110.183 80.4239 110.511 79.9772C110.839 79.5313 111.275 79.2668 111.818 79.1837L118.911 78.1C119.175 78.0597 119.434 78.0707 119.688 78.133C119.942 78.1954 120.173 78.3034 120.382 78.4569L125.909 82.5187C126.118 82.6722 126.29 82.8607 126.425 83.0842C126.56 83.3083 126.648 83.5522 126.689 83.8158L128.377 94.8626C128.46 95.4063 128.337 95.9014 128.01 96.348C127.681 96.7941 127.245 97.0587 126.702 97.1417L114.839 98.9542ZM119.644 84.0576L119.04 80.1035L112.12 81.1607L114.537 96.9772L126.399 95.1647L124.738 84.2909L120.784 84.895C120.504 84.9378 120.255 84.8788 120.037 84.7179C119.818 84.5578 119.687 84.3376 119.644 84.0576Z" fill="#82B7FD"/>
<path d="M123.449 155.3C122.905 155.383 122.41 155.261 121.964 154.933C121.517 154.605 121.253 154.169 121.169 153.625L118.753 137.809C118.67 137.265 118.792 136.77 119.121 136.323C119.448 135.877 119.884 135.613 120.428 135.53L127.52 134.446C127.784 134.406 128.043 134.417 128.297 134.479C128.551 134.541 128.782 134.649 128.991 134.803L134.518 138.865C134.727 139.018 134.899 139.207 135.034 139.43C135.17 139.654 135.258 139.898 135.298 140.162L136.986 151.209C137.069 151.752 136.947 152.247 136.619 152.694C136.291 153.14 135.855 153.405 135.311 153.488L123.449 155.3ZM128.254 140.404L127.65 136.449L120.73 137.507L123.147 153.323L135.009 151.511L133.347 140.637L129.393 141.241C129.113 141.284 128.864 141.225 128.646 141.064C128.427 140.904 128.296 140.684 128.254 140.404Z" fill="#82B7FD"/>
</g>
</svg>
