<svg width="24" height="24" viewBox="0 0 24 24" fill="none" xmlns="http://www.w3.org/2000/svg">
<path d="M19.3633 9.09082C20.2633 9.09082 21 9.82756 21 10.7275C20.9998 11.9135 19.8216 12.5764 18.9463 12.3066L16.0332 15.2109C16.3113 16.0945 15.6404 17.2725 14.4541 17.2725C13.2599 17.2723 12.5971 16.0863 12.875 15.2109L10.7891 13.124C10.5437 13.1976 10.1839 13.1976 9.93848 13.124L6.21582 16.8555C6.48553 17.7308 5.82274 18.909 4.63672 18.9092C3.73674 18.9092 3 18.1724 3 17.2725C3 16.0861 4.17828 15.4234 5.05371 15.6934L8.78418 11.9707C8.50617 11.0872 9.17722 9.90939 10.3633 9.90918C11.5578 9.90918 12.2206 11.0953 11.9424 11.9707L14.0293 14.0566C14.2747 13.9831 14.6346 13.9831 14.8799 14.0566L17.7842 11.1445C17.5142 10.2691 18.177 9.0909 19.3633 9.09082ZM5.45508 9.09082L7.09082 9.5L5.45508 9.90918L5.0459 11.5449L4.63672 9.90918L3 9.5L4.63672 9.09082L5.0459 7.4541L5.45508 9.09082ZM15.2236 6.69336L16.9092 7.4541L15.2236 8.21582L14.4541 9.90918L13.7021 8.21582L12 7.4541L13.7021 6.69336L14.4541 5L15.2236 6.69336Z" fill="#172537"/>
</svg>
