<svg width="24" height="24" viewBox="0 0 24 24" fill="none" xmlns="http://www.w3.org/2000/svg">
<mask id="mask0_1_6593" style="mask-type:alpha" maskUnits="userSpaceOnUse" x="0" y="0" width="24" height="24">
<rect width="24" height="24" fill="#D9D9D9"/>
</mask>
<g mask="url(#mask0_1_6593)">
<path fill-rule="evenodd" clip-rule="evenodd" d="M16 4C16 3.44772 16.4477 3 17 3H21C21.5523 3 22 3.44772 22 4V8C22 8.55228 21.5523 9 21 9H17C16.4477 9 16 8.55228 16 8V7.16211C15.1114 7.46841 14.3366 8.20414 13.8342 9.33457C13.2095 10.7402 13.0404 12.7243 13.7216 15H15C15.5523 15 16 15.4477 16 16V20C16 20.5523 15.5523 21 15 21H11C10.4477 21 10 20.5523 10 20V18.9594C7.82509 18.7756 6.28264 17.969 5.30577 16.5735C4.41798 15.3052 4.10211 13.6858 4.02227 12H3C2.44772 12 2 11.5523 2 11V7C2 6.44772 2.44772 6 3 6H7C7.55228 6 8 6.44772 8 7V11C8 11.5523 7.55228 12 7 12H6.02521C6.10464 13.4741 6.37861 14.6185 6.94423 15.4265C7.47452 16.1841 8.36381 16.7818 10 16.9515V16C10 15.4477 10.4477 15 11 15H11.6479C11.0348 12.557 11.2195 10.2933 12.0066 8.52236C12.7945 6.7494 14.2151 5.44358 16 5.0933V4ZM20 7H18V5H20V7ZM4 8V10H6V8H4ZM12 17V19H14V17H12Z" fill="#172537"/>
</g>
</svg>
