<svg width="32" height="32" viewBox="0 0 32 32" fill="none" xmlns="http://www.w3.org/2000/svg">
<mask id="mask0_5_821" style="mask-type:alpha" maskUnits="userSpaceOnUse" x="7" y="7" width="18" height="18">
<rect x="7" y="7" width="18" height="18" fill="#D9D9D9"/>
</mask>
<g mask="url(#mask0_5_821)">
<path d="M9.25 20.875V11.125C9.25 10.85 9.3625 10.6405 9.5875 10.4965C9.8125 10.353 10.05 10.3312 10.3 10.4312L21.85 15.3062C22.1625 15.4437 22.3187 15.675 22.3187 16C22.3187 16.325 22.1625 16.5562 21.85 16.6937L10.3 21.5687C10.05 21.6687 9.8125 21.6467 9.5875 21.5027C9.3625 21.3592 9.25 21.15 9.25 20.875ZM10.75 19.75L19.6375 16L10.75 12.25V14.875L15.25 16L10.75 17.125V19.75Z" fill="#293748"/>
</g>
</svg>
