<svg width="16" height="16" viewBox="0 0 16 16" fill="none" xmlns="http://www.w3.org/2000/svg">
<mask id="mask0_1272_30775" style="mask-type:alpha" maskUnits="userSpaceOnUse" x="0" y="0" width="16" height="16">
<rect x="16" y="6.99382e-07" width="16" height="16" transform="rotate(90 16 6.99382e-07)" fill="#D9D9D9"/>
</mask>
<g mask="url(#mask0_1272_30775)">
<path d="M2.66732 6.00008C2.66732 5.63341 2.79776 5.31964 3.05865 5.05875C3.31998 4.79741 3.63398 4.66675 4.00065 4.66675C4.36732 4.66675 4.68132 4.79741 4.94265 5.05875C5.20354 5.31964 5.33398 5.63341 5.33398 6.00008C5.33398 6.36675 5.20354 6.68075 4.94265 6.94208C4.68132 7.20297 4.36732 7.33341 4.00065 7.33341C3.63398 7.33341 3.31998 7.20297 3.05865 6.94208C2.79776 6.68075 2.66732 6.36675 2.66732 6.00008ZM2.66732 10.0001C2.66732 9.63341 2.79776 9.31964 3.05865 9.05875C3.31998 8.79741 3.63398 8.66675 4.00065 8.66675C4.36732 8.66675 4.68132 8.79741 4.94265 9.05875C5.20354 9.31964 5.33398 9.63341 5.33398 10.0001C5.33398 10.3667 5.20354 10.6807 4.94265 10.9421C4.68132 11.203 4.36732 11.3334 4.00065 11.3334C3.63398 11.3334 3.31998 11.203 3.05865 10.9421C2.79776 10.6807 2.66732 10.3667 2.66732 10.0001ZM6.66732 6.00008C6.66732 5.63342 6.79799 5.31964 7.05932 5.05875C7.32021 4.79742 7.63398 4.66675 8.00065 4.66675C8.36732 4.66675 8.68132 4.79742 8.94265 5.05875C9.20354 5.31964 9.33398 5.63342 9.33398 6.00008C9.33398 6.36675 9.20354 6.68075 8.94265 6.94208C8.68132 7.20297 8.36732 7.33342 8.00065 7.33342C7.63398 7.33342 7.32021 7.20297 7.05932 6.94208C6.79798 6.68075 6.66732 6.36675 6.66732 6.00008ZM6.66732 10.0001C6.66732 9.63341 6.79798 9.31964 7.05932 9.05875C7.32021 8.79742 7.63398 8.66675 8.00065 8.66675C8.36732 8.66675 8.68132 8.79742 8.94265 9.05875C9.20354 9.31964 9.33398 9.63341 9.33398 10.0001C9.33398 10.3667 9.20354 10.6807 8.94265 10.9421C8.68132 11.203 8.36732 11.3334 8.00065 11.3334C7.63398 11.3334 7.32021 11.203 7.05932 10.9421C6.79798 10.6807 6.66732 10.3667 6.66732 10.0001ZM10.6673 6.00008C10.6673 5.63342 10.798 5.31964 11.0593 5.05875C11.3202 4.79742 11.634 4.66675 12.0007 4.66675C12.3673 4.66675 12.6811 4.79742 12.942 5.05875C13.2033 5.31964 13.334 5.63342 13.334 6.00008C13.334 6.36675 13.2033 6.68075 12.942 6.94208C12.6811 7.20297 12.3673 7.33342 12.0007 7.33342C11.634 7.33342 11.3202 7.20297 11.0593 6.94208C10.798 6.68075 10.6673 6.36675 10.6673 6.00008ZM10.6673 10.0001C10.6673 9.63341 10.798 9.31964 11.0593 9.05875C11.3202 8.79742 11.634 8.66675 12.0007 8.66675C12.3673 8.66675 12.6811 8.79742 12.942 9.05875C13.2033 9.31964 13.334 9.63342 13.334 10.0001C13.334 10.3667 13.2033 10.6807 12.942 10.9421C12.6811 11.203 12.3673 11.3334 12.0007 11.3334C11.634 11.3334 11.3202 11.203 11.0593 10.9421C10.798 10.6807 10.6673 10.3667 10.6673 10.0001Z" fill="#8D8A87"/>
</g>
</svg>
